<svg xmlns="http://www.w3.org/2000/svg" data-name="Layer 1" viewBox="0 0 755 175"><path d="M714.84 90.65c.81 5.27-1.63 10.37-4.88 15-2.71 4.15-7.32 7.82-10.84 11.81-3.52 4.15-10.3 5.42-17.07 6.54-15.44 2.39-31.16 2.87-47.15 3.35-9.48.16-19.24 1.12-28.99 1.44-7.32.32-14.9.48-22.22.48-16.8 0-33.6.16-50.4.16-16.53-.16-33.06-.32-49.85-.32-11.11 0-22.22.16-33.33.64-7.32.48-14.63.16-22.22 0-11.38 0-23.03.48-34.41.48l-49.86.48c-1.63 0-2.98-.32-4.61-.48-2.17-.16-4.06-.64-6.23-.48-9.21.16-18.15-.16-27.09 1.91-3.52.8-8.13.64-12.19.64-7.59-.16-15.17-.16-22.49 1.28-2.71.64-5.69.32-8.67.32-7.86-.16-15.99-.64-23.84-.32-7.04.32-13.82.48-20.86.16-7.59-.32-15.17.64-22.76.96-7.31.32-14.63 1.12-21.95.96-11.92-.48-23.84-1.44-35.49-2.39-7.86-.64-15.44-1.75-23.03-2.55-16.8-1.6-31.7-5.74-43.62-12.92-4.06-2.39-6.77-4.95-7.86-8.62-1.08-3.67-4.33-7.02-6.5-10.69-1.63-2.71-2.98-5.59-2.44-8.62.54-1.28 0-2.55 0-3.67.54-3.51 1.08-6.86 1.36-10.37l.81-7.18c0-1.12.27-2.23 1.08-3.35 3.25-4.47 7.04-9.09 10.57-13.72 2.17-2.55 6.23-3.67 10.57-4.47 6.77-1.44 14.36-1.12 21.13-3.35 1.35-.48 3.25-.48 5.15-.48 13.01.16 26.28.32 39.56.32 16.8.16 33.33.48 49.86.48 5.15 0 10.02-.64 15.17-.8 6.23-.16 12.73-.16 19.24 0 5.42.16 10.84.48 16.26.64 11.38 0 22.76-.16 33.87-.16 2.71 0 5.15.32 7.59.48 7.32.32 14.36.8 21.68-.16 2.71-.32 5.42-.16 8.13 0 8.67 0 17.07.16 25.74.32 2.98.16 6.23.48 9.21.48 2.44.16 4.61.16 7.04.16 1.63-.16 2.98-.32 4.61-.32 7.86.32 15.99.8 23.84 1.28 2.44.16 4.88.32 7.59.32 16.8.32 33.33 1.44 50.12.96 1.35-.16 2.44-.16 3.25-.32 3.25-5.58 10.57-6.7 17.88-6.7 5.96-.16 11.65.64 17.34 1.12 8.67.64 17.34 1.12 25.74 2.07 14.63 1.75 29.53 1.12 44.16 1.91 6.77.32 13.82-.48 20.59-.32 10.84.16 21.68.8 32.51 1.28 15.71.8 30.07 3.99 44.71 6.86 4.88.96 10.02 1.91 15.17 2.55 6.5.64 11.38 2.55 16.26 4.95 8.13 3.99 16.26 7.66 24.38 11.65 4.06 1.91 7.32 3.67 7.04 7.34-.54 3.67.81 7.34 1.63 11.01Z" style="fill:#7f8b3e;stroke-width:0"/></svg>