<svg xmlns="http://www.w3.org/2000/svg" id="Layer_1" data-name="Layer 1" version="1.1" viewBox="0 0 2424.7 646.1"><defs><style>.cls-1{fill:#643e3b;stroke-width:0}</style></defs><path d="M2424.7 646.1H0V157.8c35.1-30.7 85.1-37.3 126.9-16.7l60.5 12.4 511.4 4.3h1725.9v488.4Z" class="cls-1"/><path d="M0 276.3V109.4s52.3-20.7 104.8 0 82.7 14.1 141.5 19.8 205.1 15.2 246.4 10.4 100.1-22.5 163.7-10.4 181.2 13.6 203.5 10.4 117.6-25.4 171.7-17.5 130.3 20.7 171.7 19.1 168.5 22.3 283 9.5 391-19.7 453-6.4 271.8 4.8 335.4-3.2 150.1 16.5 150.1 16.5l-926.5 260L80.4 387.5z" class="cls-1"/></svg>