<svg xmlns="http://www.w3.org/2000/svg" id="Layer_1" data-name="Layer 1" version="1.1" viewBox="0 0 905 850.1"><defs><style>.cls-1{fill:#f5f0e2}.cls-1,.cls-2,.cls-4,.cls-6{stroke-width:0}.cls-2{fill:#f5f0e1}.cls-4{fill:#fcf3f3}.cls-6{fill:#f3eee0}</style></defs><path d="m798.8 729.2-1 1c-.7 1-1.3 2-2 3l-1 1c-1 1.3-2 2.7-3 4l-7 7c-2.9-.2-4.2 1.1-4 4-2.3 2-4.7 4-7 6-1 .7-2 1.3-3 2l-1 1c-1 .7-2 1.3-3 2-2 1.3-4 2.7-6 4-1 .7-2 1.3-3 2-1.3.7-2.7 1.3-4 2l-6 3h-.9c-3.4 2-6.7 3.9-10.1 5.9-1 .3-2 .7-3 1-3.8.9-7.7 1.6-11.5 2.8-2 .6-3.7 2.1-5.5 3.2h-1c-.3.3-.7.6-1 1h-1c-.7-.3-1.5-1-2.2-.8-9 2.2-17.9 4.6-26.8 6.9-1 .7-2 1.3-3 2h-4c-2-1.3-3.9-2-5 1h-2c-1.3.3-2.7.7-4 1h-2c-1.3.3-2.7.7-4 1h-5c-2-1.3-3.9-2.1-5 1h-3c-2-1.3-3.9-2-5 1h-7c-3.8-1-7.6-2.7-11 1h-9c-1.4-.3-2.8-1-4.2-1h-53.7c-1.4 0-2.8.6-4.2.9h-54.5c-50.8-.3-101.5-.7-152.3-.9-21.6-.1-43.2.5-64.7-.2-16.5-.5-33-2.6-49.5-3.8-20-1.5-39.6-5.6-58.9-11.1-8.3-2.4-16.2-5.9-24.2-8.9l-6-3c-1.3-.7-2.7-1.3-4-2-.7-.3-1.3-.7-2-1-4-2.3-8-4.7-12-7-1-.7-2-1.3-3-2-1.7-1-3.3-2-5-3-.3-.3-.7-.6-1-1-14.2-10.8-25.7-23.9-34.6-39.3-.7-1.1-.9-2.5-1.4-3.7-1-1.7-2-3.3-3-5-.7-1.7-1.4-3.3-2-5-.7-1.3-1.3-2.7-2-4v-1c-.4-1.9-.6-3.9-1.1-5.8-2.3-7.9-4.9-15.8-7.2-23.7-1.7-6.1-3.2-12.3-4.8-18.5-.7-3.3-1.4-6.6-2-10l-.9-3v-2c1-2.2 2.4-4.5-1-6v-3c-.2-5.5-.4-11-.7-16.5 0-.2-.8-.4-1.3-.5v-4c1-4.4 2.7-8.9-1-13v-4c.3-.4.8-.8.8-1.2 0-9.1.2-18.3 0-27.4 0-.8-1.2-1.6-1.9-2.4.3-3 .6-6 .9-8.9v-47.7c0-1.5-1.2-2.9-1.9-4.4v-6c.6-.4 1.2-.8 1.8-1.3-.6-.6-1.2-1.2-1.8-1.7v-19c.3-4.7.9-9.3.9-14 0-4-.6-8-.9-12v-25c.7-1.5 1.9-2.9 1.9-4.4.2-10.5.1-20.9 0-31.4 0-1.4-.6-2.8-.9-4.2v-15c.7-1.5 1.9-2.9 1.9-4.4.2-12.5.1-24.9 0-37.4 0-1.4-.6-2.8-.9-4.2v-17c.7-1.3 1.8-2.5 1.9-3.8.3-3.1 0-6.2 0-9.3-.3-8-.6-15.9-.9-23.9 2.8-2.7 2.8-6.3 0-9 .3-6 .7-12 1-18 .5-.3 1.6-.7 1.6-1-.1-5.4-.3-10.7-.6-16v-4c3.7-2.2 2-5.2 1-8v-2c.6-2.4 1.3-4.7 1.9-7.1v-10c.6-.3 1.5-.5 1.6-1 2.2-10 4.3-20 6.4-30.1l-1-1 1-1c.3 0 .9 0 .9-.3 2.7-8.2 5.4-16.5 8.1-24.7v-1l3-6c2-3.7 4-7.3 6-11 .3-.7.7-1.3 1-2 .7-1 1.3-2 2-3s1.3-2 2-3 1.3-2 2-3l1-1c.7-1 1.3-2 2-3l2-2 3-3c1.7-2 3.3-4 5-6 .7-.3 1.3-.7 2-1l2-2 2-2 1-1 1-1c1-.7 2-1.3 3-2 1.3-1 2.7-2 4-3 5.3-3 10.7-6 16-9 1.1-.1 2.5 0 3.4-.4 12.8-6.7 26.7-9.7 40.7-12.6 1.1-.2 1.9-1.3 2.9-1.9h2c1.3-.3 2.7-.7 4-1h2c4 1.4 7.8 1.1 11-2h2c5 1.4 9.7 1.1 14-2h2c2.2.3 4.4 1.2 6.5.8 3.6-.6 7-1.8 10.5-2.8h3c3.5 1 7 2.7 10-1h2c.2.2.5.6.7.6 9-.2 17.9-.5 26.9-.9.5 0 .9-1.2 1.4-1.8h9c4.4 1 8.9 2.9 13-.9h3c.7.3 1.5.9 2.2.9h38.9c1 0 1.9-1.2 2.9-1.9h2c.4.6.8 1.2 1.3 1.8.6-.6 1.2-1.2 1.7-1.8h15c2.7 3.2 5.3 3.1 8 0h20c1.7.3 3.5.9 5.2.9h52.8c6.9 0 13.8.1 20.7 0 1.5 0 2.9-1.2 4.3-1.9h49c1.5.7 2.9 1.8 4.4 1.9 7.1.2 14.3.2 21.4 0 2.4 0 4.8-.6 7.2-.9h7c.3.5.6 1.6 1 1.6 5.7-.1 11.4-.4 17.1-.6h6c3.4 3.7 7.2 1.9 11 1h2c1.1.7 2.1 1.7 3.3 1.9 2.6.3 5.2 0 7.7 0h16c1.9 3.3 4.4 2.2 7 1h2c5 3.1 10.4 3.4 16 2h2c1.1 3 3 2.3 5 1 10.7 1.7 21.3 3.3 32 5 1.6 1 3 2.3 4.7 2.9 9.3 2.9 18.7 5.6 28 8.5 4.9 1.6 9.5 3.7 14.3 5.6h1c1.7 1 3.3 2 5 3 .7.3 1.3.7 2 1 1 .7 2 1.3 3 2 1.7 1 3.3 2 5 3l1 1c1 .7 2 1.3 3 2 .7.3 1.3.7 2 1 .7.6 1.3 1.3 2 1.9l2 2 4 4c2 1.7 4 3.4 6 5 1 1.3 2 2.7 3 4l1 1 1 1c.3.7.7 1.3 1 2 .7.7 1.3 1.4 2 2l1 1c.3.3.6.7 1 1 .3.7.7 1.3 1 2 .7 1 1.3 2 2 3 1 1.7 2 3.3 3 5 2 3.3 4 6.7 6 10v1l1 1v1c.1 1.2 0 2.4.3 3.4 4.2 13.2 8.4 26.5 12.7 39.7.2.8 1.2 1.3 1.9 1.9v2c.3 1 .6 2 1 3v2c-.3 1-.9 2.2-.7 3.1.8 5.2 1.7 10.4 2.7 15.5.3 1.5 1.3 2.9 2 4.4v11c.7 2.7 1.3 5.3 2 8v2c-1.2 2.6-2.3 5.1 1 7v4c-.9 4.1-2.8 8.3 1 12v5l-.9 14.1v2.8c0 2-.3 3.9 0 5.8.3 1.8 1.2 3.5 1.9 5.3v5c-.3.7-.9 1.5-.9 2.2V318c0 1 1.2 1.9 1.9 2.9v8c-2.8 1.3-2.8 2.7 0 4v25c-.3 1.4-.9 2.8-.9 4.2v63.6c0 1.4.6 2.8.9 4.2v35l-.9 11.1v6.9c0 12.2-.1 24.5 0 36.7 0 1.5 1.2 2.9 1.9 4.4v13c-.3 1.2-.9 2.4-.9 3.7v51.7c0 1.2.6 2.4.9 3.7-.3 9.7-.7 19.3-1 29-3.6 2.2-2.1 5.2-1 8v3c-3.1 4-3.4 8.4-2 13v2c-2.7 2.9-3.8 6.2-2 10v2c-1.3 5-2.7 10-4 15-.7 2.3-1.3 4.7-2 7-.5.2-1.2.2-1.3.5-2.6 7.2-5.1 14.4-7.6 21.5-1.3 3-2.7 6-4 9-1 1.7-2 3.3-3 5-1.7 2.3-3.3 4.6-5 7v1Zm-634-22c.7.3 1.3.7 2 1 1 .7 2 1.4 3 2 1.3 1.3 2.4 3.3 4 3.8 11.5 3.9 23 7.8 34.7 11 5.2 1.4 10.8.9 16.3 1.2h2c.8.6 1.5 1.8 2.4 1.9 5.5.5 11.1.7 16.7 1.1l3.9-.9c5.1 3.9 10.6 1.9 16 1h7c1.3.7 2.5 1.8 3.8 1.9 5.7.2 11.5 0 17.2 0h48.8c1.7 0 3.5-.6 5.2-.9h239c1.7.3 3.4.9 5.2.9h32.8c3.3-1 7.4 2.2 10-2h7c3.5 1 7 2.8 10-1h6c2 1.4 3.9 2.1 5-1h2c1.4.3 2.9 1.1 4.1.8 8.8-1.8 17.6-3.8 26.3-5.9 1.7-.4 3.1-1.9 4.6-2.9h1l6-3c1-.3 2-.7 3-1 .7-.3 1.3-.7 2-1l1-1c10.5-6.8 20.1-14.5 26.7-25.3 4.9-8 8.9-16.5 13.3-24.7l4-14v-2c1.1-2.9 2.7-5.7 3.2-8.6.7-4.1.6-8.2.8-12.4v-2c3.6-2.3 2.1-5.2 1-8v-2c.7-1.3 1.3-2.7 2-4-.3-3.3-.6-6.7-.9-10v-3c.5-.3 1.6-.7 1.6-1-.1-5.7-.4-11.4-.6-17.1v-4c3.1-2 3-4 0-6v-2l2-6c0-2 .1-4 0-5.9-.3-5.4-.6-10.7-1-16v-10c.7-1.5 1.9-2.9 1.9-4.4.1-21.6 0-43.1 0-64.7l-.9-96c.3-.7.9-1.5.9-2.2V316c0-1-1.2-1.9-1.9-2.9l.9-15.9c0-6.9.1-13.8 0-20.7 0-1.5-1.2-2.9-1.9-4.3v-7c.3-4.4.7-8.7.8-13.1 0-.6-1.2-1.3-1.8-1.9l.9-6.9c0-1.9.3-3.9 0-5.8-.3-1.8-1.2-3.5-1.9-5.2v-2c1.1-2.8 2.6-5.8-1-8v-2c1.7-4.7 1.1-9-2-13v-2c1.8-3.8.7-7.1-2-10v-2c1-4.1-1-10.9-4-13-1-3.7-2-7.3-3-11l-3-6v-1c-.3-.3-.6-.7-1-1v-1c-1.7-2.7-3.3-5.3-5-8-.7-1-1.3-2-2-3s-1.3-2-2-3l-10-10c-1-.7-2-1.3-3-2l-2-2c-2-1.3-4-2.7-6-4-2.3-1.3-4.7-2.7-7-4h-1c-.3-.3-.7-.6-1-1l-3-1c-.7-.3-1.3-.7-2-1-17.8-6-35.9-9.8-54.6-11.1-14.5-1-28.9-2.5-43.4-3.8-1.3-.7-2.5-1.8-3.8-1.9-3.1-.3-6.2 0-9.3 0-3 .3-6 .6-8.9.9-1.1-.6-2.2-1.7-3.3-1.9-2.6-.3-5.2 0-7.8 0-2.6.3-5.3.6-7.9.9-5.1-3.8-10.6-1.9-16-1h-8c-.3-.5-.6-1.6-1-1.6-8.4.1-16.7.4-25.1.6h-17c-1.3-.7-2.6-1.9-3.9-1.9-11.6-.2-23.3-.1-34.9 0-1.1 0-2.1.6-3.2.9h-21c-.9-.7-2-2-2.8-1.8-4.1.8-8.7-2.3-12.2 1.8h-6c-.3-.5-.7-1.6-1-1.5-7 .1-14 .4-21 .6h-5c-27.1 0-54.1-.5-81.2.2-15.2.4-30.4 2-45.4 3.9-17.7 2.2-35.3 4.8-52.9 8.1-23.1 4.3-42.5 15.4-57.5 33.8l-1 1c-1 1.3-2 2.7-3 4-.7.7-1.3 1.4-2 2-1.3 2-2.7 4-4 6v2.9c-.3.3-.6.7-1 1v1c-1.2 1.5-3 2.7-3.5 4.4-3 9.8-5.8 19.7-8.4 29.6-.5 1.9 0 4 0 6v2c-.3 1.3-.7 2.7-1 4v2c-3.1 1.1-2.3 3-1 5v2c-3 5.7-3.7 11.7-2 18v5c-3.7 3-2 6.5-1 10v12c-3.6 2.6-2 5.9-1 9v10c-2.8 1.3-2.8 2.7 0 4v1c-3.5 3.4-2.1 7.2-1 11-.3 9.6-.8 19.2-1 28.8-.4 20.1-.7 40.1-1 60.2-.7 1.3-1.9 2.6-1.9 3.9-.1 32.1-.1 64.2 0 96.2 0 1.3 1.2 2.6 1.9 3.9v20c-.2 8-.5 16-.6 24.1 0 .3 1 .6 1.6 1v9c-.2 5.7-.4 11.4-.5 17.1 0 .3 1 .6 1.6.9-.3 4-.6 7.9-.9 11.9 0 4.4-.2 8.8 0 13.3 0 1.3 1.2 2.6 1.9 3.8v4c-1.6 4.1-1.4 5.3 1 6v4c-.5.3-1 .5-1.5.8l1.5 1.2v3c-1.3 2-2.1 3.9 1 5v10c4.3 14.7 8.6 29.3 12.9 44l3 6c.3.3.6.7 1 1l6 9c.7 1 1.3 2 2 3l10 10c1.3 1 2.7 2 4 3l1 1c1 .7 2 1.3 3 2l1 1Z" class="cls-4"/><path d="M830.8 430.2c-.3-1.4-.9-2.8-.9-4.2v-63.6c0-1.4.6-2.8.9-4.2.3 1.4 1 2.8 1 4.2v63.7c0 1.4-.6 2.8-.9 4.2Zm-277 369c1.4-.3 2.8-.9 4.2-.9h53.7c1.4 0 2.8.6 4.2 1-1.4.3-2.8.9-4.2.9H558c-1.4 0-2.8-.6-4.2-1m278-203c-.3-1.2-.9-2.4-.9-3.7v-51.7c0-1.2.6-2.4.9-3.7.3 1.4 1 2.8 1 4.2V592c0 1.4-.6 2.8-1 4.2" class="cls-4"/><path d="M456.8 37.2H404c-1.7 0-3.5-.6-5.2-.9 1.7-.3 3.4-1 5.2-1h51.9c.3.7.7 1.3 1 2Z" style="stroke-width:0;fill:#f8f4e7"/><path d="M51.8 495.2c.7 1.5 1.9 2.9 1.9 4.4.1 15.9 0 31.8 0 47.7-.6-1.6-1.8-3.3-1.9-4.9-.1-15.7 0-31.4 0-47.2m2-180c.3 1.4.9 2.8.9 4.2 0 12.5.1 24.9 0 37.4 0 1.5-1.2 2.9-1.9 4.4v-41.4c0-1.6.6-3.1 1-4.7Z" class="cls-4"/><path d="M350.8 36.2c-1 .7-1.9 1.9-2.9 1.9-13 .1-25.9 0-38.9 0-.7 0-1.5-.6-2.2-.9 1.5-.3 3.1-1 4.6-1z" class="cls-6"/><path d="M183.8 48.2c-1 .7-1.8 1.7-2.9 1.9-13.9 3-27.9 5.9-40.7 12.6-1 .5-2.3.3-3.4.4v-1c15-7 30.6-11.9 47-14Zm-123 601c1.6 6.2 3 12.4 4.8 18.5 2.3 7.9 4.8 15.8 7.2 23.7.6 1.9.7 3.9 1.1 5.8-3.2-9.2-6.7-18.2-9.6-27.5-1.9-6-2.9-12.2-4.2-18.3-.1-.6.5-1.4.7-2.2m685-583c-4.8-1.9-9.4-4-14.3-5.6-9.3-3-18.7-5.6-28-8.5-1.7-.5-3.1-1.9-4.7-2.9 16.2 3.8 32.2 8 47 16zm86 458c-.7-1.5-1.9-2.9-1.9-4.4-.1-12.2 0-24.5 0-36.7.6 1.6 1.8 3.3 1.9 4.9.2 12.1 0 24.1 0 36.2m-779-148c.3 1.4.9 2.8.9 4.2 0 10.5.1 20.9 0 31.4 0 1.5-1.2 2.9-1.9 4.4v-35.4c0-1.6.6-3.1 1-4.7Zm767-204c-.6-.6-1.6-1.1-1.9-1.9-4.3-13.2-8.5-26.4-12.7-39.7-.3-1.1-.2-2.3-.3-3.4 4 10.7 8.2 21.3 11.9 32 1.5 4.2 2 8.7 3 13m11 149c-.7-1-1.9-1.9-1.9-2.9-.1-10.6-.1-21.3 0-31.9 0-.7.6-1.5.9-2.2.3 1.6 1 3.1 1 4.7v32.4Z" class="cls-4"/><path d="M563.8 36.2c-2.4.3-4.8.9-7.2.9-7.1.1-14.3.2-21.4 0-1.5 0-2.9-1.2-4.4-1.9h28.4c1.6 0 3.1.6 4.6 1" class="cls-1"/><path d="M52.8 556.2c.7.8 1.9 1.6 1.9 2.4V586c0 .4-.5.8-.8 1.2-.3-1.5-1-3.1-1-4.6v-26.4Zm15-401c-2.1 10-4.2 20.1-6.4 30.1 0 .4-1 .6-1.6 1 2.3-10.3 4.6-20.7 7-31h1Z" class="cls-4"/><path d="M281.8 38.2c-.5.6-.9 1.8-1.4 1.8-9 .4-17.9.6-26.9.9-.2 0-.5-.4-.7-.6 1.3-.3 2.7-.7 4-1h3c7.3-.3 14.7-.7 22-1Z" class="cls-1"/><path d="M51.8 441.2c.3 4 .9 8 .9 12 0 4.7-.6 9.3-.9 14-.3-3.3-1-6.7-.9-10 0-5.3.6-10.6.9-16m633 350c8.9-2.3 17.9-4.7 26.8-6.9.6-.2 1.4.5 2.2.8-9.7 2.3-19.3 4.7-29 7.1z" class="cls-4"/><path d="M456.8 37.2c-.3-.7-.7-1.3-1-2h26c-1.4.7-2.9 1.8-4.3 1.9-6.9.2-13.8 0-20.7 0Z" class="cls-1"/><path d="M76.8 128.2c-2.7 8.2-5.4 16.5-8.1 24.7 0 .2-.6.2-.9.3 3-8.3 6-16.7 9-25m748 74c-.7-1.5-1.6-2.9-2-4.4-1.1-5.1-1.9-10.3-2.7-15.5-.2-1 .5-2.1.7-3.1 1.3 7.7 2.7 15.3 4 23m-14 505c2.5-7.2 5-14.4 7.6-21.5.1-.3.9-.3 1.3-.5-3 7.3-6 14.7-9 22Z" class="cls-4"/><path d="M588.8 37.2c-5.7.2-11.4.5-17.1.6-.3 0-.6-1-1-1.6 6 .3 12 .7 18 1Zm-351 4c-3.5 1-6.9 2.3-10.5 2.8-2.1.3-4.3-.5-6.5-.8 5.7-.7 11.3-1.3 17-2" class="cls-1"/><path d="M56.8 217.2c.2 5.3.4 10.7.6 16 0 .3-1 .6-1.6 1 .3-5.7.7-11.3 1-17m660 567c1.8-1.1 3.6-2.5 5.5-3.2 3.7-1.2 7.6-1.9 11.5-2.8-5.7 2-11.3 4-17 6m-662-176c.4.2 1.3.3 1.3.5.3 5.5.5 11 .7 16.5-.7-5.7-1.3-11.3-2-17m82-546v1c-5.3 3-10.7 6-16 9 5.3-3.3 10.7-6.6 16-10" class="cls-4"/><path d="M659.8 43.2c-5.6 1.4-11 1.1-16-2 5.3.7 10.7 1.3 16 2" class="cls-2"/><path d="M821.8 678.2c1.3-5 2.7-10 4-15-1.3 5-2.7 10-4 15" class="cls-4"/><path d="M218.8 43.2c-4.3 3.1-9 3.4-14 2 4.7-.7 9.3-1.3 14-2" class="cls-1"/><path d="m827.9 265.3.9-14.1c.3 4.3.7 8.7 1 13l-1 1h-.9ZM55.7 285.1c0 3.1.2 6.2 0 9.3-.1 1.3-1.2 2.5-1.9 3.8 0-3.1-.2-6.2 0-9.2.1-1.3 1.2-2.6 1.8-3.8Zm-1.9 306.1c3.7 4.1 2 8.6 1 13-.3-4.3-.7-8.7-1-13" class="cls-4"/><path d="M303.8 37.2c-4.1 3.8-8.6 1.9-13 .9 4.3-.3 8.7-.6 13-.9" class="cls-6"/><path d="M827.8 649.2c-1.4-4.7-1.2-9.1 2-13-.7 4.3-1.3 8.7-2 13m1-403c-3.8-3.7-1.9-7.9-1-12 .3 4 .7 8 1 12" class="cls-4"/><path d="M631.8 40.2h-13v-1c4.3.3 8.7.7 13 1" class="cls-2"/><path d="M618.8 39.2v1c-2.6 0-5.2.2-7.7 0-1.1-.1-2.2-1.2-3.3-1.9 3.7.3 7.3.6 11 1Z" class="cls-1"/><path d="M829.8 279.2c-.7-1.7-1.6-3.5-1.9-5.3-.3-1.9 0-3.9 0-5.8.6 1.9 1.5 3.8 1.9 5.8.3 1.7 0 3.5 0 5.3m-205 519.9c3.4-3.7 7.2-2 11-1-3.7.3-7.3.7-11 1" class="cls-4"/><path d="M605.8 38.2c-3.8.9-7.6 2.7-11-1 3.7.3 7.3.7 11 1" class="cls-1"/><path d="m829.9 476.2.9-11.1c1 3.8 2.7 7.7-.9 11.1m-744.1-366c-2 3.7-4 7.3-6 11 2-3.7 4-7.3 6-11" class="cls-4"/><path d="M202.8 45.2c-3.2 3.1-7 3.4-11 2 3.7-.7 7.3-1.3 11-2" class="cls-1"/><path d="M736.8 777.1c3.4-2 6.7-3.9 10.1-5.9-3.4 2-6.7 3.9-10.1 5.9m88.9-115.9c-1.8-3.8-.7-7.1 2-10-.7 3.3-1.3 6.7-2 10m-21.9-537c-2-3.3-4-6.7-6-10 2 3.3 4 6.7 6 10m-749 128c2.8 2.7 2.8 6.4 0 9z" class="cls-4"/><path d="M250.8 40.2c-3 3.7-6.5 2-10 1 1-.3 2-.7 3-1z" class="cls-1"/><path d="M824.8 213.2v-9c.3 3 .7 6 1 9z" class="cls-4"/><path d="M378.8 36.2c-2.7 3.1-5.4 3.2-8 0z" class="cls-6"/><path d="M829.8 633.2c-1-2.8-2.6-5.8 1-8-.3 2.7-.7 5.3-1 8m-772-428c1 2.8 2.6 5.8-1 8 .3-2.7.7-5.3 1-8m767 8h1c.3 2.7.6 5.3 1 8-.7-2.7-1.3-5.3-2-8m3 17c-3.3-1.9-2.2-4.4-1-7 .3 2.3.7 4.7 1 7m-768-34.1c-.6 2.4-1.3 4.7-1.9 7.1.6-2.4 1.3-4.7 1.9-7.1" class="cls-4"/><path d="M641.8 41.2c-2.6 1.2-5.1 2.3-7-1 2.3.3 4.7.7 7 1" class="cls-2"/><path d="m143.8 771.2 6 3zm-87-143c3.4 1.5 2 3.8 1 6-.3-2-.7-4-1-6m704 136c2-1.3 4-2.7 6-4-2 1.3-4 2.7-6 4" class="cls-4"/><path d="M666.8 44.2c-2 1.3-3.9 2-5-1 1.7.3 3.3.7 5 1" class="cls-2"/><path d="M650.8 797.1c1.1-3 3-2.3 5-1-1.7.3-3.3.7-5 1m-571-675.9-3 6zm-20 67v5zm613 605.9c1.1-3 3-2.3 5-1-1.7.3-3.3.7-5 1m103-706.9-4-4zm-28 684 6-3zm-105 26.9c1.1-3 3-2.3 5-1-1.7.3-3.3.7-5 1m-565-90.9c1 1.7 2 3.3 3 5-1-1.7-2-3.3-3-5m703 42c-.2-2.9 1.1-4.2 4-4zm17-635c-1-1.7-2-3.3-3-5 1 1.7 2 3.3 3 5m6 607c1-1.7 2-3.3 3-5-1 1.7-2 3.3-3 5m-52-652c-1.7-1-3.3-2-5-3 1.7 1 3.3 2 5 3m10 6c-1.7-1-3.3-2-5-3 1.7 1 3.3 2 5 3m-101 720.9c1.3-.3 2.7-.7 4-1-1.3.3-2.7.7-4 1m170-349.9v-4zm-46-350c-1-1.3-2-2.7-3-4 1 1.3 2 2.7 3 4m7 642c1-1.3 2-2.7 3-4-1 1.3-2 2.7-3 4m39-405c-2.8-1.3-2.8-2.7 0-4zm-164 461.9c1.3-.3 2.7-.7 4-1-1.3.3-2.7.7-4 1m-546-722.9c-1.3 1-2.7 2-4 3 1.3-1 2.7-2 4-3" class="cls-4"/><path d="M189.8 47.2c-1.3.3-2.7.7-4 1 1.3-.3 2.7-.7 4-1" class="cls-1"/><path d="M73.8 698.2c.7 1.3 1.3 2.7 2 4-.7-1.3-1.3-2.7-2-4m27-608-3 3z" class="cls-4"/><path d="M355.8 36.2c-.6.6-1.2 1.2-1.7 1.8-.4-.6-.8-1.2-1.3-1.8z" class="cls-6"/><path d="M820.8 177.2c-.3-1-.6-2-1-3 .3 1 .6 2 1 3m-769 309c.6.6 1.2 1.2 1.8 1.7-.6.4-1.2.8-1.8 1.3zm705-414c-1-.7-2-1.3-3-2 1 .7 2 1.3 3 2m-640 3c-1 .7-2 1.3-3 2 1-.7 2-1.3 3-2m649 3c-1-.7-2-1.3-3-2 1 .7 2 1.3 3 2m-81 713v1c-1 .3-2 .7-3 1 1-.7 2-1.3 3-2m-589-696c-.7 1-1.3 2-2 3 .7-1 1.3-2 2-3m662 671c1-.7 2-1.3 3-2-1 .7-2 1.3-3 2m-635-7c1 .7 2 1.3 3 2-1-.7-2-1.3-3-2m644 1c1-.7 2-1.3 3-2-1 .7-2 1.3-3 2m4-3c1-.7 2-1.3 3-2-1 .7-2 1.3-3 2m-678-658c-.7 1-1.3 2-2 3 .7-1 1.3-2 2-3m703 634c.7-1 1.3-2 2-3-.7 1-1.3 2-2 3m-705-631c-.7 1-1.3 2-2 3 .7-1 1.3-2 2-3m-2 3c-.7 1-1.3 2-2 3 .7-1 1.3-2 2-3m706 4c-.7-1-1.3-2-2-3 .7 1 1.3 2 2 3m-737 527 .9 3zm54-557-2 2zm26 689c.7.3 1.3.7 2 1-.7-.3-1.3-.7-2-1m652-666c-.7-.7-1.3-1.4-2-2 .7.7 1.3 1.4 2 2m42 429v-2z" class="cls-4"/><path d="M259.8 39.2h-3zm-13 1h-3z" style="stroke-width:0;fill:#ebe7d9"/><path d="M769.8 81.2c-.7-.6-1.3-1.3-2-1.9.7.7 1.3 1.3 2 1.9m-660 0-2 2zm-2 2c-.7.3-1.3.7-2 1 .7-.3 1.3-.7 2-1m680 17c-.3-.7-.7-1.3-1-2 .3.7.7 1.3 1 2m-720 55h-1v-1c.3.3.6.7 1 1m737-29-1-1zm-6 603v-1zm-7-625c-.3-.3-.6-.7-1-1 .3.3.6.7 1 1m-1-1-1-1zm-674 652c.3.3.7.6 1 1-.3-.3-.7-.6-1-1m653 3 1-1zm17-660-1-1zm42 167 1-1zm-114 520c.3-.3.7-.6 1-1-.3.3-.7.6-1 1m-601-708-1 1zm632-11v-1l1 1zm-630 322v104c-.7-1.3-1.9-2.6-1.9-3.9-.1-32.1-.1-64.2 0-96.2 0-1.3 1.2-2.6 1.9-3.9m649 126v-49.1c0-1.6 1.2-3.3 1.8-4.9v64.7c0 1.5-1.2 2.9-1.9 4.4v-15Zm-595 196c12.5 6.9 26.1 10.8 40.1 13.5 4.9 1 9.9 1.7 14.9 2.5-5.4-.3-11.1.2-16.3-1.2-11.7-3.1-23.2-7.1-34.7-11-1.6-.5-2.7-2.5-4-3.8m596-346c-.3-1.6-1-3.1-1-4.7v-46.4c.6 1 1.9 1.9 1.9 2.9.1 15.3 0 30.6 0 45.9 0 .7-.6 1.5-.9 2.2Zm-466 365h43.3c1.6 0 3.1.6 4.7 1-1.7.3-3.5.9-5.2.9h-35.8c-2.3-.7-4.7-1.3-7-2Zm196-627h-37.4c-1.6 0-3.1-.6-4.6-1 1.1-.3 2.1-.9 3.2-.9 11.6 0 23.3-.1 34.9 0 1.3 0 2.6 1.2 3.9 1.9m91 628c1.6-.3 3.1-.9 4.7-1h33.3v2H592c-1.7 0-3.4-.6-5.2-.9Zm-450-566c-4 13.3-8 26.7-12 40 0-2-.4-4.1 0-6 2.6-9.9 5.4-19.8 8.4-29.6.5-1.7 2.3-2.9 3.5-4.4Zm528 563c7.8-1.7 15.7-3.3 23.5-5 3.9-.9 7.7-2 11.5-3-1.5 1-2.9 2.5-4.6 2.9-8.7 2.2-17.5 4.1-26.3 5.9-1.3.3-2.7-.5-4.1-.8m-126-624h-21.4c-1.6 0-3.1-.6-4.7-1 8.4-.2 16.7-.5 25.1-.6.3 0 .6 1 1 1.6m-423 409c.3 4.2.8 8.4 1 12.6.2 4.1 0 8.3 0 12.4-.5-.3-1.6-.6-1.6-1 .1-8 .4-16 .6-24.1Zm649.9-215c-.6-1.5-1.8-2.9-1.8-4.4-.2-6.9 0-13.8 0-20.7.7 1.4 1.8 2.9 1.9 4.3.2 6.9 0 13.8 0 20.7ZM411.8 101.1h-17.9c-1.4 0-2.8-.6-4.2-1 7-.2 14-.5 21-.6.3 0 .7 1 1 1.5Zm352 459.1v-16.4c0-1.6.6-3.1 1-4.6.3 5.3.7 10.7 1 16 .1 2 0 4 0 5.9-.7-.3-1.3-.7-2-1Zm-491 169c5.7 0 11.5-.1 17.2 0 1.3 0 2.6 1.2 3.9 1.8-5.7 0-11.5.2-17.2 0-1.3 0-2.6-1.2-3.8-1.9Zm484-82c1.3-7 2.7-14 4-21-.2 4.1-.1 8.3-.8 12.4-.5 3-2.1 5.8-3.2 8.6m-530 79c5.6.3 11.1.6 16.7 1.1.9 0 1.6 1.2 2.4 1.9-5.6-.3-11.1-.6-16.7-1.1-.8 0-1.6-1.2-2.4-1.9m-110.1-180c.3 6 .7 12 1 18-.5-.3-1.6-.6-1.6-.9.1-5.7.3-11.4.5-17.1Zm646.1 51c.3-6 .7-12 1-18 .2 5.7.5 11.4.6 17.1 0 .3-1 .6-1.6 1Zm-640-378c-.7 6-1.3 12-2 18-1.7-6.3-1-12.3 2-18m-5.9 356.9c.6 1.3 1.8 2.6 1.8 3.9.2 4.4 0 8.8 0 13.2-.7-1.3-1.8-2.5-1.9-3.8-.2-4.4 0-8.8 0-13.3Zm132.9 152.1c5.3.3 10.7.7 16 1-5.4.9-10.9 2.9-16-1m313-624.1c-5.3-.3-10.7-.6-16-1 5.4-1 10.9-2.9 16 1m201 161.1c-.3-5-.7-10-1-15 .6.6 1.8 1.3 1.8 1.9-.1 4.4-.5 8.7-.8 13.1m-331-164.1h-15c3.5-4.1 8.2-1.1 12.2-1.8.8-.1 1.9 1.2 2.8 1.8m320 562c1.3-4.7 2.7-9.3 4-14-1.3 4.7-2.7 9.3-4 14m-149-556.9c-3.1 0-6.2.2-9.2 0-1.3-.1-2.5-1.2-3.8-1.9 3.1 0 6.2-.2 9.3 0 1.3.1 2.5 1.2 3.8 1.9Zm157 114c-.7-4.3-1.3-8.7-2-13 3.1 4 3.7 8.3 2 13m-4-27c-1.3-4.3-2.7-8.7-4-13 2.9 2.1 5 8.9 4 13m7 50c-.7-1.9-1.5-3.8-1.9-5.7-.3-1.7 0-3.5 0-5.3.7 1.7 1.6 3.4 1.9 5.2.3 1.9 0 3.9 0 5.8m-182-138.1c-2.6 0-5.2.2-7.7 0-1.2-.1-2.2-1.2-3.3-1.8 2.6 0 5.2-.2 7.8 0 1.2.1 2.2 1.2 3.3 1.9Zm-463 183.1c-.3 3.7-.7 7.3-1 11-1.1-3.8-2.5-7.6 1-11m2-46c-.3 3.3-.7 6.7-1 10-1-3.5-2.8-7 1-10m521 487c3.3-.3 6.7-.7 10-1-3 3.7-6.5 2-10 1m-17 2v-2h10c-2.6 4.2-6.7.9-10 2m134-526c-.7-3.3-1.3-6.7-2-10 2.7 2.9 3.8 6.2 2 10m-639 59c-.3 3-.7 6-1 9-1-3.1-2.6-6.4 1-9m180 465c2.3.7 4.7 1.3 7 2h-11.1c1.4-.6 2.7-1.3 4.1-1.9Zm462-499c-.3-2.7-.7-5.3-1-8 3.6 2.3 2.1 5.2 1 8m-1 394c.3-2.7.7-5.3 1-8 1.1 2.8 2.6 5.8-1 8m-15-464c-1.7-2.7-3.3-5.3-5-8 1.7 2.7 3.3 5.3 5 8m16 445c.3-1.7.7-3.3 1-5 .3 3.3.6 6.7.9 10-.7-1.7-1.3-3.3-2-5Zm-643-8c.3 2 .7 4 1 6-2.4-.7-2.6-2-1-6" class="cls-4"/><path d="M763.8 560.2c.7.3 1.3.7 2 1-.7 2-1.3 4-2 6zm-2 45c.7 1.7 1.3 3.3 2 5-.7 1.3-1.3 2.7-2 4zm-46-477c-2.3-1.3-4.7-2.7-7-4 2.3 1.3 4.7 2.7 7 4m-595 492v7zm21-467c-1.3 2-2.7 4-4 6 1.3-2 2.7-4 4-6m-8 518 3 6zm630-96v-6c3 2 3.1 4 0 6m-42-443c-2-1.3-4-2.7-6-4 2 1.3 4 2.7 6 4m28 37-3-6zm-626 43c-.3 1.7-.7 3.3-1 5-1.3-2-2-3.9 1-5m534 516c1.7-.3 3.3-.7 5-1-1.1 3.1-3 2.4-5 1m-538-116c.3 1.7.7 3.3 1 5-3-1.1-2.3-3-1-5m581 107 6-3zm-554-572-3 4zm-22 59c-.3 1.3-.7 2.7-1 4 .3-1.3.7-2.7 1-4m31 494c1.3 1 2.7 2 4 3-1.3-1-2.7-2-4-3m-37-417v4c-2.8-1.3-2.8-2.7 0-4m608-147c-1-.7-2-1.3-3-2 1 .7 2 1.3 3 2m12 13c-.7-1-1.3-2-2-3 .7 1 1.3 2 2 3m2 3c-.7-1-1.3-2-2-3 .7 1 1.3 2 2 3m-580 552c1 .7 2 1.3 3 2-1-.7-2-1.3-3-2m-17-17c.7 1 1.3 2 2 3-.7-1-1.3-2-2-3m-24-80v2l-1.5-1.2c.5-.3 1-.5 1.5-.8m276 123h2zm308-608.1c-.7-.3-1.3-.7-2-1 .7.3 1.3.7 2 1m6 593.1c.7-.3 1.3-.7 2-1-.7.3-1.3.7-2 1m-545-8c.7.3 1.3.7 2 1-.7-.3-1.3-.7-2-1m-21-556c-.7.7-1.3 1.4-2 2 .7-.7 1.3-1.4 2-2m568 563 1-1zm-548-8 1 1zm-16-560-1 1zm560-22.1c-.3-.3-.7-.6-1-1 .3.3.7.6 1 1m39 38.1c-.3-.3-.6-.7-1-1 .3.3.6.7 1 1m-609 0c-.3.3-.6.7-1 1 .3-.3.6-.7 1-1m-1 515c.3.3.6.7 1 1-.3-.3-.6-.7-1-1m135-385 1-1c.7-1 1.3-2 2-3l1-1c1-1.3 2-2.7 3-4l3-3c1-1.3 2-2.7 3-4 2.7-2.3 5.3-4.7 8-7 1.3-1.7 2.7-3.3 4-5l2-2 1-1 1-1 1-1 1-1 1-1c1-.7 2-1.3 3-2l3-3c1-.7 2-1.3 3-2l1-1 1-1c1-.7 2-1.3 3-2s2-1.3 3-2l1-1c1-.7 2-1.3 3-2 2-1.3 4-2.7 6-4 1-.7 2-1.3 3-2 1.7-1 3.3-2 5-3 1.3-.7 2.7-1.3 4-2 .7-.3 1.3-.7 2-1l1-1h1c.3-.3.7-.6 1-1h1c1.3-.7 2.7-1.3 4-2 .7-.3 1.3-.7 2-1 5.7-2 11.3-4 17-6 1.3-.7 2.7-1.3 4-2 3-.7 6-1.4 9-2 4.3-1.3 8.7-2.6 13-3.9h2c1.3-.3 2.7-.7 4-1h2c2 1.3 3.9 2 5-1h2c2.8 1 5.8 2.6 8-1h3c.9.3 1.8.9 2.7.9h33.6c.9 0 1.8-.6 2.7-.9h3c1.3.7 2.5 1.6 3.8 1.9 2.4.6 4.8.7 7.2 1.1 1.3-.3 2.7-.6 4-.9h2c1.3.3 2.7.6 4 1h3c1.6.9 3.1 2.1 4.7 2.7 11 3.5 22 6.9 33 10.3l9.3 3h1c4.7 2.7 9.3 5.3 14 8 1 .7 2 1.3 3 2s2 1.3 3 2c1.7 1 3.3 2 5 3 1.3 1 2.7 2 4 3 1 .7 2 1.3 3 2 8.7 7.7 17.3 15.3 26 23 .3.7.7 1.3 1 2l1 1 3 3c3.3 4 6.7 8 10 12 .7 1 1.3 2 2 3l1 1c.7 1.3 1.3 2.7 2 4l2 2c1.3 2 2.7 4 4 6 .7 1 1.3 2 2 3 .3.7.7 1.3 1 2 .7 1 1.3 2 2 3 .3.7.7 1.3 1 2 .6 1.9 1 3.8 1.8 5.6 3.2 6.9 6.4 13.8 9.8 20.7 1.3 2.7 2.9 5.2 4.3 7.8v2c0 .1-.2.3-.2.4 0-.1.2-.3.2-.4.3.7.7 1.3 1 2 1.7 7.3 3.4 14.7 5.1 22v1.9c.3.4.7.7 1 1.1v2.9c.6 1 1.3 2.1 1.9 3.1v5c-1.1 2.2-2.4 4.5 1 6v2c-1.3 2.6-2.3 5.1 1 7v20c-3.6 2.6-2 5.9-1 9v4c-.3 1.3-.7 2.7-1 4v2c-2.9 2.9-3.2 6.3-2 10v2c-.6.3-1.5.5-1.6 1-1.8 6.7-3.6 13.4-5.3 20.1-3 8.3-6 16.7-9 25v1c-1 1.7-2 3.4-2.9 5v1c-1.3 2.3-2.7 4.7-4 7v1l-1 1c-1 1.7-2 3.3-3 5v1c-.3.3-.6.7-1 1v1c-3.7.9-4.8 3.6-5 7-3.7 4.7-7.3 9.3-11 14-.7 1.3-1.3 2.7-2 4l-1 1c-1.3 1.7-2.7 3.3-4 5l-9 9-4 4-2 2c-9.9 11.4-22.4 19.7-35.1 27.5-22.5 13.8-47 22.2-73 26.3-17.9 2.8-35.9 2.8-54 1.4-31-2.3-59.9-11.3-86.8-26.4-10.6-5.9-20.1-13.8-30.1-20.8-1-.7-2-1.3-3-2-14-11.1-25.9-24.2-36-39-.3-.3-.6-.7-1-1-1-1.7-2-3.3-3-5-.7-1-1.3-2-2-3-1.3-2.3-2.7-4.7-4-7-1.7-3-3.3-6-5-9-.3-.3-.6-.7-1-1v-1c-.7-1.3-1.3-2.7-2-4l-3-6c-.7-1.3-1.3-2.7-2-4v-1c-.3-.3-.6-.7-1-1-.3-1-.7-2-1-3-.7-1.7-1.3-3.3-2-5-.3-1-.7-2-1-3-.7-1.7-1.3-3.3-2-5-.3-.7-.7-1.3-1-2 .3-.7.6-1.3 1-2l-3-6v-2c-1-3.7-2-7.3-3-11v-2c-.7-6.7-1.4-13.3-2.1-20v-27.9c.4-5 .7-10 1.1-15v-2c.5-.3 1.5-.5 1.6-.9 1.2-5.7 2.3-11.4 3.4-17.1 1-2.6 2.1-5.2 2.8-7.9.9-3.3 1.5-6.7 2.2-10.1 3.7-8.3 7.3-16.7 11-25l3-6v-1l1-1c.3-.7.7-1.3 1-2 .7-1 1.3-2 2-3 .3-.7.7-1.3 1-2 .7-1 1.3-2 2-3s1.3-2 2-3c1-1.7 2-3.3 3-5l1-1c.7-1 1.3-2 2-3l1-1c.7-1 1.3-2 2-3Zm314 72c0-.1.2-.3.2-.4 0 .1-.2.3-.2.4h-1c-3.7-12.4-8.4-24.4-16-35-.7-1-1.3-2-2-3-1-1.3-2-2.7-3-4l-2-3-2-2c-.7-1-1.3-2-2-3l-14-14-2-2c-.7-.3-1.3-.7-2-1-.3-.7-.7-1.3-1-2-1-.3-2-.7-3-1l-1-1-3-2-1-1c-.7-.3-1.3-.7-2-1-2.3-1.3-4.7-2.7-7-4-1-.7-2-1.3-3-2h-1c-2.7-1.3-5.3-2.7-8-4-1-.3-2-.7-3-1-2.4-3.8-6-4.4-10-4h-2c-1.1-.8-2-2.2-3.2-2.4-5.7-1.3-11.5-2.6-17.3-3.4-3.1-.5-6.3 0-9.4 0-4.8 0-9.7.1-14.5 0-19.8-.7-39 2.4-57.6 9-8.5 3.1-16.6 7.3-25 11l-3 2c-.7.3-1.3.7-2 1-1 .7-2 1.3-3 2l-1 1c-1 .7-2 1.3-3 2-.7.3-1.3.7-2 1l-2 2c-2 1.7-4 3.3-6 5l-14 14-2 2-3 4-2 3-2 2c-.7 1-1.3 2-2 3-11.4 16.6-19.8 34.6-25 54-3.5 4.5-4.1 9.6-3 15v3c-2.9 2.8-2.9 19.2 0 22v5c-1.1 2.2-2.4 4.5 1 6v2c.3 1 .7 2 1 3 6.6 31.1 21.8 57.5 44 80 1.7 1.3 3.3 2.7 5 4l1 1 2 2c1.3 1 2.7 2 4 3l1 1c1 .7 2 1.3 3 2s2 1.3 3 2 2 1.3 3 2 2 1.3 3 2h1c.6 2.7 2 4.2 5 3 1.3.7 2.7 1.3 4 2s2.7 1.3 4 2c1 .3 2 .7 3 1 .6.7 1.1 1.7 1.8 1.9 5.5 1.9 11.1 3.6 16.7 5.3 1 .3 2.3-.2 3.5-.3h2c1.3.3 2.7.7 4 1h2c1.3.3 2.7.7 4 1h3c.6.6 1.2 1.7 1.9 1.8 3.7.5 7.4.8 11.2 1.1h20.8c-1.9-1-2.8-1.5-3.8-2 13.9 0 27.3-2.7 40.5-6.7 13.5-4.1 25.6-11 37.5-18.3 1-.7 2-1.3 3-2 7.3-6.7 14.7-13.3 22-20 1-1.3 2-2.7 3-4l1-1 1-1 1-1c.7-1 1.3-2 2-3 2.7-3.7 5.3-7.3 8-11 .7-1 1.3-2 2-3 .7-.7 1.3-1.4 2-2 1.3-3 2.7-6 4-9l4-8c3.7-12.3 7.3-24.7 11-37 3.1-1.1 2.3-3 1-5v-2c3.8-3.7 2-7.9 1-12v-4c.6-.6 1.8-1.3 1.8-1.9-.2-4.6-.6-9.2-1-13.8 0-.5-1.2-.9-1.8-1.4v-2c0-3.4.5-6.8-.2-10-1.1-4.8-3.1-9.3-4.8-14v-2Zm35-179c1.7-2 3.3-4 5-6l3-3 2-2c1-.7 2-1.3 3-2 3.7-1.7 7.3-3.3 11-5 5.3-.3 10.7-.7 16-1h2l15 6c1 .7 2 1.3 3 2s2 1.3 3 2l1 1c6.4 4.8 10.1 11.3 12 19 .3 6 .7 12 1 18v2c-1.3 3.3-2.6 6.7-4 10v1c-.3.3-.6.7-1 1-.7 1-1.3 2-2 3s-1.3 2-2 3c-8.1 9.6-17.9 15-31 15.2-12.9.2-24-3-32.7-12.6-3-3.3-4.9-7.7-7.3-11.6-.7-1.7-1.3-3.3-2-5v-1c-.3-.3-.6-.7-1-1v-2c1.3-2 2-3.9-1-5v-6l3-12c.7-1.7 1.4-3.3 2-5 .7-1 1.3-2 2-3" class="cls-4"/><path d="m536.8 226.2-9.3-3c-11-3.4-22-6.8-33-10.3-1.7-.5-3.2-1.8-4.7-2.7 16.3 3.4 32.4 7.5 47 16m-74-19c-.9.3-1.8.9-2.7.9h-33.6c-.9 0-1.8-.6-2.7-.9.4-.3.8-.8 1.2-.8h36.6c.4 0 .8.5 1.2.8m181 140c-1.5-2.6-3-5.1-4.3-7.8-3.3-6.9-6.6-13.7-9.8-20.7-.8-1.8-1.2-3.7-1.8-5.6 4.3 8.5 8.8 17 13 25.6 1.3 2.7 2 5.6 3 8.4Zm-415 57v25c-.6-.6-1.8-1.3-1.8-1.9q.3-11.55.9-23.1h1Zm406 95c3-8.3 6-16.7 9-25h1c-3.3 8.3-6.7 16.7-10 25m15.1-126c-1.7-7.3-3.4-14.7-5.1-22 2 6.8 4 13.5 5.9 20.3.1.4-.5 1.1-.8 1.7m-421.2 59c.7 6.7 1.4 13.3 2.1 20-1.8-6.5-4.1-13.1-2.1-20m416.1 42h-1c1.8-6.7 3.5-13.4 5.3-20.1.1-.4 1-.6 1.6-1-2 7-4 14-5.9 21Zm53-260c-.3-6-.7-12-1-18 2.3 5.9 3 11.9 1 18m-463 155c-1.1 5.7-2.2 11.4-3.4 17.1 0 .4-1 .6-1.6.9 1.3-6 2.6-12 4-18zm0 0h-1l6-18c-.7 3.4-1.3 6.8-2.2 10.1-.7 2.7-1.9 5.3-2.8 7.9m137-151c-5.7 2-11.3 4-17 6 5.3-2.3 10.7-4.6 16-7zm-143 186h-1c.7-5 1.4-10 2-15-.4 5-.7 10-1.1 15Zm432-238c-5.3.3-10.7.7-16 1 5.2-1.9 10.5-3.2 16-1m-109 68c-4.7-2.7-9.3-5.3-14-8 4.7 2.7 9.3 5.3 14 8m126-62-15-6zm-280 38c-4.3 1.3-8.7 2.6-13 3.9 4.3-1.3 8.7-2.6 13-3.9m79 0c-2.4-.3-4.8-.5-7.2-1.1-1.3-.3-2.5-1.3-3.8-1.9 4.3.3 8.7.7 13 1zm140-17-3 12zm28-26c-3.7 1.7-7.3 3.3-11 5 3.7-1.7 7.3-3.3 11-5m-414 287c1 3.7 2 7.3 3 11-1-3.7-2-7.3-3-11m419.9-3c-1.1-3.7-.9-7.1 2-10-.7 3.3-1.3 6.7-2 10m3.1-20c-1-3.1-2.6-6.4 1-9-.3 3-.7 6-1 9m40-205c1.3-3.3 2.6-6.7 4-10-1.3 3.3-2.6 6.7-4 10m-442 285c1.7 3 3.3 6 5 9-1.7-3-3.3-6-5-9m169-304c-2.3 3.6-5.2 2-8 1 2.7-.3 5.3-.7 8-1m197 323c.2-3.4 1.2-6.2 5-7-1.7 2.3-3.3 4.7-5 7m37-128c-3.3-1.9-2.2-4.4-1-7 .3 2.3.7 4.7 1 7m-27 111c1.3-2.3 2.7-4.7 4-7-1.3 2.3-2.7 4.7-4 7m26-120c-3.4-1.5-2.1-3.8-1-6 .3 2 .7 4 1 6m-420 74 3 6h-1c-.7-2-1.3-4-2-6m63-203c-1.3 1.7-2.7 3.3-4 5 1.3-1.7 2.7-3.3 4-5m303 290c1.3-1.7 2.7-3.3 4-5-1.3 1.7-2.7 3.3-4 5m14-343c3 1.1 2.3 3 1 5-.3-1.7-.7-3.3-1-5m-27 356 4-4zm29-347c.7 1.7 1.3 3.3 2 5-.7-1.7-1.3-3.3-2-5m-362 100-3 6zm157-112c-1.1 3-3 2.3-5 1 1.7-.3 3.3-.7 5-1m213 312c1-1.7 2-3.3 3-5-1 1.7-2 3.3-3 5m-285-288c-1.7 1-3.3 2-5 3 1.7-1 3.3-2 5-3m-102 245c.7 1.7 1.3 3.3 2 5-.7-1.7-1.3-3.3-2-5m3 8c.7 1.7 1.3 3.3 2 5-.7-1.7-1.3-3.3-2-5m392 20c1-1.7 2-3.4 2.9-5-1 1.7-2 3.4-2.9 5m-65-261c-1.3-1-2.7-2-4-3 1.3 1 2.7 2 4 3m-323 251c.7 1.3 1.3 2.7 2 4-.7-1.3-1.3-2.7-2-4m160-286c-1.3.3-2.7.7-4 1 1.3-.3 2.7-.7 4-1m249 230c.3-1.3.7-2.7 1-4-.3 1.3-.7 2.7-1 4m-166-229c-1.3-.3-2.7-.6-4-1 1.3.3 2.7.6 4 1m-208 73c-1 1.3-2 2.7-3 4 1-1.3 2-2.7 3-4m6-7c-1 1.3-2 2.7-3 4 1-1.3 2-2.7 3-4m316-1-3-3zm-225-59c-1.3.7-2.7 1.3-4 2v-1c1.3-.3 2.7-.7 4-1m253-40-3 3zm-13 119c-.7-1.3-1.3-2.7-2-4 1 1.3 2 2.7 3 4zm149 219v7zm-112.1-132c-.6-1-1.3-2.1-1.9-3.1.6 1 1.3 2.1 1.9 3.1m-309.9-152c-1.3.7-2.7 1.3-4 2 1.3-.7 2.7-1.3 4-2m-94 275c.7 1.3 1.3 2.7 2 4-.7-1.3-1.3-2.7-2-4m104-280c-1.3.7-2.7 1.3-4 2 1.3-.7 2.7-1.3 4-2" class="cls-4"/><path d="m476.8 210.2 2-2c.7.3 1.3.7 2 1-1.3.3-2.7.6-4 .9Zm128 338c.7-1.3 1.3-2.7 2-4-.7 1.3-1.3 2.7-2 4m19-242c-.7-1-1.3-2-2-3 .7 1 1.3 2 2 3m-66-68c-1-.7-2-1.3-3-2 1 .7 2 1.3 3 2m-300 75c-.7 1-1.3 2-2 3 .7-1 1.3-2 2-3m369-2c-.7-1-1.3-2-2-3 .7 1 1.3 2 2 3m-366-3c-.7 1-1.3 2-2 3 .7-1 1.3-2 2-3m2-3c-.7 1-1.3 2-2 3 .7-1 1.3-2 2-3m-2 222c.7 1 1.3 2 2 3-.7-1-1.3-2-2-3m373-355c-1 .7-2 1.3-3 2 1-.7 2-1.3 3-2m50 4c-1-.7-2-1.3-3-2 1 .7 2 1.3 3 2m-63 9c-.7 1-1.3 2-2 3 .7-1 1.3-2 2-3m-349 107c-.7 1-1.3 2-2 3 .7-1 1.3-2 2-3m3-4c-.7 1-1.3 2-2 3 .7-1 1.3-2 2-3m338 2c-.7-1-1.3-2-2-3 .7 1 1.3 2 2 3m76-56c.7-1 1.3-2 2-3-.7 1-1.3 2-2 3m-134 2c-1-.7-2-1.3-3-2 1 .7 2 1.3 3 2m-221-1c-1 .7-2 1.3-3 2 1-.7 2-1.3 3-2m-65 61c-.7 1-1.3 2-2 3 .7-1 1.3-2 2-3m56-55c-1 .7-2 1.3-3 2 1-.7 2-1.3 3-2m-4 3c-1 .7-2 1.3-3 2 1-.7 2-1.3 3-2m249 2c-1-.7-2-1.3-3-2 1 .7 2 1.3 3 2m-267 329c1 .7 2 1.3 3 2zm10-325c-1 .7-2 1.3-3 2 1-.7 2-1.3 3-2m-6 5c-1 .7-2 1.3-3 2 1-.7 2-1.3 3-2m278 314 2-2zm31-274h1c.3.7.6 1.3 1 2zm-380 178h1c-.3.7-.6 1.3-1 2zm361-202c-.3-.7-.7-1.3-1-2 .3.7.7 1.3 1 2m54.1 105c-.3-.4-.7-.7-1-1.1.3.4.7.7 1 1.1m-385.1 159c.3.3.6.7 1 1-.3-.3-.6-.7-1-1m357-13c.3-.3.6-.7 1-1-.3.3-.6.7-1 1m-356-223-1 1zm360 216 1-1zm58-338-1-1zm-313 40v1l-1-1zm-121 293c.3.3.6.7 1 1-.3-.3-.6-.7-1-1m364-292c.3.3.6.7 1 1-.3-.3-.6-.7-1-1m-360 100-1 1zm93-91c-.3.3-.7.6-1 1 .3-.3.7-.6 1-1m345 1c.3-.3.6-.7 1-1-.3.3-.6.7-1 1m-450 265c.3.3.6.7 1 1-.3-.3-.6-.7-1-1m103-265-1 1zm-46 33-1 1zm2-2-1 1zm1-1-1 1zm12-10-1 1zm-11 9-1 1zm191 16.9c-9.5-1.7-18.9-3.3-28.4-5-.6-.1-1.1-.6-1.7-.9 3.2 0 6.4-.4 9.4 0 5.8.9 11.6 2.1 17.3 3.4 1.2.3 2.2 1.6 3.2 2.4Zm96 116.1c-1.7-8-3.3-16-5-24 1.6 4.6 3.7 9.2 4.8 14 .7 3.2.2 6.7.2 10m-298 14v22c-2.9-2.8-2.9-19.2 0-22m88 145c7.3 2.3 14.7 4.6 22 6.9-1.2.1-2.4.6-3.5.3-5.6-1.6-11.2-3.4-16.7-5.3-.7-.2-1.2-1.3-1.8-1.9m54 10h13c.9.5 1.9 1 3.8 2h-20.8c1.3-.7 2.7-1.3 4-2m157-150c-.3-5.7-.7-11.4-1-17 .6.5 1.7.9 1.8 1.4.5 4.6.9 9.2 1 13.8 0 .6-1.2 1.2-1.8 1.9Z" class="cls-4"/><path d="M434.8 559.2c-1.3.7-2.7 1.3-4 2-3.7-.4-7.5-.6-11.2-1.1-.7 0-1.2-1.2-1.9-1.8 5.7.3 11.3.7 17 1Zm-139-173-3 15c-1.1-5.4-.5-10.5 3-15m295 39c.3-4 .7-8 1-12 1 4.1 2.8 8.3-1 12m-84-147.1c-3.3-1.3-6.7-2.7-10-4 4-.4 7.7.2 10 4m68 199.1c1.3-2.7 2.7-5.3 4-8-1.3 2.7-2.7 5.3-4 8m-223-178c-2 1.7-4 3.3-6 5 2-1.7 4-3.3 6-5m166-16.1c-2.7-1.3-5.3-2.7-8-4 2.7 1.3 5.3 2.7 8 4m-225 148.1c.3 2 .7 4 1 6-3.4-1.5-2.1-3.8-1-6m46 91c1.7 1.3 3.3 2.7 5 4-1.7-1.3-3.3-2.7-5-4m251-90c.3-1.7.7-3.3 1-5 1.3 2 2.1 3.9-1 5m-225 109c1.7 1 3.3 2 5 3-3 1.2-4.4-.3-5-3m9 5 4 2c-1.3-.7-2.7-1.3-4-2m31 10c1.3.3 2.7.7 4 1-1.3-.3-2.7-.7-4-1m146-44c1-1.3 2-2.7 3-4-1 1.3-2 2.7-3 4m-140 45c1.3.3 2.7.7 4 1-1.3-.3-2.7-.7-4-1m-64-28c1.3 1 2.7 2 4 3-1.3-1-2.7-2-4-3m-53-90c.3 1 .7 2 1 3-.3-1-.7-2-1-3m29-110c-.7 1-1.3 2-2 3 .7-1 1.3-2 2-3m246 0c-.7-1-1.3-2-2-3 .7 1 1.3 2 2 3m-242-5c-.7 1-1.3 2-2 3 .7-1 1.3-2 2-3m237-2c-.7-1-1.3-2-2-3 .7 1 1.3 2 2 3m3 169c.7-1 1.3-2 2-3-.7 1-1.3 2-2 3m-7-174c-.7-1-1.3-2-2-3 .7 1 1.3 2 2 3m-3 188c.7-1 1.3-2 2-3-.7 1-1.3 2-2 3m-31 29c1-.7 2-1.3 3-2-1 .7-2 1.3-3 2m-174-1c1 .7 2 1.3 3 2-1-.7-2-1.3-3-2m6 4c1 .7 2 1.3 3 2-1-.7-2-1.3-3-2m3 2c1 .7 2 1.3 3 2-1-.7-2-1.3-3-2m178-243c-1-.7-2-1.3-3-2 1 .3 2 .7 3 1zm-180-2c-1 .7-2 1.3-3 2 1-.7 2-1.3 3-2m176-1c-1-.7-2-1.3-3-2 1 .7 2 1.3 3 2m-172-2c-1 .7-2 1.3-3 2 1-.7 2-1.3 3-2m5-3c-1 .7-2 1.3-3 2 1-.7 2-1.3 3-2m154-3c-1-.7-2-1.3-3-2 1 .7 2 1.3 3 2m47 203c.7-.7 1.3-1.4 2-2-.7.7-1.3 1.4-2 2m-237-170-2 2zm212-18-2-2zm-13-10c-.7-.3-1.3-.7-2-1 .7.3 1.3.7 2 1m8 6v-1c.3.7.7 1.3 1 2zm3 2c-.7-.3-1.3-.7-2-1 .7.3 1.3.7 2 1m-186-2c-.7.3-1.3.7-2 1 .7-.3 1.3-.7 2-1m-12 230 1 1zm211-19 1-1zm1-1 1-1zm88-157c0 .1-.2.3-.2.4 0-.1.2-.3.2-.4m-58 15c0-.1.2-.3.2-.4 0 .1-.2.3-.2.4m0 1-1-1h1z" class="cls-4"/></svg>