<svg xmlns="http://www.w3.org/2000/svg" id="Layer_1" data-name="Layer 1" version="1.1" viewBox="0 0 2424.69 893.35"><defs><clipPath id="clippath"><path d="M29.17 130.95h2376.68v570.02H29.17z" style="fill:none;stroke-width:0"/></clipPath><style>.cls-3{stroke-width:0;fill:#e96430}</style></defs><g style="clip-path:url(#clippath)"><g id="Group_3" data-name="Group 3"><path id="Path_3" d="M83.91 163.13C39.39 282.79 21.96 403.91 31.87 524.71c3.06 37.25 8.92 74.94 38.32 110.48 13.88 16.77 34.4 33.65 71.29 44.17 30.08 8.58 67.93 12.04 104.96 14.39 91.19 5.78 184.08 6.02 276.51 6.19 216.97.4 433.95.61 650.92.62 274.01.13 548.03.27 822.04.41 74.73.04 154.76-.53 216.03-16.87 45.5-12.14 74.16-31.43 96.25-50.88 53.26-46.89 76.77-97.95 88.54-148.87 24.68-106.78-.89-215.23-75.11-318.61-3.02-4.21-6.36-8.58-14.04-11.81-13.39-5.65-35.65-6.26-55.58-6.48L989.53 133.27c-166.91-1.87-334.02-3.75-500.81-.72-127.61 2.32-255.29 7.51-382.85 4.74-16.77-.37-35.03-.72-48.76 2.97s-16.83 13.19-1.58 15.88c7.29 1.28 16.23.62 23.36 2.03s7.05 6.9-.87 6.4" class="cls-3" data-name="Path 3"/></g><path d="M-82.58 138.52h515.93v558.74H-82.58zm1991.34 7.95h515.93v565.66h-515.93z" class="cls-3"/></g></svg>