<svg xmlns="http://www.w3.org/2000/svg" data-name="Layer 1" viewBox="0 0 981.1 1014.93"><defs><clipPath id="a"><path d="M133.05 87.86h721.84v779.73H133.05z" style="fill:none;stroke-width:0"/></clipPath></defs><g data-name="Group 8" style="clip-path:url(#a)"><path d="M151.53 145.33c3.26 231.69-2.9 463.29-18.48 694.81 70.76 25.04 151.28 16.17 228.28 15.54 128.54-1.06 257.75 22.13 384.89 6.44 25.52-3.15 53.81-9.65 66.19-28.3 7.68-11.57 7.47-25.46 7.06-38.65-1.16-37.57-2.31-75.14-3.47-112.71-.32-10.5-.66-21.11-3.83-31.28-2.65-8.51-9.26-26.67-11.76-35.21-3.7-12.65-.67-15.74.43-28.72a3374 3374 0 0 1 21.21-187.67c8.25-91.21 49.38-208.35 25.47-297.67-212.61-12.13-425.01 1.42-637.39-13.16-21.39-1.47-44.91-2.49-62.14 8.05l1.13 43.18" data-name="Path 5" style="stroke-width:0;fill:#e96430"/></g></svg>