<svg xmlns="http://www.w3.org/2000/svg" data-name="Layer 1" viewBox="0 0 1584.1 650.9"><defs><clipPath id="a"><path d="M54.4 51.5h1432.7v506.4H54.4z" style="fill:none;stroke-width:0"/></clipPath></defs><g data-name="Group 6" style="clip-path:url(#a)"><path d="M469.1 56.8c-52.3 0-104.9 0-156.2 3.1-56 3.5-111.5 10.7-168.1 8.2-10-.4-21.2-1.1-29.4.7-6.7 1.5-9.2 4.2-10.8 6.7-6.3 9.5-7.8 19.2-9.3 28.9-21.2 141.4-34.9 283.9-40.8 426.8-.2 5.9.7 12.6 15.1 16.4 11.2 2.9 27.1 3.2 41.8 3.2l931.7 5 379.3 2c7.6 0 15.9 0 21.5-1.6 5.2-1.5 6.3-3.8 7.2-6 20-49.5 40-99.3 35.4-149.2-3.7-39.1-22.5-78-26.5-117.1-5.3-51.9 15.4-103.9 0-155.6-7.6-25.7-24.1-51.4-13.5-77" data-name="Path 4" style="stroke-width:0;fill:#e96430"/></g></svg>