<svg xmlns="http://www.w3.org/2000/svg" data-name="Layer 1" viewBox="0 0 721.5 442.5"><path d="M124.3 193.4c3 .3 6 .7 9 1 1 .3 2 .7 3 1 1.9.3 3.8 1 5.6.9 5.2-.4 10.3-1.2 15.4-1.9h3c6.1-.3 12.2-.6 18.3-1 1.2 0 2.5-.6 3.7-1h3c1.7.3 3.3.7 5 1 4.8-1.7 9.4-.7 14 1h3c1.7.3 3.3.7 5 1 3-.7 6-1.3 9-2h2c1 .3 2 .7 3 1h24c2.3-.3 4.6-.6 6.9-.8 4.6-.3 9.3-.8 13.9-.8 3.4 0 6.8 1 10.2 1.5 6.3.3 12.7.7 19 1 .7-.3 1.3-.6 2-1h12c7.4 0 14.9 0 22.3-.1.6 0 1.1-.6 1.7-.9h4c1.1.3 2.2 1 3.2.9 5.3-.5 10.6-1.3 15.8-1.9 4.7.3 9.3.7 14 1 10.8 1.1 21.5 1.1 32.3-1.1 5.3-1.1 11.1.6 16.7 1.1 1.3-.3 2.7-.7 4-1 9.3.7 18.7 1.3 28 2 2.3-.3 4.7-.7 7-1 .7.3 1.3.7 2 1h28c1-.3 2-.7 3-1h26c15.7.3 31.3.7 47 .9 2.6 0 5.3-.6 2-3.9-.3-.7-.7-1.3-1-2l-16-16-1-1c-2.3-2-4.7-4-7-6l-3-3c-2.8-2.9-5.7-5.8-8.4-8.7-4.2-4.6-8.2-9.3-12.4-13.8-9.8-10.6-19.8-21.1-29.5-31.8-4.2-4.6-7.8-9.8-11.7-14.7-1-.7-2-1.3-3-2l-15-15-14-14-1-1c-.1-.5 0-1.2-.3-1.4-5.1-3.5-4.7-9.1-5.6-14.2-1-5.7 4.8-13.6 12.4-16.3 4.3-1.5 9-2.1 13.5-3.1 5.7.7 11.3 1.3 17 2 6.7 4 13.3 8 20 12 2 1.7 4 3.3 6 5l5 5c1.3 1.7 2.7 3.3 4 5 7.4 7.5 14.8 15.1 22.3 22.5 1.6 1.5 3.8 2.4 5.7 3.5 3 2.7 6 5.3 9 8 .3 1 .7 2 1 3l2 2c3.3 4 6.7 8 10 12l1 1c2.4 2.6 4.7 5.3 7.4 7.7.7.7 2.4.2 3.6.3 1.7 2.5 3.1 5.4 5.2 7.5 6.7 7 13.5 13.7 20.4 20.5 3.4 3.4 6.9 6.6 10.4 10 .7 1.2 1.2 2.7 2.2 3.7 7.9 7.2 15.8 14.2 23.8 21.4l1 1c5.4 5.3 10.8 10.7 16.2 16 .6.6 1.8.7 2.7 1l4 4c1 .7 2 1.3 3 2 1 .3 2 .7 3 1l2 2 9 9c4.5 9.2 3.8 15.6-3.3 23.9-1.2 1.4-1.8 3.3-2.7 5-2 1.3-4 2.7-6 4-4.7 4.3-9.3 8.7-14 13l-1 1c-2.7 1.9-5.7 3.3-7.9 5.6-5.6 5.9-10.8 12.2-16.1 18.4l-4 4c-6.3 6-12.7 12-19 18-3.7 4-7.3 8-11 12-2.5 3-4.9 6-7.6 8.9-2.7 2.8-5.6 5.3-8.5 7.9l-18 16.2-8 8c-2.4 2.1-5.1 3.9-7.3 6.2-4.1 4.4-7.8 9.2-11.7 13.8-1.7 2-3.3 4-5 6-2 1.7-4 3.3-6 5-1 .7-2 1.3-3 2-6.3 4.7-12.7 9.3-19 14l-9 6h-1c-4.4 2.4-8.8 4.9-13.3 7.1-1.4.7-3.1.6-4.7.9-.7-.3-1.3-.7-2-1-7.2 1.1-13.5-1.7-20.2-3.9-6.5-2.2-8.1-7.8-11.8-12.1.3-2.7.7-5.3 1-8 2.1-3.6 4.2-7.1 6.2-10.7.8-1.4 1.2-2.9 1.8-4.3 1.7-1.3 3.3-2.7 5-4 2.8-2.5 5.8-4.8 8.4-7.5 1.9-2 3.3-4.6 5-6.9.4-.5.7-1.1 1.2-1.5 4.9-4.5 9.9-9 14.6-13.7 1.4-1.4 1.9-3.5 2.8-5.4 3.7-3.3 7.3-6.7 11-10 2.7-3 5.3-6 8-9 .3-.7.7-1.3 1-2l4-4 3-3c3.1-3 8.4-4.2 8-10l8-6c3-3.3 6-6.7 9-10l1-1c3.3-2.7 6.7-5.3 10-8 2.8-3 5.6-5.9 8.4-8.9 3.6-4 7.1-8.1 10.6-12.1 1.2-.4 2.4-.8 3.7-1.1l-1.8-1.9h-17.9c-3.6.3-7.3.8-10.9.7-8 0-16.1-.5-24.1-.7-2.3.7-4.7 1.3-7 2-4-.7-8-1.3-12-2-2.3.7-4.7 1.3-7 2h-2c-2-.3-4-.7-6-1h-1c-5.3.3-10.7.7-16 1-3.7-.3-7.3-.7-11-1-2 .3-4 .7-6 1h-5c-.7-.3-1.3-.7-2-1-2.3.3-4.7.7-7 1-1.4-.7-2.8-1.7-4.3-1.9-2.5-.3-5.1 0-7.7 0-3.7.7-7.3 1.3-11 2-1 .3-2 .6-3 1h-3c-1.3-.3-2.7-.7-4-1-4 .6-8.3-2.5-12 1-1.9-1-3.7-2.7-5.7-2.9-4.7-.4-9.5-.1-14.3-.1l-3 1h-13c-4.3.3-8.7.7-13 1-3.7-.3-7.3-.7-11-1-1.3.3-2.7.7-4 1h-8c-1-.3-2-.7-3-1-1.6-.3-3.3-.9-4.9-.8-5.4.1-10.7.5-16.1.8h-7c-2 .3-4 .7-6 1l-5 1c-4.1-.3-8.4-1.5-12.3-.8-4.4.8-8.4 0-12.6-.6-.7 0-1.4.2-2.2.4-1 .3-2 .7-3 1h-7c-2.7-.3-5.3-.7-8-1-2.7-.7-5.3-1.3-8-2h-5c-1 .7-2 1.3-3 2h-5c-2-.3-4-.7-6-1-8-.7-16-1.3-24-2h-5c-1.3.3-2.7.7-4 1h-14c-1.8.3-3.5 1-5.3.9-6.2-.2-12.5-.6-18.7-.9h-4c-6.8.2-13.8-1.2-20 3h-3c-2.3-.7-4.7-1.3-7-2-5.7 1.3-11.4 2.2-17.2 1.1-.8-.2-1.8.6-2.8.9h-1c-4-.8-7.9-1.6-11.9-2.4-6-1.2-11.9-2.6-17.9-3.4-3-.4-5.6-.1-7-3.9-.6-1.6-4-2.2-6.2-3.2.8-3.4-1.6-4.7-4-6-.6-6.4-1.2-12.9-2-21.1 1.4-3.2 3.7-8.5 6-13.9 2.3-2 4.7-4 7-6 2.9-2.3 7.4-2.2 9.1-6.3l.9.3c.9.7 1.9 1.9 2.8 1.9 8.8.5 17.7.8 26.5 1.1H103c2-.3 4-.7 6-1h7c2.7-.3 5.3-.7 8-1Z" style="fill:#643e3b;stroke-width:0"/></svg>