<?xml version="1.0" encoding="UTF-8"?>
<svg id="Layer_1" data-name="Layer 1" xmlns="http://www.w3.org/2000/svg" version="1.1" viewBox="0 0 755 175">
  <defs>
    <style>
      .cls-1 {
        fill: #f0c1d3;
        stroke-width: 0px;
      }
    </style>
  </defs>
  <path class="cls-1" d="M681,68.75v11.25h-.51c0,2.33-.51,4.65,0,6.79,1.02,5.04-1.53,9.31-3.83,13.58-1.02,1.94-1.53,3.69-2.04,5.63-.51,2.33-2.04,3.88-4.34,5.24-5.62,3.3-11.24,6.6-16.86,10.09-2.81,1.75-5.88,3.49-7.92,5.62-3.07,3.3-7.41,3.3-11.75,3.69-7.92.58-15.59.97-23.51,2.33-5.11.97-10.48.39-15.84.58-12.01.78-24.27,0-36.28.97-9.71.78-19.42,0-29.13-.39-7.67,0-15.07-.39-22.74-.39-7.92-.19-15.84.19-23.76.19-1.79,0-3.58-.19-5.37-.39-4.09-.78-7.92-.78-12.01-.39-7.67.78-15.59.97-23.51.58-7.92-.58-15.84-.39-23.76-.58-14.31-.39-28.62-.97-42.93-1.16-9.97,0-19.93.39-29.89.58-20.19.19-40.37.58-60.56.39-13.03,0-25.81.78-38.58,1.75-14.31,1.16-28.62,2.72-42.93,1.94-3.07-.19-5.88-.39-8.94-.58-15.84-1.75-31.94-.78-47.78,0-17.37.97-34.24-1.55-51.36-1.94-8.18-.19-15.07-2.71-21.97-5.82-4.34-1.94-8.69-3.88-12.78-6.01-1.53-.78-3.07-2.13-3.32-3.49-.77-3.49-.77-6.79-2.3-10.28-1.79-4.07-1.79-8.53-3.07-12.61-2.04-5.04-.77-9.89,1.02-14.74,1.28-3.49,2.81-6.98,4.09-10.47,1.53-3.69,3.07-7.56,7.16-10.09.51-.39,1.02-.58,1.28-.97.77-4.07,6.13-4.85,8.94-7.56.77-.97,3.07-.97,4.85-1.55,6.13-1.94,12.78-2.71,19.16-3.88,10.73-1.94,21.46-.78,32.19-1.36,9.97-.39,19.67-.78,29.13-1.75,10.99-1.36,21.72-1.55,32.71-1.55,13.54,0,27.08.19,40.88.39,6.39.19,12.78.58,19.16.97,25.81,1.55,51.36,1.94,77.16-.58,16.35-1.55,32.7-2.52,49.06-2.33,2.04,0,4.09.19,5.88.39.77.19,1.53.39,2.3.39,7.15,0,14.56.58,21.97-.19,7.16-.58,13.8,0,20.95.58,4.6.19,9.45,0,14.05-.39,9.45-.58,18.91-1.55,28.62-2.33,7.16-.58,14.31-.78,21.46-1.36,7.41-.39,14.56.39,21.97.78,6.13.19,12.52-.58,18.65-.19,13.8.58,27.6,1.74,41.39,2.52,3.32.19,6.9.19,10.48.39,12.52.58,24.78,1.36,37.3,2.33,9.2.78,18.65,2.13,27.85,3.49,2.3.19,4.34,1.16,6.64,1.75,1.53.39,3.07,1.16,4.6,1.16,5.11.19,8.18,2.52,10.48,5.43,2.81,3.3,5.11,7.18,7.41,10.67.51.97.77,1.94.77,2.91Z"/>
</svg>