<?xml version="1.0" encoding="UTF-8"?>
<svg id="Layer_1" data-name="Layer 1" xmlns="http://www.w3.org/2000/svg" version="1.1" viewBox="0 0 755 175">
  <defs>
    <style>
      .cls-1 {
        fill: #7f8b3e;
        stroke-width: 0px;
      }
    </style>
  </defs>
  <path class="cls-1" d="M694.85,100.27c.77,6.28-1.54,12.37-4.61,17.9-2.56,4.95-6.91,9.33-10.24,14.09-3.33,4.95-9.73,6.47-16.13,7.8-14.59,2.86-29.44,3.43-44.55,4-8.96.19-18.18,1.33-27.39,1.71-6.91.38-14.08.57-20.99.57-15.87,0-31.74.19-47.62.19-15.62-.19-31.23-.38-47.1-.38-10.5,0-20.99.19-31.49.76-6.91.57-13.83.19-20.99,0-10.75,0-21.76.57-32.51.57-15.62.19-31.49.38-47.11.57-1.54,0-2.82-.38-4.35-.57-2.05-.19-3.84-.76-5.89-.57-8.7.19-17.15-.19-25.6,2.28-3.33.95-7.68.76-11.52.76-7.17-.19-14.34-.19-21.25,1.52-2.56.76-5.38.38-8.19.38-7.42-.19-15.1-.76-22.53-.38-6.66.38-13.06.57-19.71.19-7.17-.38-14.34.76-21.5,1.14-6.91.38-13.82,1.33-20.74,1.14-11.26-.57-22.53-1.71-33.54-2.85-7.42-.76-14.59-2.09-21.76-3.05-15.87-1.9-29.95-6.85-41.22-15.42-3.84-2.85-6.4-5.9-7.43-10.28-1.02-4.38-4.1-8.38-6.14-12.75-1.54-3.24-2.82-6.66-2.3-10.28.51-1.52,0-3.05,0-4.38.51-4.19,1.03-8.19,1.28-12.37.26-2.85.51-5.71.77-8.57,0-1.33.26-2.67,1.03-4,3.07-5.33,6.65-10.85,9.98-16.37,2.05-3.05,5.89-4.38,9.98-5.33,6.4-1.71,13.57-1.33,19.97-4,1.28-.57,3.07-.57,4.86-.57,12.29.19,24.83.38,37.38.38,15.87.19,31.49.57,47.11.57,4.86,0,9.47-.76,14.34-.95,5.89-.19,12.03-.19,18.18,0,5.12.19,10.24.57,15.36.76,10.75,0,21.5-.19,32-.19,2.56,0,4.86.38,7.17.57,6.91.38,13.57.95,20.48-.19,2.56-.38,5.12-.19,7.68,0,8.19,0,16.13.19,24.32.38,2.82.19,5.89.57,8.7.57,2.3.19,4.35.19,6.66.19,1.54-.19,2.82-.38,4.35-.38,7.43.38,15.1.95,22.53,1.52,2.3.19,4.61.38,7.17.38,15.87.38,31.49,1.71,47.36,1.14,1.28-.19,2.3-.19,3.07-.38,3.07-6.66,9.98-8,16.9-8,5.63-.19,11.01.76,16.38,1.33,8.19.76,16.38,1.33,24.32,2.47,13.83,2.09,27.9,1.33,41.73,2.28,6.4.38,13.06-.57,19.46-.38,10.24.19,20.48.95,30.72,1.52,14.85.95,28.42,4.76,42.24,8.19,4.61,1.14,9.47,2.28,14.34,3.05,6.15.76,10.75,3.05,15.36,5.9,7.68,4.76,15.36,9.14,23.04,13.9,3.84,2.28,6.91,4.38,6.66,8.76-.51,4.38.77,8.76,1.54,13.13Z"/>
</svg>