<?xml version="1.0" encoding="UTF-8"?>
<svg id="Layer_1" data-name="Layer 1" xmlns="http://www.w3.org/2000/svg" version="1.1" viewBox="0 0 905 850.1">
  <defs>
    <style>
      .cls-1 {
        fill: #f5f0e2;
      }

      .cls-1, .cls-2, .cls-3, .cls-4, .cls-5, .cls-6 {
        stroke-width: 0px;
      }

      .cls-2 {
        fill: #f5f0e1;
      }

      .cls-3 {
        fill: #f8f4e7;
      }

      .cls-4 {
        fill: #fcf3f3;
      }

      .cls-5 {
        fill: #ebe7d9;
      }

      .cls-6 {
        fill: #f3eee0;
      }
    </style>
  </defs>
  <path class="cls-4" d="M798.8,729.2c-.3.3-.7.7-1,1-.7,1-1.3,2-2,3-.3.3-.7.7-1,1-1,1.3-2,2.7-3,4-2.3,2.3-4.7,4.7-7,7-2.9-.2-4.2,1.1-4,4-2.3,2-4.7,4-7,6-1,.7-2,1.3-3,2,0,0,0,0,0,0-.3.3-.7.7-1,1,0,0,0,0,0,0-1,.7-2,1.3-3,2h0c-2,1.3-4,2.7-6,4h0c-1,.7-2,1.3-3,2-1.3.7-2.7,1.3-4,2-2,1-4,2-6,3-.3,0-.6,0-.9,0-3.4,2-6.7,3.9-10.1,5.9-1,.3-2,.7-3,1-3.8.9-7.7,1.6-11.5,2.8-2,.6-3.7,2.1-5.5,3.2-.3,0-.7,0-1,0-.3.3-.7.6-1,1-.3,0-.7,0-1,0-.7-.3-1.5-1-2.2-.8-9,2.2-17.9,4.6-26.8,6.9-1,.7-2,1.3-3,2-1.3,0-2.7,0-4,0-2-1.3-3.9-2-5,1-.7,0-1.3,0-2,0-1.3.3-2.7.7-4,1-.7,0-1.3,0-2,0-1.3.3-2.7.7-4,1-1.7,0-3.3,0-5,0-2-1.3-3.9-2.1-5,1-1,0-2,0-3,0-2-1.3-3.9-2-5,1-2.3,0-4.7,0-7,0-3.8-1-7.6-2.7-11,1-3,0-6,0-9,0-1.4-.3-2.8-1-4.2-1-17.9,0-35.8,0-53.7,0-1.4,0-2.8.6-4.2.9-18.2,0-36.3,0-54.5,0-50.8-.3-101.5-.7-152.3-.9-21.6-.1-43.2.5-64.7-.2-16.5-.5-33-2.6-49.5-3.8-20-1.5-39.6-5.6-58.9-11.1-8.3-2.4-16.2-5.9-24.2-8.9-2-1-4-2-6-3-1.3-.7-2.7-1.3-4-2-.7-.3-1.3-.7-2-1-4-2.3-8-4.7-12-7-1-.7-2-1.3-3-2-1.7-1-3.3-2-5-3-.3-.3-.7-.6-1-1-14.2-10.8-25.7-23.9-34.6-39.3-.7-1.1-.9-2.5-1.4-3.7-1-1.7-2-3.3-3-5-.7-1.7-1.4-3.3-2-5-.7-1.3-1.3-2.7-2-4,0-.3,0-.7,0-1-.4-1.9-.6-3.9-1.1-5.8-2.3-7.9-4.9-15.8-7.2-23.7-1.7-6.1-3.2-12.3-4.8-18.5-.7-3.3-1.4-6.6-2-10-.3-1-.6-2-.9-3,0-.7,0-1.3,0-2,1-2.2,2.4-4.5-1-6,0-1,0-2,0-3-.2-5.5-.4-11-.7-16.5,0-.2-.8-.4-1.3-.5,0-1.3,0-2.7,0-4,1-4.4,2.7-8.9-1-13,0-1.3,0-2.7,0-4,.3-.4.8-.8.8-1.2,0-9.1.2-18.3,0-27.4,0-.8-1.2-1.6-1.9-2.4.3-3,.6-6,.9-8.9,0-15.9,0-31.8,0-47.7,0-1.5-1.2-2.9-1.9-4.4,0-2,0-4,0-6,.6-.4,1.2-.8,1.8-1.3-.6-.6-1.2-1.2-1.8-1.7,0-6.3,0-12.7,0-19,.3-4.7.9-9.3.9-14,0-4-.6-8-.9-12,0-8.3,0-16.7,0-25,.7-1.5,1.9-2.9,1.9-4.4.2-10.5.1-20.9,0-31.4,0-1.4-.6-2.8-.9-4.2,0-5,0-10,0-15,.7-1.5,1.9-2.9,1.9-4.4.2-12.5.1-24.9,0-37.4,0-1.4-.6-2.8-.9-4.2,0-5.7,0-11.3,0-17,.7-1.3,1.8-2.5,1.9-3.8.3-3.1,0-6.2,0-9.3-.3-8-.6-15.9-.9-23.9,2.8-2.7,2.8-6.3,0-9,.3-6,.7-12,1-18,.5-.3,1.6-.7,1.6-1-.1-5.4-.3-10.7-.6-16,0-1.3,0-2.7,0-4,3.7-2.2,2-5.2,1-8,0-.7,0-1.3,0-2,.6-2.4,1.3-4.7,1.9-7.1,0-1,0-2,0-3,0-1.7,0-3.3,0-5,0-.7,0-1.3,0-2,.6-.3,1.5-.5,1.6-1,2.2-10,4.3-20,6.4-30.1l-1-1c.3-.3.7-.7,1-1,.3,0,.9,0,.9-.3,2.7-8.2,5.4-16.5,8.1-24.7,0-.3,0-.7,0-1,1-2,2-4,3-6,0,0,0,0,0,0,2-3.7,4-7.3,6-11,.3-.7.7-1.3,1-2,.7-1,1.3-2,2-3,0,0,0,0,0,0,.7-1,1.3-2,2-3,0,0,0,0,0,0,.7-1,1.3-2,2-3,.3-.3.7-.7,1-1,.7-1,1.3-2,2-3,.7-.7,1.3-1.3,2-2,1-1,2-2,3-3,1.7-2,3.3-4,5-6,.7-.3,1.3-.7,2-1,0,0,0,0,0,0,.7-.7,1.3-1.3,2-2,0,0,0,0,0,0,.7-.7,1.3-1.3,2-2,.3-.3.7-.7,1-1,.3-.3.7-.7,1-1,0,0,0,0,0,0,1-.7,2-1.3,3-2,0,0,0,0,0,0,1.3-1,2.7-2,4-3,0,0,0,0,0,0,5.3-3,10.7-6,16-9,1.1-.1,2.5,0,3.4-.4,12.8-6.7,26.7-9.7,40.7-12.6,1.1-.2,1.9-1.3,2.9-1.9.7,0,1.3,0,2,0,1.3-.3,2.7-.7,4-1,.7,0,1.3,0,2,0,4,1.4,7.8,1.1,11-2,.7,0,1.3,0,2,0,5,1.4,9.7,1.1,14-2,.7,0,1.3,0,2,0,2.2.3,4.4,1.2,6.5.8,3.6-.6,7-1.8,10.5-2.8,1,0,2,0,3,0,3.5,1,7,2.7,10-1,.7,0,1.3,0,2,0,.2.2.5.6.7.6,9-.2,17.9-.5,26.9-.9.5,0,.9-1.2,1.4-1.8,3,0,6,0,9,0,4.4,1,8.9,2.9,13-.9,1,0,2,0,3,0,.7.3,1.5.9,2.2.9,13,0,25.9,0,38.9,0,1,0,1.9-1.2,2.9-1.9.7,0,1.3,0,2,0,.4.6.8,1.2,1.3,1.8.6-.6,1.2-1.2,1.7-1.8,5,0,10,0,15,0,2.7,3.2,5.3,3.1,8,0,6.7,0,13.3,0,20,0,1.7.3,3.5.9,5.2.9,17.6,0,35.2,0,52.8,0,6.9,0,13.8.1,20.7,0,1.5,0,2.9-1.2,4.3-1.9,16.3,0,32.6,0,49,0,1.5.7,2.9,1.8,4.4,1.9,7.1.2,14.3.2,21.4,0,2.4,0,4.8-.6,7.2-.9,2.3,0,4.7,0,7,0,.3.5.6,1.6,1,1.6,5.7-.1,11.4-.4,17.1-.6,2,0,4,0,6,0,3.4,3.7,7.2,1.9,11,1,.7,0,1.3,0,2,0,1.1.7,2.1,1.7,3.3,1.9,2.6.3,5.2,0,7.7,0,4.3,0,8.7,0,13,0,1,0,2,0,3,0,1.9,3.3,4.4,2.2,7,1,.7,0,1.3,0,2,0,5,3.1,10.4,3.4,16,2,.7,0,1.3,0,2,0,1.1,3,3,2.3,5,1,10.7,1.7,21.3,3.3,32,5,1.6,1,3,2.3,4.7,2.9,9.3,2.9,18.7,5.6,28,8.5,4.9,1.6,9.5,3.7,14.3,5.6.3,0,.7,0,1,0,0,0,0,0,0,0,1.7,1,3.3,2,5,3,.7.3,1.3.7,2,1,1,.7,2,1.3,3,2,0,0,0,0,0,0,1.7,1,3.3,2,5,3,.3.3.7.7,1,1,1,.7,2,1.3,3,2,.7.3,1.3.7,2,1,.7.6,1.3,1.3,2,1.9.7.7,1.3,1.3,2,2,1.3,1.3,2.7,2.7,4,4,2,1.7,4,3.4,6,5,1,1.3,2,2.7,3,4,.3.3.7.7,1,1,.3.3.7.7,1,1h0c.3.7.7,1.3,1,2,0,0,0,0,0,0,.7.7,1.3,1.4,2,2h0c.3.3.7.7,1,1,0,0,0,0,0,0,.3.3.6.7,1,1,.3.7.7,1.3,1,2,.7,1,1.3,2,2,3,0,0,0,0,0,0,1,1.7,2,3.3,3,5,0,0,0,0,0,0,2,3.3,4,6.7,6,10,0,.3,0,.7,0,1,.3.3.7.7,1,1,0,.3,0,.7,0,1,.1,1.2,0,2.4.3,3.4,4.2,13.2,8.4,26.5,12.7,39.7.2.8,1.2,1.3,1.9,1.9,0,.7,0,1.3,0,2,.3,1,.6,2,1,3,0,.7,0,1.3,0,2-.3,1-.9,2.2-.7,3.1.8,5.2,1.7,10.4,2.7,15.5.3,1.5,1.3,2.9,2,4.4,0,.7,0,1.3,0,2,0,3,0,6,0,9,.7,2.7,1.3,5.3,2,8,0,.7,0,1.3,0,2-1.2,2.6-2.3,5.1,1,7,0,1.3,0,2.7,0,4-.9,4.1-2.8,8.3,1,12,0,1.7,0,3.3,0,5-.3,4.7-.6,9.4-.9,14.1,0,.9,0,1.9,0,2.8,0,2-.3,3.9,0,5.8.3,1.8,1.2,3.5,1.9,5.3,0,1.7,0,3.3,0,5-.3.7-.9,1.5-.9,2.2,0,10.6,0,21.3,0,31.9,0,1,1.2,1.9,1.9,2.9,0,2.7,0,5.3,0,8-2.8,1.3-2.8,2.7,0,4,0,8.3,0,16.7,0,25-.3,1.4-.9,2.8-.9,4.2,0,21.2,0,42.4,0,63.6,0,1.4.6,2.8.9,4.2,0,4,0,8,0,12,0,1.3,0,2.7,0,4,0,6.3,0,12.7,0,19-.3,3.7-.6,7.4-.9,11.1,0,2.3,0,4.6,0,6.9,0,12.2-.1,24.5,0,36.7,0,1.5,1.2,2.9,1.9,4.4,0,1.7,0,3.3,0,5,0,.7,0,1.3,0,2,0,2,0,4,0,6-.3,1.2-.9,2.4-.9,3.7,0,17.2,0,34.4,0,51.7,0,1.2.6,2.4.9,3.7-.3,9.7-.7,19.3-1,29-3.6,2.2-2.1,5.2-1,8,0,1,0,2,0,3-3.1,4-3.4,8.4-2,13,0,.7,0,1.3,0,2-2.7,2.9-3.8,6.2-2,10,0,.7,0,1.3,0,2-1.3,5-2.7,10-4,15-.7,2.3-1.3,4.7-2,7-.5.2-1.2.2-1.3.5-2.6,7.2-5.1,14.4-7.6,21.5-1.3,3-2.7,6-4,9-1,1.7-2,3.3-3,5-1.7,2.3-3.3,4.6-5,7,0,.3,0,.7,0,1ZM164.8,707.2s0,0,0,0c.7.3,1.3.7,2,1,1,.7,2,1.4,3,2,1.3,1.3,2.4,3.3,4,3.8,11.5,3.9,23,7.8,34.7,11,5.2,1.4,10.8.9,16.3,1.2.7,0,1.3,0,2,0,.8.6,1.5,1.8,2.4,1.9,5.5.5,11.1.7,16.7,1.1,1.3-.3,2.6-.6,3.9-.9,5.1,3.9,10.6,1.9,16,1,2.3,0,4.7,0,7,0,1.3.7,2.5,1.8,3.8,1.9,5.7.2,11.5,0,17.2,0,.6,0,1.2,0,1.9,0h11.1c11.9,0,23.9,0,35.8,0,1.7,0,3.5-.6,5.2-.9,16,0,32,0,48,0,.7,0,1.3,0,2,0,63,0,126,0,189,0,1.7.3,3.4.9,5.2.9,10.9,0,21.9,0,32.8,0,3.3-1,7.4,2.2,10-2,2.3,0,4.7,0,7,0,3.5,1,7,2.8,10-1,2,0,4,0,6,0,2,1.4,3.9,2.1,5-1,.7,0,1.3,0,2,0,1.4.3,2.9,1.1,4.1.8,8.8-1.8,17.6-3.8,26.3-5.9,1.7-.4,3.1-1.9,4.6-2.9.3,0,.7,0,1,0,2-1,4-2,6-3,1-.3,2-.7,3-1,.7-.3,1.3-.7,2-1,0,0,0,0,0,0,.3-.3.7-.7,1-1,10.5-6.8,20.1-14.5,26.7-25.3,4.9-8,8.9-16.5,13.3-24.7l4-14c0-.7,0-1.3,0-2,1.1-2.9,2.7-5.7,3.2-8.6.7-4.1.6-8.2.8-12.4,0-.7,0-1.3,0-2,3.6-2.3,2.1-5.2,1-8,0-.7,0-1.3,0-2,.7-1.3,1.3-2.7,2-4-.3-3.3-.6-6.7-.9-10v-3c.5-.3,1.6-.7,1.6-1-.1-5.7-.4-11.4-.6-17.1,0-1.3,0-2.7,0-4,3.1-2,3-4,0-6,0-.7,0-1.3,0-2l2-6c0-2,.1-4,0-5.9-.3-5.4-.6-10.7-1-16,0-3.3,0-6.7,0-10,.7-1.5,1.9-2.9,1.9-4.4.1-21.6,0-43.1,0-64.7-.3-32-.6-64-.9-96,.3-.7.9-1.5.9-2.2,0-15.3,0-30.6,0-45.9,0-1-1.2-1.9-1.9-2.9.3-5.3.6-10.6.9-15.9,0-6.9.1-13.8,0-20.7,0-1.5-1.2-2.9-1.9-4.3,0-2.3,0-4.7,0-7,.3-4.4.7-8.7.8-13.1,0-.6-1.2-1.3-1.8-1.9.3-2.3.6-4.6.9-6.9,0-1.9.3-3.9,0-5.8-.3-1.8-1.2-3.5-1.9-5.2,0-.7,0-1.3,0-2,1.1-2.8,2.6-5.8-1-8,0-.7,0-1.3,0-2,1.7-4.7,1.1-9-2-13,0-.7,0-1.3,0-2,1.8-3.8.7-7.1-2-10,0-.7,0-1.3,0-2,1-4.1-1-10.9-4-13-1-3.7-2-7.3-3-11-1-2-2-4-3-6,0-.3,0-.7,0-1-.3-.3-.6-.7-1-1,0-.3,0-.7,0-1-1.7-2.7-3.3-5.3-5-8,0,0,0,0,0,0-.7-1-1.3-2-2-3h0c-.7-1-1.3-2-2-3-3.3-3.3-6.7-6.7-10-10-1-.7-2-1.3-3-2-.7-.7-1.3-1.3-2-2-2-1.3-4-2.7-6-4,0,0,0,0,0,0-2.3-1.3-4.7-2.7-7-4-.3,0-.7,0-1,0-.3-.3-.7-.6-1-1l-3-1c-.7-.3-1.3-.7-2-1-17.8-6-35.9-9.8-54.6-11.1-14.5-1-28.9-2.5-43.4-3.8-1.3-.7-2.5-1.8-3.8-1.9-3.1-.3-6.2,0-9.3,0-3,.3-6,.6-8.9.9-1.1-.6-2.2-1.7-3.3-1.9-2.6-.3-5.2,0-7.8,0-2.6.3-5.3.6-7.9.9-5.1-3.8-10.6-1.9-16-1-2.7,0-5.3,0-8,0-.3-.5-.6-1.6-1-1.6-8.4.1-16.7.4-25.1.6h-17c-1.3-.7-2.6-1.9-3.9-1.9-11.6-.2-23.3-.1-34.9,0-1.1,0-2.1.6-3.2.9-7,0-14,0-21,0-.9-.7-2-2-2.8-1.8-4.1.8-8.7-2.3-12.2,1.8-2,0-4,0-6,0-.3-.5-.7-1.6-1-1.5-7,.1-14,.4-21,.6-1.7,0-3.3,0-5,0-27.1,0-54.1-.5-81.2.2-15.2.4-30.4,2-45.4,3.9-17.7,2.2-35.3,4.8-52.9,8.1-23.1,4.3-42.5,15.4-57.5,33.8-.3.3-.7.7-1,1h0c-1,1.3-2,2.7-3,4h0c-.7.7-1.3,1.4-2,2h0c-1.3,2-2.7,4-4,6,0,1,0,2,0,2.9-.3.3-.6.7-1,1,0,.3,0,.7,0,1-1.2,1.5-3,2.7-3.5,4.4-3,9.8-5.8,19.7-8.4,29.6-.5,1.9,0,4,0,6,0,.7,0,1.3,0,2-.3,1.3-.7,2.7-1,4v2c-3.1,1.1-2.3,3-1,5,0,.7,0,1.3,0,2-3,5.7-3.7,11.7-2,18,0,1.7,0,3.3,0,5-3.7,3-2,6.5-1,10,0,4,0,8,0,12-3.6,2.6-2,5.9-1,9,0,3.3,0,6.7,0,10-2.8,1.3-2.8,2.7,0,4,0,.3,0,.7,0,1-3.5,3.4-2.1,7.2-1,11-.3,9.6-.8,19.2-1,28.8-.4,20.1-.7,40.1-1,60.2-.7,1.3-1.9,2.6-1.9,3.9-.1,32.1-.1,64.2,0,96.2,0,1.3,1.2,2.6,1.9,3.9,0,6.7,0,13.3,0,20-.2,8-.5,16-.6,24.1,0,.3,1,.6,1.6,1,0,3,0,6,0,9-.2,5.7-.4,11.4-.5,17.1,0,.3,1,.6,1.6.9-.3,4-.6,7.9-.9,11.9,0,4.4-.2,8.8,0,13.3,0,1.3,1.2,2.6,1.9,3.8,0,1.3,0,2.7,0,4-1.6,4.1-1.4,5.3,1,6,0,1.3,0,2.6,0,4-.5.3-1,.5-1.5.8.5.4,1,.8,1.5,1.2,0,1,0,2,0,3-1.3,2-2.1,3.9,1,5,0,1,0,2,0,3,0,2.3,0,4.7,0,7,4.3,14.7,8.6,29.3,12.9,44,1,2,2,4,3,6h0c.3.3.6.7,1,1,2,3,4,6,6,9,.7,1,1.3,2,2,3l10,10c1.3,1,2.7,2,4,3,.3.3.7.7,1,1,1,.7,2,1.3,3,2,0,0,0,0,0,0,.3.3.7.7,1,1Z"/>
  <path class="cls-4" d="M830.8,430.2c-.3-1.4-.9-2.8-.9-4.2,0-21.2,0-42.4,0-63.6,0-1.4.6-2.8.9-4.2.3,1.4,1,2.8,1,4.2,0,21.2,0,42.4,0,63.7,0,1.4-.6,2.8-.9,4.2Z"/>
  <path class="cls-4" d="M553.8,799.2c1.4-.3,2.8-.9,4.2-.9,17.9,0,35.8,0,53.7,0,1.4,0,2.8.6,4.2,1-1.4.3-2.8.9-4.2.9-17.9,0-35.8,0-53.7,0-1.4,0-2.8-.6-4.2-1Z"/>
  <path class="cls-4" d="M831.8,596.2c-.3-1.2-.9-2.4-.9-3.7,0-17.2,0-34.4,0-51.7,0-1.2.6-2.4.9-3.7.3,1.4,1,2.8,1,4.2,0,16.9,0,33.8,0,50.7,0,1.4-.6,2.8-1,4.2Z"/>
  <path class="cls-3" d="M456.8,37.2c-17.6,0-35.2,0-52.8,0-1.7,0-3.5-.6-5.2-.9,1.7-.3,3.4-1,5.2-1,17.3,0,34.6,0,51.9,0,.3.7.7,1.3,1,2Z"/>
  <path class="cls-4" d="M51.8,495.2c.7,1.5,1.9,2.9,1.9,4.4.1,15.9,0,31.8,0,47.7-.6-1.6-1.8-3.3-1.9-4.9-.1-15.7,0-31.4,0-47.2Z"/>
  <path class="cls-4" d="M53.8,315.2c.3,1.4.9,2.8.9,4.2,0,12.5.1,24.9,0,37.4,0,1.5-1.2,2.9-1.9,4.4,0-13.8,0-27.6,0-41.4,0-1.6.6-3.1,1-4.7Z"/>
  <path class="cls-6" d="M350.8,36.2c-1,.7-1.9,1.9-2.9,1.9-13,.1-25.9,0-38.9,0-.7,0-1.5-.6-2.2-.9,1.5-.3,3.1-1,4.6-1,13.1,0,26.2,0,39.4,0Z"/>
  <path class="cls-4" d="M183.8,48.2c-1,.7-1.8,1.7-2.9,1.9-13.9,3-27.9,5.9-40.7,12.6-1,.5-2.3.3-3.4.4,0-.3,0-.7,0-1,15-7,30.6-11.9,47-14Z"/>
  <path class="cls-4" d="M60.8,649.2c1.6,6.2,3,12.4,4.8,18.5,2.3,7.9,4.8,15.8,7.2,23.7.6,1.9.7,3.9,1.1,5.8-3.2-9.2-6.7-18.2-9.6-27.5-1.9-6-2.9-12.2-4.2-18.3-.1-.6.5-1.4.7-2.2Z"/>
  <path class="cls-4" d="M745.8,66.2c-4.8-1.9-9.4-4-14.3-5.6-9.3-3-18.7-5.6-28-8.5-1.7-.5-3.1-1.9-4.7-2.9,16.2,3.8,32.2,8,47,16,0,.3,0,.7,0,1Z"/>
  <path class="cls-4" d="M831.8,524.2c-.7-1.5-1.9-2.9-1.9-4.4-.1-12.2,0-24.5,0-36.7.6,1.6,1.8,3.3,1.9,4.9.2,12.1,0,24.1,0,36.2Z"/>
  <path class="cls-4" d="M52.8,376.2c.3,1.4.9,2.8.9,4.2,0,10.5.1,20.9,0,31.4,0,1.5-1.2,2.9-1.9,4.4,0-11.8,0-23.6,0-35.4,0-1.6.6-3.1,1-4.7Z"/>
  <path class="cls-4" d="M819.8,172.2c-.6-.6-1.6-1.1-1.9-1.9-4.3-13.2-8.5-26.4-12.7-39.7-.3-1.1-.2-2.3-.3-3.4,4,10.7,8.2,21.3,11.9,32,1.5,4.2,2,8.7,3,13Z"/>
  <path class="cls-4" d="M830.8,321.2c-.7-1-1.9-1.9-1.9-2.9-.1-10.6-.1-21.3,0-31.9,0-.7.6-1.5.9-2.2.3,1.6,1,3.1,1,4.7,0,10.8,0,21.6,0,32.4Z"/>
  <path class="cls-1" d="M563.8,36.2c-2.4.3-4.8.9-7.2.9-7.1.1-14.3.2-21.4,0-1.5,0-2.9-1.2-4.4-1.9,9.5,0,18.9,0,28.4,0,1.6,0,3.1.6,4.6,1Z"/>
  <path class="cls-4" d="M52.8,556.2c.7.8,1.9,1.6,1.9,2.4,0,9.1,0,18.3,0,27.4,0,.4-.5.8-.8,1.2-.3-1.5-1-3.1-1-4.6,0-8.8,0-17.6,0-26.4Z"/>
  <path class="cls-4" d="M67.8,155.2c-2.1,10-4.2,20.1-6.4,30.1,0,.4-1,.6-1.6,1,2.3-10.3,4.6-20.7,7-31,.3,0,.7,0,1,0Z"/>
  <path class="cls-1" d="M281.8,38.2c-.5.6-.9,1.8-1.4,1.8-9,.4-17.9.6-26.9.9-.2,0-.5-.4-.7-.6,1.3-.3,2.7-.7,4-1,1,0,2,0,3,0,7.3-.3,14.7-.7,22-1Z"/>
  <path class="cls-4" d="M51.8,441.2c.3,4,.9,8,.9,12,0,4.7-.6,9.3-.9,14-.3-3.3-1-6.7-.9-10,0-5.3.6-10.6.9-16Z"/>
  <path class="cls-4" d="M684.8,791.2c8.9-2.3,17.9-4.7,26.8-6.9.6-.2,1.4.5,2.2.8-9.7,2.3-19.3,4.7-29,7.1,0-.3,0-.7,0-1Z"/>
  <path class="cls-1" d="M456.8,37.2c-.3-.7-.7-1.3-1-2,8.7,0,17.3,0,26,0-1.4.7-2.9,1.8-4.3,1.9-6.9.2-13.8,0-20.7,0Z"/>
  <path class="cls-4" d="M76.8,128.2c-2.7,8.2-5.4,16.5-8.1,24.7,0,.2-.6.2-.9.3,3-8.3,6-16.7,9-25Z"/>
  <path class="cls-4" d="M824.8,202.2c-.7-1.5-1.6-2.9-2-4.4-1.1-5.1-1.9-10.3-2.7-15.5-.2-1,.5-2.1.7-3.1,1.3,7.7,2.7,15.3,4,23Z"/>
  <path class="cls-4" d="M810.8,707.2c2.5-7.2,5-14.4,7.6-21.5.1-.3.9-.3,1.3-.5-3,7.3-6,14.7-9,22Z"/>
  <path class="cls-1" d="M588.8,37.2c-5.7.2-11.4.5-17.1.6-.3,0-.6-1-1-1.6,6,.3,12,.7,18,1Z"/>
  <path class="cls-1" d="M237.8,41.2c-3.5,1-6.9,2.3-10.5,2.8-2.1.3-4.3-.5-6.5-.8,5.7-.7,11.3-1.3,17-2Z"/>
  <path class="cls-4" d="M56.8,217.2c.2,5.3.4,10.7.6,16,0,.3-1,.6-1.6,1,.3-5.7.7-11.3,1-17Z"/>
  <path class="cls-4" d="M716.8,784.2c1.8-1.1,3.6-2.5,5.5-3.2,3.7-1.2,7.6-1.9,11.5-2.8-5.7,2-11.3,4-17,6Z"/>
  <path class="cls-4" d="M54.8,608.2c.4.2,1.3.3,1.3.5.3,5.5.5,11,.7,16.5-.7-5.7-1.3-11.3-2-17Z"/>
  <path class="cls-4" d="M136.8,62.2c0,.3,0,.7,0,1-5.3,3-10.7,6-16,9,5.3-3.3,10.7-6.6,16-10Z"/>
  <path class="cls-2" d="M659.8,43.2c-5.6,1.4-11,1.1-16-2,5.3.7,10.7,1.3,16,2Z"/>
  <path class="cls-4" d="M821.8,678.2c1.3-5,2.7-10,4-15-1.3,5-2.7,10-4,15Z"/>
  <path class="cls-1" d="M218.8,43.2c-4.3,3.1-9,3.4-14,2,4.7-.7,9.3-1.3,14-2Z"/>
  <path class="cls-4" d="M827.9,265.3c.3-4.7.6-9.4.9-14.1.3,4.3.7,8.7,1,13-.3.3-.7.7-1,1-.3,0-.6,0-.9,0Z"/>
  <path class="cls-4" d="M55.7,285.1c0,3.1.2,6.2,0,9.3-.1,1.3-1.2,2.5-1.9,3.8,0-3.1-.2-6.2,0-9.2.1-1.3,1.2-2.6,1.8-3.8Z"/>
  <path class="cls-4" d="M53.8,591.2c3.7,4.1,2,8.6,1,13-.3-4.3-.7-8.7-1-13Z"/>
  <path class="cls-6" d="M303.8,37.2c-4.1,3.8-8.6,1.9-13,.9,4.3-.3,8.7-.6,13-.9Z"/>
  <path class="cls-4" d="M827.8,649.2c-1.4-4.7-1.2-9.1,2-13-.7,4.3-1.3,8.7-2,13Z"/>
  <path class="cls-4" d="M828.8,246.2c-3.8-3.7-1.9-7.9-1-12,.3,4,.7,8,1,12Z"/>
  <path class="cls-2" d="M631.8,40.2c-4.3,0-8.7,0-13,0,0-.3,0-.7,0-1,4.3.3,8.7.7,13,1Z"/>
  <path class="cls-1" d="M618.8,39.2c0,.3,0,.7,0,1-2.6,0-5.2.2-7.7,0-1.1-.1-2.2-1.2-3.3-1.9,3.7.3,7.3.6,11,1Z"/>
  <path class="cls-4" d="M829.8,279.2c-.7-1.7-1.6-3.5-1.9-5.3-.3-1.9,0-3.9,0-5.8.6,1.9,1.5,3.8,1.9,5.8.3,1.7,0,3.5,0,5.3Z"/>
  <path class="cls-4" d="M624.8,799.1c3.4-3.7,7.2-2,11-1-3.7.3-7.3.7-11,1Z"/>
  <path class="cls-1" d="M605.8,38.2c-3.8.9-7.6,2.7-11-1,3.7.3,7.3.7,11,1Z"/>
  <path class="cls-4" d="M829.9,476.2c.3-3.7.6-7.4.9-11.1,1,3.8,2.7,7.7-.9,11.1Z"/>
  <path class="cls-4" d="M85.8,110.2c-2,3.7-4,7.3-6,11,2-3.7,4-7.3,6-11Z"/>
  <path class="cls-1" d="M202.8,45.2c-3.2,3.1-7,3.4-11,2,3.7-.7,7.3-1.3,11-2Z"/>
  <path class="cls-4" d="M736.8,777.1c3.4-2,6.7-3.9,10.1-5.9-3.4,2-6.7,3.9-10.1,5.9Z"/>
  <path class="cls-4" d="M825.7,661.2c-1.8-3.8-.7-7.1,2-10-.7,3.3-1.3,6.7-2,10Z"/>
  <path class="cls-4" d="M803.8,124.2c-2-3.3-4-6.7-6-10,2,3.3,4,6.7,6,10Z"/>
  <path class="cls-4" d="M54.8,252.2c2.8,2.7,2.8,6.4,0,9,0-3,0-6,0-9Z"/>
  <path class="cls-1" d="M250.8,40.2c-3,3.7-6.5,2-10,1,1-.3,2-.7,3-1,1,0,2,0,3,0h4Z"/>
  <path class="cls-4" d="M824.8,213.2c0-3,0-6,0-9,.3,3,.7,6,1,9h-1Z"/>
  <path class="cls-6" d="M378.8,36.2c-2.7,3.1-5.4,3.2-8,0,2.7,0,5.4,0,8,0Z"/>
  <path class="cls-4" d="M829.8,633.2c-1-2.8-2.6-5.8,1-8-.3,2.7-.7,5.3-1,8Z"/>
  <path class="cls-4" d="M57.8,205.2c1,2.8,2.6,5.8-1,8,.3-2.7.7-5.3,1-8Z"/>
  <path class="cls-4" d="M824.8,213.2h1c.3,2.7.6,5.3,1,8-.7-2.7-1.3-5.3-2-8Z"/>
  <path class="cls-4" d="M827.8,230.2c-3.3-1.9-2.2-4.4-1-7,.3,2.3.7,4.7,1,7Z"/>
  <path class="cls-4" d="M59.8,196.1c-.6,2.4-1.3,4.7-1.9,7.1.6-2.4,1.3-4.7,1.9-7.1Z"/>
  <path class="cls-2" d="M641.8,41.2c-2.6,1.2-5.1,2.3-7-1,2.3.3,4.7.7,7,1Z"/>
  <path class="cls-4" d="M143.8,771.2c2,1,4,2,6,3-2-1-4-2-6-3Z"/>
  <path class="cls-4" d="M56.8,628.2c3.4,1.5,2,3.8,1,6-.3-2-.7-4-1-6Z"/>
  <path class="cls-4" d="M760.8,764.2c2-1.3,4-2.7,6-4-2,1.3-4,2.7-6,4Z"/>
  <path class="cls-2" d="M666.8,44.2c-2,1.3-3.9,2-5-1,1.7.3,3.3.7,5,1Z"/>
  <path class="cls-4" d="M650.8,797.1c1.1-3,3-2.3,5-1-1.7.3-3.3.7-5,1Z"/>
  <path class="cls-4" d="M79.8,121.2c-1,2-2,4-3,6,1-2,2-4,3-6Z"/>
  <path class="cls-4" d="M59.8,188.2c0,1.7,0,3.3,0,5,0-1.7,0-3.3,0-5Z"/>
  <path class="cls-4" d="M672.8,794.1c1.1-3,3-2.3,5-1-1.7.3-3.3.7-5,1Z"/>
  <path class="cls-4" d="M775.8,87.2c-1.3-1.3-2.7-2.7-4-4,1.3,1.3,2.7,2.7,4,4Z"/>
  <path class="cls-4" d="M747.8,771.2c2-1,4-2,6-3-2,1-4,2-6,3Z"/>
  <path class="cls-4" d="M642.8,798.1c1.1-3,3-2.3,5-1-1.7.3-3.3.7-5,1Z"/>
  <path class="cls-4" d="M77.8,707.2c1,1.7,2,3.3,3,5-1-1.7-2-3.3-3-5Z"/>
  <path class="cls-4" d="M780.8,749.2c-.2-2.9,1.1-4.2,4-4-1.3,1.3-2.7,2.7-4,4Z"/>
  <path class="cls-4" d="M797.8,114.2c-1-1.7-2-3.3-3-5,1,1.7,2,3.3,3,5Z"/>
  <path class="cls-4" d="M803.8,721.2c1-1.7,2-3.3,3-5-1,1.7-2,3.3-3,5Z"/>
  <path class="cls-4" d="M751.8,69.2c-1.7-1-3.3-2-5-3,1.7,1,3.3,2,5,3Z"/>
  <path class="cls-4" d="M761.8,75.2c-1.7-1-3.3-2-5-3,1.7,1,3.3,2,5,3Z"/>
  <path class="cls-4" d="M660.8,796.1c1.3-.3,2.7-.7,4-1-1.3.3-2.7.7-4,1Z"/>
  <path class="cls-4" d="M830.8,446.2c0-1.3,0-2.7,0-4,0,1.3,0,2.7,0,4Z"/>
  <path class="cls-4" d="M784.8,96.2c-1-1.3-2-2.7-3-4,1,1.3,2,2.7,3,4Z"/>
  <path class="cls-4" d="M791.8,738.2c1-1.3,2-2.7,3-4-1,1.3-2,2.7-3,4Z"/>
  <path class="cls-4" d="M830.8,333.2c-2.8-1.3-2.8-2.7,0-4,0,1.3,0,2.7,0,4Z"/>
  <path class="cls-4" d="M666.8,795.1c1.3-.3,2.7-.7,4-1-1.3.3-2.7.7-4,1Z"/>
  <path class="cls-4" d="M120.8,72.2c-1.3,1-2.7,2-4,3,1.3-1,2.7-2,4-3Z"/>
  <path class="cls-1" d="M189.8,47.2c-1.3.3-2.7.7-4,1,1.3-.3,2.7-.7,4-1Z"/>
  <path class="cls-4" d="M73.8,698.2c.7,1.3,1.3,2.7,2,4-.7-1.3-1.3-2.7-2-4Z"/>
  <path class="cls-4" d="M100.8,90.2c-1,1-2,2-3,3,1-1,2-2,3-3Z"/>
  <path class="cls-6" d="M355.8,36.2c-.6.6-1.2,1.2-1.7,1.8-.4-.6-.8-1.2-1.3-1.8,1,0,2,0,3,0Z"/>
  <path class="cls-4" d="M820.8,177.2c-.3-1-.6-2-1-3,.3,1,.6,2,1,3Z"/>
  <path class="cls-4" d="M51.8,486.2c.6.6,1.2,1.2,1.8,1.7-.6.4-1.2.8-1.8,1.3,0-1,0-2,0-3Z"/>
  <path class="cls-4" d="M756.8,72.2c-1-.7-2-1.3-3-2,1,.7,2,1.3,3,2Z"/>
  <path class="cls-4" d="M116.8,75.2c-1,.7-2,1.3-3,2,1-.7,2-1.3,3-2Z"/>
  <path class="cls-4" d="M765.8,78.2c-1-.7-2-1.3-3-2,1,.7,2,1.3,3,2Z"/>
  <path class="cls-4" d="M684.8,791.2c0,.3,0,.7,0,1-1,.3-2,.7-3,1,1-.7,2-1.3,3-2Z"/>
  <path class="cls-4" d="M95.8,95.2c-.7,1-1.3,2-2,3,.7-1,1.3-2,2-3Z"/>
  <path class="cls-4" d="M757.8,766.2c1-.7,2-1.3,3-2-1,.7-2,1.3-3,2Z"/>
  <path class="cls-4" d="M122.8,759.2c1,.7,2,1.3,3,2-1-.7-2-1.3-3-2Z"/>
  <path class="cls-4" d="M766.8,760.2c1-.7,2-1.3,3-2-1,.7-2,1.3-3,2Z"/>
  <path class="cls-4" d="M770.8,757.2c1-.7,2-1.3,3-2-1,.7-2,1.3-3,2Z"/>
  <path class="cls-4" d="M92.8,99.2c-.7,1-1.3,2-2,3,.7-1,1.3-2,2-3Z"/>
  <path class="cls-4" d="M795.8,733.2c.7-1,1.3-2,2-3-.7,1-1.3,2-2,3Z"/>
  <path class="cls-4" d="M90.8,102.2c-.7,1-1.3,2-2,3,.7-1,1.3-2,2-3Z"/>
  <path class="cls-4" d="M88.8,105.2c-.7,1-1.3,2-2,3,.7-1,1.3-2,2-3Z"/>
  <path class="cls-4" d="M794.8,109.2c-.7-1-1.3-2-2-3,.7,1,1.3,2,2,3Z"/>
  <path class="cls-4" d="M57.8,636.2c.3,1,.6,2,.9,3-.3-1-.6-2-.9-3Z"/>
  <path class="cls-4" d="M111.8,79.2c-.7.7-1.3,1.3-2,2,.7-.7,1.3-1.3,2-2Z"/>
  <path class="cls-4" d="M137.8,768.2c.7.3,1.3.7,2,1-.7-.3-1.3-.7-2-1Z"/>
  <path class="cls-4" d="M789.8,102.2c-.7-.7-1.3-1.4-2-2,.7.7,1.3,1.4,2,2Z"/>
  <path class="cls-4" d="M831.8,531.2c0-.7,0-1.3,0-2,0,.7,0,1.3,0,2Z"/>
  <path class="cls-5" d="M259.8,39.2c-1,0-2,0-3,0,1,0,2,0,3,0Z"/>
  <path class="cls-5" d="M246.8,40.2c-1,0-2,0-3,0,1,0,2,0,3,0Z"/>
  <path class="cls-4" d="M769.8,81.2c-.7-.6-1.3-1.3-2-1.9.7.7,1.3,1.3,2,1.9Z"/>
  <path class="cls-4" d="M109.8,81.2c-.7.7-1.3,1.3-2,2,.7-.7,1.3-1.3,2-2Z"/>
  <path class="cls-4" d="M107.8,83.2c-.7.3-1.3.7-2,1,.7-.3,1.3-.7,2-1Z"/>
  <path class="cls-4" d="M787.8,100.2c-.3-.7-.7-1.3-1-2,.3.7.7,1.3,1,2Z"/>
  <path class="cls-4" d="M67.8,155.2c-.3,0-.7,0-1,0,0-.3,0-.7,0-1,.3.3.6.7,1,1Z"/>
  <path class="cls-4" d="M804.8,126.2c-.3-.3-.7-.7-1-1,.3.3.7.7,1,1Z"/>
  <path class="cls-4" d="M798.8,729.2c0-.3,0-.7,0-1,0,.3,0,.7,0,1Z"/>
  <path class="cls-4" d="M791.8,104.2c-.3-.3-.6-.7-1-1,.3.3.6.7,1,1Z"/>
  <path class="cls-4" d="M790.8,103.2c-.3-.3-.7-.7-1-1,.3.3.7.7,1,1Z"/>
  <path class="cls-4" d="M116.8,755.2c.3.3.7.6,1,1-.3-.3-.7-.6-1-1Z"/>
  <path class="cls-4" d="M769.8,758.2c.3-.3.7-.7,1-1-.3.3-.7.7-1,1Z"/>
  <path class="cls-4" d="M786.8,98.2c-.3-.3-.7-.7-1-1,.3.3.7.7,1,1Z"/>
  <path class="cls-4" d="M828.8,265.2c.3-.3.7-.7,1-1-.3.3-.7.7-1,1Z"/>
  <path class="cls-4" d="M714.8,785.2c.3-.3.7-.6,1-1-.3.3-.7.6-1,1Z"/>
  <path class="cls-4" d="M113.8,77.2c-.3.3-.7.7-1,1,.3-.3.7-.7,1-1Z"/>
  <path class="cls-4" d="M745.8,66.2c0-.3,0-.7,0-1,.3.3.7.7,1,1-.3,0-.7,0-1,0Z"/>
  <path class="cls-4" d="M115.8,388.2c0,34.7,0,69.3,0,104-.7-1.3-1.9-2.6-1.9-3.9-.1-32.1-.1-64.2,0-96.2,0-1.3,1.2-2.6,1.9-3.9Z"/>
  <path class="cls-4" d="M764.8,514.2c0-16.4,0-32.8,0-49.1,0-1.6,1.2-3.3,1.8-4.9,0,21.6,0,43.1,0,64.7,0,1.5-1.2,2.9-1.9,4.4,0-2.7,0-5.4,0-8,0-2.3,0-4.6,0-7Z"/>
  <path class="cls-4" d="M169.8,710.2c12.5,6.9,26.1,10.8,40.1,13.5,4.9,1,9.9,1.7,14.9,2.5-5.4-.3-11.1.2-16.3-1.2-11.7-3.1-23.2-7.1-34.7-11-1.6-.5-2.7-2.5-4-3.8Z"/>
  <path class="cls-4" d="M765.8,364.2c-.3-1.6-1-3.1-1-4.7,0-15.5,0-30.9,0-46.4.6,1,1.9,1.9,1.9,2.9.1,15.3,0,30.6,0,45.9,0,.7-.6,1.5-.9,2.2Z"/>
  <path class="cls-4" d="M299.8,729.2c14.4,0,28.9,0,43.3,0,1.6,0,3.1.6,4.7,1-1.7.3-3.5.9-5.2.9-11.9,0-23.9,0-35.8,0-2.3-.7-4.7-1.3-7-2Z"/>
  <path class="cls-4" d="M495.8,102.2c-12.5,0-24.9,0-37.4,0-1.6,0-3.1-.6-4.6-1,1.1-.3,2.1-.9,3.2-.9,11.6,0,23.3-.1,34.9,0,1.3,0,2.6,1.2,3.9,1.9Z"/>
  <path class="cls-4" d="M586.8,730.2c1.6-.3,3.1-.9,4.7-1,11.1,0,22.2,0,33.3,0v2c-10.9,0-21.9,0-32.8,0-1.7,0-3.4-.6-5.2-.9Z"/>
  <path class="cls-4" d="M136.8,164.2c-4,13.3-8,26.7-12,40,0-2-.4-4.1,0-6,2.6-9.9,5.4-19.8,8.4-29.6.5-1.7,2.3-2.9,3.5-4.4Z"/>
  <path class="cls-4" d="M664.8,727.2c7.8-1.7,15.7-3.3,23.5-5,3.9-.9,7.7-2,11.5-3-1.5,1-2.9,2.5-4.6,2.9-8.7,2.2-17.5,4.1-26.3,5.9-1.3.3-2.7-.5-4.1-.8Z"/>
  <path class="cls-4" d="M538.8,103.2c-7.1,0-14.2,0-21.4,0-1.6,0-3.1-.6-4.7-1,8.4-.2,16.7-.5,25.1-.6.3,0,.6,1,1,1.6Z"/>
  <path class="cls-4" d="M115.8,512.2c.3,4.2.8,8.4,1,12.6.2,4.1,0,8.3,0,12.4-.5-.3-1.6-.6-1.6-1,.1-8,.4-16,.6-24.1Z"/>
  <path class="cls-4" d="M765.7,297.2c-.6-1.5-1.8-2.9-1.8-4.4-.2-6.9,0-13.8,0-20.7.7,1.4,1.8,2.9,1.9,4.3.2,6.9,0,13.8,0,20.7Z"/>
  <path class="cls-4" d="M411.8,101.1c-6,0-11.9,0-17.9,0-1.4,0-2.8-.6-4.2-1,7-.2,14-.5,21-.6.3,0,.7,1,1,1.5Z"/>
  <path class="cls-4" d="M763.8,560.2c0-5.5,0-10.9,0-16.4,0-1.6.6-3.1,1-4.6.3,5.3.7,10.7,1,16,.1,2,0,4,0,5.9-.7-.3-1.3-.7-2-1Z"/>
  <path class="cls-4" d="M272.8,729.2c5.7,0,11.5-.1,17.2,0,1.3,0,2.6,1.2,3.9,1.8-5.7,0-11.5.2-17.2,0-1.3,0-2.6-1.2-3.8-1.9Z"/>
  <path class="cls-4" d="M756.8,647.2c1.3-7,2.7-14,4-21-.2,4.1-.1,8.3-.8,12.4-.5,3-2.1,5.8-3.2,8.6Z"/>
  <path class="cls-4" d="M226.8,726.2c5.6.3,11.1.6,16.7,1.1.9,0,1.6,1.2,2.4,1.9-5.6-.3-11.1-.6-16.7-1.1-.8,0-1.6-1.2-2.4-1.9Z"/>
  <path class="cls-4" d="M116.7,546.2c.3,6,.7,12,1,18-.5-.3-1.6-.6-1.6-.9.1-5.7.3-11.4.5-17.1Z"/>
  <path class="cls-4" d="M762.8,597.2c.3-6,.7-12,1-18,.2,5.7.5,11.4.6,17.1,0,.3-1,.6-1.6,1Z"/>
  <path class="cls-4" d="M122.8,219.2c-.7,6-1.3,12-2,18-1.7-6.3-1-12.3,2-18Z"/>
  <path class="cls-4" d="M116.9,576.1c.6,1.3,1.8,2.6,1.8,3.9.2,4.4,0,8.8,0,13.2-.7-1.3-1.8-2.5-1.9-3.8-.2-4.4,0-8.8,0-13.3Z"/>
  <path class="cls-4" d="M249.8,728.2c5.3.3,10.7.7,16,1-5.4.9-10.9,2.9-16-1Z"/>
  <path class="cls-4" d="M562.8,104.1c-5.3-.3-10.7-.6-16-1,5.4-1,10.9-2.9,16,1Z"/>
  <path class="cls-4" d="M763.8,265.2c-.3-5-.7-10-1-15,.6.6,1.8,1.3,1.8,1.9-.1,4.4-.5,8.7-.8,13.1Z"/>
  <path class="cls-4" d="M432.8,101.1c-5,0-10,0-15,0,3.5-4.1,8.2-1.1,12.2-1.8.8-.1,1.9,1.2,2.8,1.8Z"/>
  <path class="cls-4" d="M752.8,663.1c1.3-4.7,2.7-9.3,4-14-1.3,4.7-2.7,9.3-4,14Z"/>
  <path class="cls-4" d="M603.8,106.2c-3.1,0-6.2.2-9.2,0-1.3-.1-2.5-1.2-3.8-1.9,3.1,0,6.2-.2,9.3,0,1.3.1,2.5,1.2,3.8,1.9Z"/>
  <path class="cls-4" d="M760.8,220.2c-.7-4.3-1.3-8.7-2-13,3.1,4,3.7,8.3,2,13Z"/>
  <path class="cls-4" d="M756.8,193.2c-1.3-4.3-2.7-8.7-4-13,2.9,2.1,5,8.9,4,13Z"/>
  <path class="cls-4" d="M763.8,243.2c-.7-1.9-1.5-3.8-1.9-5.7-.3-1.7,0-3.5,0-5.3.7,1.7,1.6,3.4,1.9,5.2.3,1.9,0,3.9,0,5.8Z"/>
  <path class="cls-4" d="M581.8,105.1c-2.6,0-5.2.2-7.7,0-1.2-.1-2.2-1.2-3.3-1.8,2.6,0,5.2-.2,7.8,0,1.2.1,2.2,1.2,3.3,1.9Z"/>
  <path class="cls-4" d="M118.8,288.2c-.3,3.7-.7,7.3-1,11-1.1-3.8-2.5-7.6,1-11Z"/>
  <path class="cls-4" d="M120.8,242.2c-.3,3.3-.7,6.7-1,10-1-3.5-2.8-7,1-10Z"/>
  <path class="cls-4" d="M641.8,729.2c3.3-.3,6.7-.7,10-1-3,3.7-6.5,2-10,1Z"/>
  <path class="cls-4" d="M624.8,731.2v-2c3.3,0,6.7,0,10,0-2.6,4.2-6.7.9-10,2Z"/>
  <path class="cls-4" d="M758.8,205.2c-.7-3.3-1.3-6.7-2-10,2.7,2.9,3.8,6.2,2,10Z"/>
  <path class="cls-4" d="M119.8,264.2c-.3,3-.7,6-1,9-1-3.1-2.6-6.4,1-9Z"/>
  <path class="cls-4" d="M299.8,729.2c2.3.7,4.7,1.3,7,2-3.7,0-7.4,0-11.1,0,1.4-.6,2.7-1.3,4.1-1.9Z"/>
  <path class="cls-4" d="M761.8,230.2c-.3-2.7-.7-5.3-1-8,3.6,2.3,2.1,5.2,1,8Z"/>
  <path class="cls-4" d="M760.8,624.2c.3-2.7.7-5.3,1-8,1.1,2.8,2.6,5.8-1,8Z"/>
  <path class="cls-4" d="M745.8,160.2c-1.7-2.7-3.3-5.3-5-8,1.7,2.7,3.3,5.3,5,8Z"/>
  <path class="cls-4" d="M761.8,605.2c.3-1.7.7-3.3,1-5,.3,3.3.6,6.7.9,10-.7-1.7-1.3-3.3-2-5Z"/>
  <path class="cls-4" d="M118.8,597.2c.3,2,.7,4,1,6-2.4-.7-2.6-2-1-6Z"/>
  <path class="cls-4" d="M763.8,560.2c.7.3,1.3.7,2,1-.7,2-1.3,4-2,6,0-2.3,0-4.7,0-7Z"/>
  <path class="cls-4" d="M761.8,605.2c.7,1.7,1.3,3.3,2,5-.7,1.3-1.3,2.7-2,4,0-3,0-6,0-9Z"/>
  <path class="cls-4" d="M715.8,128.2c-2.3-1.3-4.7-2.7-7-4,2.3,1.3,4.7,2.7,7,4Z"/>
  <path class="cls-4" d="M120.8,620.2c0,2.3,0,4.7,0,7,0-2.3,0-4.7,0-7Z"/>
  <path class="cls-4" d="M141.8,153.2c-1.3,2-2.7,4-4,6,1.3-2,2.7-4,4-6Z"/>
  <path class="cls-4" d="M133.8,671.2c1,2,2,4,3,6-1-2-2-4-3-6Z"/>
  <path class="cls-4" d="M763.8,575.2c0-2,0-4,0-6,3,2,3.1,4,0,6Z"/>
  <path class="cls-4" d="M721.8,132.2c-2-1.3-4-2.7-6-4,2,1.3,4,2.7,6,4Z"/>
  <path class="cls-4" d="M749.8,169.2c-1-2-2-4-3-6,1,2,2,4,3,6Z"/>
  <path class="cls-4" d="M123.8,212.2c-.3,1.7-.7,3.3-1,5-1.3-2-2-3.9,1-5Z"/>
  <path class="cls-4" d="M657.8,728.2c1.7-.3,3.3-.7,5-1-1.1,3.1-3,2.4-5,1Z"/>
  <path class="cls-4" d="M119.8,612.2c.3,1.7.7,3.3,1,5-3-1.1-2.3-3-1-5Z"/>
  <path class="cls-4" d="M700.8,719.2c2-1,4-2,6-3-2,1-4,2-6,3Z"/>
  <path class="cls-4" d="M146.8,147.2l-3,4,3-4Z"/>
  <path class="cls-4" d="M124.8,206.2c-.3,1.3-.7,2.7-1,4,.3-1.3.7-2.7,1-4Z"/>
  <path class="cls-4" d="M155.8,700.2c1.3,1,2.7,2,4,3-1.3-1-2.7-2-4-3Z"/>
  <path class="cls-4" d="M118.8,283.2c0,1.3,0,2.7,0,4-2.8-1.3-2.8-2.7,0-4Z"/>
  <path class="cls-4" d="M726.8,136.2c-1-.7-2-1.3-3-2,1,.7,2,1.3,3,2Z"/>
  <path class="cls-4" d="M738.8,149.2c-.7-1-1.3-2-2-3,.7,1,1.3,2,2,3Z"/>
  <path class="cls-4" d="M740.8,152.2c-.7-1-1.3-2-2-3,.7,1,1.3,2,2,3Z"/>
  <path class="cls-4" d="M160.8,704.2c1,.7,2,1.3,3,2-1-.7-2-1.3-3-2Z"/>
  <path class="cls-4" d="M143.8,687.2c.7,1,1.3,2,2,3-.7-1-1.3-2-2-3Z"/>
  <path class="cls-4" d="M119.8,607.2c0,.7,0,1.3,0,2-.5-.4-1-.8-1.5-1.2.5-.3,1-.5,1.5-.8Z"/>
  <path class="cls-4" d="M395.8,730.2c.7,0,1.3,0,2,0-.7,0-1.3,0-2,0Z"/>
  <path class="cls-4" d="M703.8,122.1c-.7-.3-1.3-.7-2-1,.7.3,1.3.7,2,1Z"/>
  <path class="cls-4" d="M709.8,715.2c.7-.3,1.3-.7,2-1-.7.3-1.3.7-2,1Z"/>
  <path class="cls-4" d="M164.8,707.2c.7.3,1.3.7,2,1-.7-.3-1.3-.7-2-1Z"/>
  <path class="cls-4" d="M143.8,151.2c-.7.7-1.3,1.4-2,2,.7-.7,1.3-1.4,2-2Z"/>
  <path class="cls-4" d="M711.8,714.2c.3-.3.7-.7,1-1-.3.3-.7.7-1,1Z"/>
  <path class="cls-4" d="M163.8,706.2c.3.3.7.7,1,1-.3-.3-.7-.7-1-1Z"/>
  <path class="cls-4" d="M147.8,146.2c-.3.3-.7.7-1,1,.3-.3.7-.7,1-1Z"/>
  <path class="cls-4" d="M707.8,124.1c-.3-.3-.7-.6-1-1,.3.3.7.6,1,1Z"/>
  <path class="cls-4" d="M746.8,162.2c-.3-.3-.6-.7-1-1,.3.3.6.7,1,1Z"/>
  <path class="cls-4" d="M137.8,162.2c-.3.3-.6.7-1,1,.3-.3.6-.7,1-1Z"/>
  <path class="cls-4" d="M136.8,677.2c.3.3.6.7,1,1-.3-.3-.6-.7-1-1Z"/>
  <path class="cls-4" d="M271.8,292.2c.3-.3.7-.7,1-1,.7-1,1.3-2,2-3,.3-.3.7-.7,1-1,1-1.3,2-2.7,3-4,1-1,2-2,3-3,1-1.3,2-2.7,3-4,2.7-2.3,5.3-4.7,8-7,1.3-1.7,2.7-3.3,4-5,.7-.7,1.3-1.3,2-2,.3-.3.7-.7,1-1,.3-.3.7-.7,1-1,.3-.3.7-.7,1-1,0,0,0,0,0,0,.3-.3.7-.7,1-1,0,0,0,0,0,0,.3-.3.7-.7,1-1,0,0,0,0,0,0,1-.7,2-1.3,3-2,1-1,2-2,3-3,1-.7,2-1.3,3-2,.3-.3.7-.7,1-1,.3-.3.7-.7,1-1,1-.7,2-1.3,3-2,1-.7,2-1.3,3-2,.3-.3.7-.7,1-1,1-.7,2-1.3,3-2,2-1.3,4-2.7,6-4,1-.7,2-1.3,3-2,0,0,0,0,0,0,1.7-1,3.3-2,5-3,0,0,0,0,0,0,1.3-.7,2.7-1.3,4-2,.7-.3,1.3-.7,2-1,.3-.3.7-.7,1-1,.3,0,.7,0,1,0,.3-.3.7-.6,1-1,.3,0,.7,0,1,0,1.3-.7,2.7-1.3,4-2,.7-.3,1.3-.7,2-1,5.7-2,11.3-4,17-6,1.3-.7,2.7-1.3,4-2,3-.7,6-1.4,9-2,4.3-1.3,8.7-2.6,13-3.9.7,0,1.3,0,2,0,1.3-.3,2.7-.7,4-1,.7,0,1.3,0,2,0,2,1.3,3.9,2,5-1,.7,0,1.3,0,2,0,2.8,1,5.8,2.6,8-1,1,0,2,0,3,0,.9.3,1.8.9,2.7.9,11.2,0,22.4,0,33.6,0,.9,0,1.8-.6,2.7-.9,1,0,2,0,3,0,1.3.7,2.5,1.6,3.8,1.9,2.4.6,4.8.7,7.2,1.1,1.3-.3,2.7-.6,4-.9.7,0,1.3,0,2,0,1.3.3,2.7.6,4,1,1,0,2,0,3,0,1.6.9,3.1,2.1,4.7,2.7,11,3.5,22,6.9,33,10.3,3.1,1,6.2,2,9.3,3,.3,0,.7,0,1,0,4.7,2.7,9.3,5.3,14,8,0,0,0,0,0,0,1,.7,2,1.3,3,2,0,0,0,0,0,0,1,.7,2,1.3,3,2,1.7,1,3.3,2,5,3,1.3,1,2.7,2,4,3h0c1,.7,2,1.3,3,2,8.7,7.7,17.3,15.3,26,23,.3.7.7,1.3,1,2,.3.3.7.7,1,1,1,1,2,2,3,3,3.3,4,6.7,8,10,12,.7,1,1.3,2,2,3,.3.3.7.7,1,1,.7,1.3,1.3,2.7,2,4,.7.7,1.3,1.3,2,2,1.3,2,2.7,4,4,6,.7,1,1.3,2,2,3,.3.7.7,1.3,1,2,.7,1,1.3,2,2,3,.3.7.7,1.3,1,2,.6,1.9,1,3.8,1.8,5.6,3.2,6.9,6.4,13.8,9.8,20.7,1.3,2.7,2.9,5.2,4.3,7.8,0,.7,0,1.3,0,2,0,.1-.2.3-.2.4,0-.1.2-.3.2-.4.3.7.7,1.3,1,2,1.7,7.3,3.4,14.7,5.1,22,0,.6,0,1.3,0,1.9.3.4.7.7,1,1.1,0,1,0,1.9,0,2.9.6,1,1.3,2.1,1.9,3.1,0,1.7,0,3.3,0,5-1.1,2.2-2.4,4.5,1,6,0,.7,0,1.3,0,2-1.3,2.6-2.3,5.1,1,7,0,6.7,0,13.3,0,20-3.6,2.6-2,5.9-1,9,0,1.3,0,2.7,0,4-.3,1.3-.7,2.7-1,4,0,.7,0,1.3,0,2-2.9,2.9-3.2,6.3-2,10,0,.7,0,1.3,0,2-.6.3-1.5.5-1.6,1-1.8,6.7-3.6,13.4-5.3,20.1-3,8.3-6,16.7-9,25,0,.3,0,.6,0,1-1,1.7-2,3.4-2.9,5,0,.3,0,.6,0,1-1.3,2.3-2.7,4.7-4,7,0,.3,0,.7,0,1-.3.3-.7.7-1,1-1,1.7-2,3.3-3,5,0,.3,0,.7,0,1-.3.3-.6.7-1,1,0,.3,0,.7,0,1-3.7.9-4.8,3.6-5,7-3.7,4.7-7.3,9.3-11,14-.7,1.3-1.3,2.7-2,4-.3.3-.7.7-1,1-1.3,1.7-2.7,3.3-4,5-3,3-6,6-9,9-1.3,1.3-2.7,2.7-4,4,0,0,0,0,0,0-.7.7-1.3,1.3-2,2-9.9,11.4-22.4,19.7-35.1,27.5-22.5,13.8-47,22.2-73,26.3-17.9,2.8-35.9,2.8-54,1.4-31-2.3-59.9-11.3-86.8-26.4-10.6-5.9-20.1-13.8-30.1-20.8-1-.7-2-1.3-3-2-14-11.1-25.9-24.2-36-39-.3-.3-.6-.7-1-1-1-1.7-2-3.3-3-5-.7-1-1.3-2-2-3-1.3-2.3-2.7-4.7-4-7-1.7-3-3.3-6-5-9,0,0,0,0,0,0-.3-.3-.6-.7-1-1,0-.3,0-.7,0-1-.7-1.3-1.3-2.7-2-4-1-2-2-4-3-6-.7-1.3-1.3-2.7-2-4,0-.3,0-.7,0-1-.3-.3-.6-.7-1-1-.3-1-.7-2-1-3-.7-1.7-1.3-3.3-2-5-.3-1-.7-2-1-3-.7-1.7-1.3-3.3-2-5-.3-.7-.7-1.3-1-2,.3-.7.6-1.3,1-2-1-2-2-4-3-6,0-.7,0-1.3,0-2-1-3.7-2-7.3-3-11,0-.7,0-1.3,0-2-.7-6.7-1.4-13.3-2.1-20,0-1,0-2,0-2.9,0-8.3,0-16.7,0-25,.4-5,.7-10,1.1-15,0-.7,0-1.3,0-2,.5-.3,1.5-.5,1.6-.9,1.2-5.7,2.3-11.4,3.4-17.1,1-2.6,2.1-5.2,2.8-7.9.9-3.3,1.5-6.7,2.2-10.1,3.7-8.3,7.3-16.7,11-25,1-2,2-4,3-6,0-.3,0-.7,0-1,.3-.3.7-.7,1-1,.3-.7.7-1.3,1-2,.7-1,1.3-2,2-3,.3-.7.7-1.3,1-2,.7-1,1.3-2,2-3,0,0,0,0,0,0,.7-1,1.3-2,2-3,1-1.7,2-3.3,3-5,.3-.3.7-.7,1-1,0,0,0,0,0,0,.7-1,1.3-2,2-3,.3-.3.7-.7,1-1,.7-1,1.3-2,2-3ZM585.8,364.2c0-.1.2-.3.2-.4,0,.1-.2.3-.2.4-.3,0-.7,0-1,0-3.7-12.4-8.4-24.4-16-35-.7-1-1.3-2-2-3-1-1.3-2-2.7-3-4l-2-3c-.7-.7-1.3-1.3-2-2-.7-1-1.3-2-2-3-4.7-4.7-9.3-9.3-14-14-.7-.7-1.3-1.3-2-2h0c-.7-.3-1.3-.7-2-1,0,0,0,0,0,0-.3-.7-.7-1.3-1-2-1-.3-2-.7-3-1-.3-.3-.7-.7-1-1l-3-2-1-1c-.7-.3-1.3-.7-2-1-2.3-1.3-4.7-2.7-7-4-1-.7-2-1.3-3-2-.3,0-.7,0-1,0-2.7-1.3-5.3-2.7-8-4-1-.3-2-.7-3-1-2.4-3.8-6-4.4-10-4-.7,0-1.3,0-2,0-1.1-.8-2-2.2-3.2-2.4-5.7-1.3-11.5-2.6-17.3-3.4-3.1-.5-6.3,0-9.4,0-4.8,0-9.7.1-14.5,0-19.8-.7-39,2.4-57.6,9-8.5,3.1-16.6,7.3-25,11l-3,2c-.7.3-1.3.7-2,1-1,.7-2,1.3-3,2-.3.3-.7.7-1,1-1,.7-2,1.3-3,2h0c-.7.3-1.3.7-2,1-.7.7-1.3,1.3-2,2-2,1.7-4,3.3-6,5-4.7,4.7-9.3,9.3-14,14-.7.7-1.3,1.3-2,2l-3,4-2,3c-.7.7-1.3,1.3-2,2-.7,1-1.3,2-2,3-11.4,16.6-19.8,34.6-25,54-3.5,4.5-4.1,9.6-3,15,0,1,0,2,0,3-2.9,2.8-2.9,19.2,0,22,0,1.7,0,3.3,0,5-1.1,2.2-2.4,4.5,1,6,0,.7,0,1.3,0,2,.3,1,.7,2,1,3,6.6,31.1,21.8,57.5,44,80,1.7,1.3,3.3,2.7,5,4h0c.3.3.7.7,1,1,.7.7,1.3,1.3,2,2,1.3,1,2.7,2,4,3,.3.3.7.7,1,1,1,.7,2,1.3,3,2,1,.7,2,1.3,3,2,1,.7,2,1.3,3,2h0c1,.7,2,1.3,3,2,.3,0,.7,0,1,0,.6,2.7,2,4.2,5,3,1.3.7,2.7,1.3,4,2,1.3.7,2.7,1.3,4,2,1,.3,2,.7,3,1,.6.7,1.1,1.7,1.8,1.9,5.5,1.9,11.1,3.6,16.7,5.3,1,.3,2.3-.2,3.5-.3.7,0,1.3,0,2,0,1.3.3,2.7.7,4,1,.7,0,1.3,0,2,0,1.3.3,2.7.7,4,1,1,0,2,0,3,0,.6.6,1.2,1.7,1.9,1.8,3.7.5,7.4.8,11.2,1.1h20.8c-1.9-1-2.8-1.5-3.8-2,13.9,0,27.3-2.7,40.5-6.7,13.5-4.1,25.6-11,37.5-18.3,1-.7,2-1.3,3-2,7.3-6.7,14.7-13.3,22-20,1-1.3,2-2.7,3-4,.3-.3.7-.7,1-1,.3-.3.7-.7,1-1h0c.3-.3.7-.7,1-1,0,0,0,0,0,0,.7-1,1.3-2,2-3,2.7-3.7,5.3-7.3,8-11,.7-1,1.3-2,2-3h0c.7-.7,1.3-1.4,2-2,1.3-3,2.7-6,4-9l4-8c3.7-12.3,7.3-24.7,11-37,3.1-1.1,2.3-3,1-5,0-.7,0-1.3,0-2,3.8-3.7,2-7.9,1-12v-4c.6-.6,1.8-1.3,1.8-1.9-.2-4.6-.6-9.2-1-13.8,0-.5-1.2-.9-1.8-1.4,0-.7,0-1.3,0-2,0-3.4.5-6.8-.2-10-1.1-4.8-3.1-9.3-4.8-14,0-.3,0-.7,0-1,0-.3,0-.7,0-1Z"/>
  <path class="cls-4" d="M620.8,185.2c1.7-2,3.3-4,5-6,1-1,2-2,3-3,.7-.7,1.3-1.3,2-2,1-.7,2-1.3,3-2,0,0,0,0,0,0,3.7-1.7,7.3-3.3,11-5,0,0,0,0,0,0,5.3-.3,10.7-.7,16-1,.7,0,1.3,0,2,0,5,2,10,4,15,6,1,.7,2,1.3,3,2,1,.7,2,1.3,3,2,0,0,0,0,0,0,.3.3.7.7,1,1,6.4,4.8,10.1,11.3,12,19,.3,6,.7,12,1,18,0,.7,0,1.3,0,2-1.3,3.3-2.6,6.7-4,10,0,.3,0,.7,0,1-.3.3-.6.7-1,1-.7,1-1.3,2-2,3-.7,1-1.3,2-2,3-8.1,9.6-17.9,15-31,15.2-12.9.2-24-3-32.7-12.6-3-3.3-4.9-7.7-7.3-11.6-.7-1.7-1.3-3.3-2-5,0-.3,0-.6,0-1-.3-.3-.6-.7-1-1,0-.7,0-1.3,0-2,1.3-2,2-3.9-1-5,0-2,0-4,0-6,1-4,2-8,3-12,.7-1.7,1.4-3.3,2-5,.7-1,1.3-2,2-3Z"/>
  <path class="cls-4" d="M536.8,226.2c-3.1-1-6.2-2-9.3-3-11-3.4-22-6.8-33-10.3-1.7-.5-3.2-1.8-4.7-2.7,16.3,3.4,32.4,7.5,47,16Z"/>
  <path class="cls-4" d="M462.8,207.2c-.9.3-1.8.9-2.7.9-11.2,0-22.4,0-33.6,0-.9,0-1.8-.6-2.7-.9.4-.3.8-.8,1.2-.8,12.2,0,24.4,0,36.6,0,.4,0,.8.5,1.2.8Z"/>
  <path class="cls-4" d="M643.8,347.2c-1.5-2.6-3-5.1-4.3-7.8-3.3-6.9-6.6-13.7-9.8-20.7-.8-1.8-1.2-3.7-1.8-5.6,4.3,8.5,8.8,17,13,25.6,1.3,2.7,2,5.6,3,8.4Z"/>
  <path class="cls-4" d="M228.8,404.2c0,8.3,0,16.7,0,25-.6-.6-1.8-1.3-1.8-1.9.2-7.7.5-15.4.9-23.1.3,0,.7,0,1,0Z"/>
  <path class="cls-4" d="M634.8,499.2c3-8.3,6-16.7,9-25,0,0,.5,0,.5,0h.5c-3.3,8.3-6.7,16.7-10,25Z"/>
  <path class="cls-4" d="M649.9,373.2c-1.7-7.3-3.4-14.7-5.1-22,2,6.8,4,13.5,5.9,20.3.1.4-.5,1.1-.8,1.7Z"/>
  <path class="cls-4" d="M228.7,432.2c.7,6.7,1.4,13.3,2.1,20-1.8-6.5-4.1-13.1-2.1-20Z"/>
  <path class="cls-4" d="M644.8,474.2h-.5s-.5,0-.5,0c1.8-6.7,3.5-13.4,5.3-20.1.1-.4,1-.6,1.6-1-2,7-4,14-5.9,21Z"/>
  <path class="cls-4" d="M697.8,214.2c-.3-6-.7-12-1-18,2.3,5.9,3,11.9,1,18Z"/>
  <path class="cls-4" d="M234.8,369.2c-1.1,5.7-2.2,11.4-3.4,17.1,0,.4-1,.6-1.6.9,1.3-6,2.6-12,4-18,.3,0,.7,0,1,0Z"/>
  <path class="cls-4" d="M234.8,369.2c-.3,0-.7,0-1,0,2-6,4-12,6-18-.7,3.4-1.3,6.8-2.2,10.1-.7,2.7-1.9,5.3-2.8,7.9Z"/>
  <path class="cls-4" d="M371.8,218.2c-5.7,2-11.3,4-17,6,5.3-2.3,10.7-4.6,16-7,.3.3.6.6,1,1h0Z"/>
  <path class="cls-4" d="M228.8,404.2c-.3,0-.7,0-1,0,.7-5,1.4-10,2-15-.4,5-.7,10-1.1,15Z"/>
  <path class="cls-4" d="M660.8,166.2c-5.3.3-10.7.7-16,1,5.2-1.9,10.5-3.2,16-1Z"/>
  <path class="cls-4" d="M551.8,234.2c-4.7-2.7-9.3-5.3-14-8,4.7,2.7,9.3,5.3,14,8Z"/>
  <path class="cls-4" d="M677.8,172.2c-5-2-10-4-15-6,5,2,10,4,15,6Z"/>
  <path class="cls-4" d="M397.8,210.2c-4.3,1.3-8.7,2.6-13,3.9,4.3-1.3,8.7-2.6,13-3.9Z"/>
  <path class="cls-4" d="M476.8,210.2c-2.4-.3-4.8-.5-7.2-1.1-1.3-.3-2.5-1.3-3.8-1.9,4.3.3,8.7.7,13,1-.7.7-1.3,1.3-2,2Z"/>
  <path class="cls-4" d="M616.8,193.2c-1,4-2,8-3,12,1-4,2-8,3-12Z"/>
  <path class="cls-4" d="M644.8,167.2c-3.7,1.7-7.3,3.3-11,5,3.7-1.7,7.3-3.3,11-5Z"/>
  <path class="cls-4" d="M230.8,454.2c1,3.7,2,7.3,3,11-1-3.7-2-7.3-3-11Z"/>
  <path class="cls-4" d="M650.7,451.2c-1.1-3.7-.9-7.1,2-10-.7,3.3-1.3,6.7-2,10Z"/>
  <path class="cls-4" d="M653.8,431.2c-1-3.1-2.6-6.4,1-9-.3,3-.7,6-1,9Z"/>
  <path class="cls-4" d="M693.8,226.2c1.3-3.3,2.6-6.7,4-10-1.3,3.3-2.6,6.7-4,10Z"/>
  <path class="cls-4" d="M251.8,511.2c1.7,3,3.3,6,5,9-1.7-3-3.3-6-5-9Z"/>
  <path class="cls-4" d="M420.8,207.2c-2.3,3.6-5.2,2-8,1,2.7-.3,5.3-.7,8-1Z"/>
  <path class="cls-4" d="M617.8,530.2c.2-3.4,1.2-6.2,5-7-1.7,2.3-3.3,4.7-5,7Z"/>
  <path class="cls-4" d="M654.8,402.2c-3.3-1.9-2.2-4.4-1-7,.3,2.3.7,4.7,1,7Z"/>
  <path class="cls-4" d="M627.8,513.2c1.3-2.3,2.7-4.7,4-7-1.3,2.3-2.7,4.7-4,7Z"/>
  <path class="cls-4" d="M653.8,393.2c-3.4-1.5-2.1-3.8-1-6,.3,2,.7,4,1,6Z"/>
  <path class="cls-4" d="M233.8,467.2c1,2,2,4,3,6-.3,0-.7,0-1,0-.7-2-1.3-4-2-6Z"/>
  <path class="cls-4" d="M296.8,264.2c-1.3,1.7-2.7,3.3-4,5,1.3-1.7,2.7-3.3,4-5Z"/>
  <path class="cls-4" d="M599.8,554.2c1.3-1.7,2.7-3.3,4-5-1.3,1.7-2.7,3.3-4,5Z"/>
  <path class="cls-4" d="M613.8,211.2c3,1.1,2.3,3,1,5-.3-1.7-.7-3.3-1-5Z"/>
  <path class="cls-4" d="M586.8,567.2c1.3-1.3,2.7-2.7,4-4l-4,4Z"/>
  <path class="cls-4" d="M615.8,220.2c.7,1.7,1.3,3.3,2,5-.7-1.7-1.3-3.3-2-5Z"/>
  <path class="cls-4" d="M253.8,320.2c-1,2-2,4-3,6,1-2,2-4,3-6Z"/>
  <path class="cls-4" d="M410.8,208.2c-1.1,3-3,2.3-5,1,1.7-.3,3.3-.7,5-1Z"/>
  <path class="cls-4" d="M623.8,520.2c1-1.7,2-3.3,3-5-1,1.7-2,3.3-3,5Z"/>
  <path class="cls-4" d="M338.8,232.2c-1.7,1-3.3,2-5,3,1.7-1,3.3-2,5-3Z"/>
  <path class="cls-4" d="M236.8,477.2c.7,1.7,1.3,3.3,2,5-.7-1.7-1.3-3.3-2-5Z"/>
  <path class="cls-4" d="M239.8,485.2c.7,1.7,1.3,3.3,2,5-.7-1.7-1.3-3.3-2-5Z"/>
  <path class="cls-4" d="M631.8,505.2c1-1.7,2-3.4,2.9-5-1,1.7-2,3.4-2.9,5Z"/>
  <path class="cls-4" d="M566.8,244.2c-1.3-1-2.7-2-4-3,1.3,1,2.7,2,4,3Z"/>
  <path class="cls-4" d="M243.8,495.2c.7,1.3,1.3,2.7,2,4-.7-1.3-1.3-2.7-2-4Z"/>
  <path class="cls-4" d="M403.8,209.2c-1.3.3-2.7.7-4,1,1.3-.3,2.7-.7,4-1Z"/>
  <path class="cls-4" d="M652.8,439.2c.3-1.3.7-2.7,1-4-.3,1.3-.7,2.7-1,4Z"/>
  <path class="cls-4" d="M486.8,210.2c-1.3-.3-2.7-.6-4-1,1.3.3,2.7.6,4,1Z"/>
  <path class="cls-4" d="M278.8,283.2c-1,1.3-2,2.7-3,4,1-1.3,2-2.7,3-4Z"/>
  <path class="cls-4" d="M284.8,276.2c-1,1.3-2,2.7-3,4,1-1.3,2-2.7,3-4Z"/>
  <path class="cls-4" d="M600.8,275.2c-1-1-2-2-3-3,1,1,2,2,3,3Z"/>
  <path class="cls-4" d="M375.8,216.2c-1.3.7-2.7,1.3-4,2,0,0,0,0,0,0,0-.3,0-.7,0-1,1.3-.3,2.7-.7,4-1Z"/>
  <path class="cls-4" d="M628.8,176.2c-1,1-2,2-3,3,1-1,2-2,3-3Z"/>
  <path class="cls-4" d="M615.8,295.2c-.7-1.3-1.3-2.7-2-4,1,1.3,2,2.7,3,4-.3,0-.7,0-1,0Z"/>
  <path class="cls-4" d="M764.8,514.2c0,2.3,0,4.6,0,7,0-2.3,0-4.6,0-7Z"/>
  <path class="cls-4" d="M652.7,382.2c-.6-1-1.3-2.1-1.9-3.1.6,1,1.3,2.1,1.9,3.1Z"/>
  <path class="cls-4" d="M342.8,230.2c-1.3.7-2.7,1.3-4,2,1.3-.7,2.7-1.3,4-2Z"/>
  <path class="cls-4" d="M248.8,505.2c.7,1.3,1.3,2.7,2,4-.7-1.3-1.3-2.7-2-4Z"/>
  <path class="cls-4" d="M352.8,225.2c-1.3.7-2.7,1.3-4,2,1.3-.7,2.7-1.3,4-2Z"/>
  <path class="cls-4" d="M476.8,210.2c.7-.7,1.3-1.3,2-2,.7.3,1.3.7,2,1-1.3.3-2.7.6-4,.9Z"/>
  <path class="cls-4" d="M604.8,548.2c.7-1.3,1.3-2.7,2-4-.7,1.3-1.3,2.7-2,4Z"/>
  <path class="cls-4" d="M623.8,306.2c-.7-1-1.3-2-2-3,.7,1,1.3,2,2,3Z"/>
  <path class="cls-4" d="M557.8,238.2c-1-.7-2-1.3-3-2,1,.7,2,1.3,3,2Z"/>
  <path class="cls-4" d="M257.8,313.2c-.7,1-1.3,2-2,3,.7-1,1.3-2,2-3Z"/>
  <path class="cls-4" d="M626.8,311.2c-.7-1-1.3-2-2-3,.7,1,1.3,2,2,3Z"/>
  <path class="cls-4" d="M260.8,308.2c-.7,1-1.3,2-2,3,.7-1,1.3-2,2-3Z"/>
  <path class="cls-4" d="M262.8,305.2c-.7,1-1.3,2-2,3,.7-1,1.3-2,2-3Z"/>
  <path class="cls-4" d="M260.8,527.2c.7,1,1.3,2,2,3-.7-1-1.3-2-2-3Z"/>
  <path class="cls-4" d="M633.8,172.2c-1,.7-2,1.3-3,2,1-.7,2-1.3,3-2Z"/>
  <path class="cls-4" d="M683.8,176.2c-1-.7-2-1.3-3-2,1,.7,2,1.3,3,2Z"/>
  <path class="cls-4" d="M620.8,185.2c-.7,1-1.3,2-2,3,.7-1,1.3-2,2-3Z"/>
  <path class="cls-4" d="M271.8,292.2c-.7,1-1.3,2-2,3,.7-1,1.3-2,2-3Z"/>
  <path class="cls-4" d="M274.8,288.2c-.7,1-1.3,2-2,3,.7-1,1.3-2,2-3Z"/>
  <path class="cls-4" d="M612.8,290.2c-.7-1-1.3-2-2-3,.7,1,1.3,2,2,3Z"/>
  <path class="cls-4" d="M688.8,234.2c.7-1,1.3-2,2-3-.7,1-1.3,2-2,3Z"/>
  <path class="cls-4" d="M554.8,236.2c-1-.7-2-1.3-3-2,1,.7,2,1.3,3,2Z"/>
  <path class="cls-4" d="M333.8,235.2c-1,.7-2,1.3-3,2,1-.7,2-1.3,3-2Z"/>
  <path class="cls-4" d="M268.8,296.2c-.7,1-1.3,2-2,3,.7-1,1.3-2,2-3Z"/>
  <path class="cls-4" d="M324.8,241.2c-1,.7-2,1.3-3,2,1-.7,2-1.3,3-2Z"/>
  <path class="cls-4" d="M320.8,244.2c-1,.7-2,1.3-3,2,1-.7,2-1.3,3-2Z"/>
  <path class="cls-4" d="M569.8,246.2c-1-.7-2-1.3-3-2,1,.7,2,1.3,3,2Z"/>
  <path class="cls-4" d="M302.8,575.2c1,.7,2,1.3,3,2l-3-2Z"/>
  <path class="cls-4" d="M312.8,250.2c-1,.7-2,1.3-3,2,1-.7,2-1.3,3-2Z"/>
  <path class="cls-4" d="M306.8,255.2c-1,.7-2,1.3-3,2,1-.7,2-1.3,3-2Z"/>
  <path class="cls-4" d="M584.8,569.2c.7-.7,1.3-1.3,2-2-.7.7-1.3,1.3-2,2Z"/>
  <path class="cls-4" d="M615.8,295.2c.3,0,.7,0,1,0,.3.7.6,1.3,1,2-.7-.7-1.3-1.3-2-2Z"/>
  <path class="cls-4" d="M235.8,473.2c.3,0,.7,0,1,0-.3.7-.6,1.3-1,2,0-.7,0-1.3,0-2Z"/>
  <path class="cls-4" d="M596.8,271.2c-.3-.7-.7-1.3-1-2,.3.7.7,1.3,1,2Z"/>
  <path class="cls-4" d="M650.9,376.2c-.3-.4-.7-.7-1-1.1.3.4.7.7,1,1.1Z"/>
  <path class="cls-4" d="M265.8,535.2c.3.3.6.7,1,1-.3-.3-.6-.7-1-1Z"/>
  <path class="cls-4" d="M622.8,522.2c.3-.3.6-.7,1-1-.3.3-.6.7-1,1Z"/>
  <path class="cls-4" d="M266.8,299.2c-.3.3-.7.7-1,1,.3-.3.7-.7,1-1Z"/>
  <path class="cls-4" d="M626.8,515.2c.3-.3.7-.7,1-1-.3.3-.7.7-1,1Z"/>
  <path class="cls-4" d="M684.8,177.2c-.3-.3-.7-.7-1-1,.3.3.7.7,1,1Z"/>
  <path class="cls-4" d="M371.8,217.2c0,.3,0,.7,0,1-.3-.3-.6-.6-1-1,.3,0,.6,0,1,0Z"/>
  <path class="cls-4" d="M250.8,510.2c.3.3.6.7,1,1-.3-.3-.6-.7-1-1Z"/>
  <path class="cls-4" d="M614.8,218.2c.3.3.6.7,1,1-.3-.3-.6-.7-1-1Z"/>
  <path class="cls-4" d="M254.8,318.2c-.3.3-.7.7-1,1,.3-.3.7-.7,1-1Z"/>
  <path class="cls-4" d="M347.8,227.2c-.3.3-.7.6-1,1,.3-.3.7-.6,1-1Z"/>
  <path class="cls-4" d="M692.8,228.2c.3-.3.6-.7,1-1-.3.3-.6.7-1,1Z"/>
  <path class="cls-4" d="M242.8,493.2c.3.3.6.7,1,1-.3-.3-.6-.7-1-1Z"/>
  <path class="cls-4" d="M345.8,228.2c-.3.3-.7.7-1,1,.3-.3.7-.7,1-1Z"/>
  <path class="cls-4" d="M299.8,261.2c-.3.3-.7.7-1,1,.3-.3.7-.7,1-1Z"/>
  <path class="cls-4" d="M301.8,259.2c-.3.3-.7.7-1,1,.3-.3.7-.7,1-1Z"/>
  <path class="cls-4" d="M302.8,258.2c-.3.3-.7.7-1,1,.3-.3.7-.7,1-1Z"/>
  <path class="cls-4" d="M314.8,248.2c-.3.3-.7.7-1,1,.3-.3.7-.7,1-1Z"/>
  <path class="cls-4" d="M303.8,257.2c-.3.3-.7.7-1,1,.3-.3.7-.7,1-1Z"/>
  <path class="cls-4" d="M494.8,274.1c-9.5-1.7-18.9-3.3-28.4-5-.6-.1-1.1-.6-1.7-.9,3.2,0,6.4-.4,9.4,0,5.8.9,11.6,2.1,17.3,3.4,1.2.3,2.2,1.6,3.2,2.4Z"/>
  <path class="cls-4" d="M590.8,390.2c-1.7-8-3.3-16-5-24,1.6,4.6,3.7,9.2,4.8,14,.7,3.2.2,6.7.2,10Z"/>
  <path class="cls-4" d="M292.8,404.2c0,7.3,0,14.7,0,22-2.9-2.8-2.9-19.2,0-22Z"/>
  <path class="cls-4" d="M380.8,549.2c7.3,2.3,14.7,4.6,22,6.9-1.2.1-2.4.6-3.5.3-5.6-1.6-11.2-3.4-16.7-5.3-.7-.2-1.2-1.3-1.8-1.9Z"/>
  <path class="cls-4" d="M434.8,559.2c4.3,0,8.7,0,13,0,.9.5,1.9,1,3.8,2-7.6,0-14.2,0-20.8,0,1.3-.7,2.7-1.3,4-2Z"/>
  <path class="cls-4" d="M591.8,409.2c-.3-5.7-.7-11.4-1-17,.6.5,1.7.9,1.8,1.4.5,4.6.9,9.2,1,13.8,0,.6-1.2,1.2-1.8,1.9Z"/>
  <path class="cls-4" d="M434.8,559.2c-1.3.7-2.7,1.3-4,2-3.7-.4-7.5-.6-11.2-1.1-.7,0-1.2-1.2-1.9-1.8,5.7.3,11.3.7,17,1Z"/>
  <path class="cls-4" d="M295.8,386.2c-1,5-2,10-3,15-1.1-5.4-.5-10.5,3-15Z"/>
  <path class="cls-4" d="M590.8,425.2c.3-4,.7-8,1-12,1,4.1,2.8,8.3-1,12Z"/>
  <path class="cls-4" d="M506.8,278.1c-3.3-1.3-6.7-2.7-10-4,4-.4,7.7.2,10,4Z"/>
  <path class="cls-4" d="M574.8,477.2c1.3-2.7,2.7-5.3,4-8-1.3,2.7-2.7,5.3-4,8Z"/>
  <path class="cls-4" d="M351.8,299.2c-2,1.7-4,3.3-6,5,2-1.7,4-3.3,6-5Z"/>
  <path class="cls-4" d="M517.8,283.1c-2.7-1.3-5.3-2.7-8-4,2.7,1.3,5.3,2.7,8,4Z"/>
  <path class="cls-4" d="M292.8,431.2c.3,2,.7,4,1,6-3.4-1.5-2.1-3.8-1-6Z"/>
  <path class="cls-4" d="M338.8,522.2c1.7,1.3,3.3,2.7,5,4-1.7-1.3-3.3-2.7-5-4Z"/>
  <path class="cls-4" d="M589.8,432.2c.3-1.7.7-3.3,1-5,1.3,2,2.1,3.9-1,5Z"/>
  <path class="cls-4" d="M364.8,541.2c1.7,1,3.3,2,5,3-3,1.2-4.4-.3-5-3Z"/>
  <path class="cls-4" d="M373.8,546.2l4,2c-1.3-.7-2.7-1.3-4-2Z"/>
  <path class="cls-4" d="M404.8,556.2c1.3.3,2.7.7,4,1-1.3-.3-2.7-.7-4-1Z"/>
  <path class="cls-4" d="M550.8,512.2c1-1.3,2-2.7,3-4-1,1.3-2,2.7-3,4Z"/>
  <path class="cls-4" d="M410.8,557.2c1.3.3,2.7.7,4,1-1.3-.3-2.7-.7-4-1Z"/>
  <path class="cls-4" d="M346.8,529.2c1.3,1,2.7,2,4,3-1.3-1-2.7-2-4-3Z"/>
  <path class="cls-4" d="M293.8,439.2c.3,1,.7,2,1,3-.3-1-.7-2-1-3Z"/>
  <path class="cls-4" d="M322.8,329.2c-.7,1-1.3,2-2,3,.7-1,1.3-2,2-3Z"/>
  <path class="cls-4" d="M568.8,329.2c-.7-1-1.3-2-2-3,.7,1,1.3,2,2,3Z"/>
  <path class="cls-4" d="M326.8,324.2c-.7,1-1.3,2-2,3,.7-1,1.3-2,2-3Z"/>
  <path class="cls-4" d="M563.8,322.2c-.7-1-1.3-2-2-3,.7,1,1.3,2,2,3Z"/>
  <path class="cls-4" d="M566.8,491.2c.7-1,1.3-2,2-3-.7,1-1.3,2-2,3Z"/>
  <path class="cls-4" d="M559.8,317.2c-.7-1-1.3-2-2-3,.7,1,1.3,2,2,3Z"/>
  <path class="cls-4" d="M556.8,505.2c.7-1,1.3-2,2-3-.7,1-1.3,2-2,3Z"/>
  <path class="cls-4" d="M525.8,534.2c1-.7,2-1.3,3-2-1,.7-2,1.3-3,2Z"/>
  <path class="cls-4" d="M351.8,533.2c1,.7,2,1.3,3,2-1-.7-2-1.3-3-2Z"/>
  <path class="cls-4" d="M357.8,537.2c1,.7,2,1.3,3,2-1-.7-2-1.3-3-2Z"/>
  <path class="cls-4" d="M360.8,539.2c1,.7,2,1.3,3,2-1-.7-2-1.3-3-2Z"/>
  <path class="cls-4" d="M538.8,296.2c-1-.7-2-1.3-3-2,1,.3,2,.7,3,1,0,.3,0,.7,0,1Z"/>
  <path class="cls-4" d="M358.8,294.2c-1,.7-2,1.3-3,2,1-.7,2-1.3,3-2Z"/>
  <path class="cls-4" d="M534.8,293.2c-1-.7-2-1.3-3-2,1,.7,2,1.3,3,2Z"/>
  <path class="cls-4" d="M362.8,291.2c-1,.7-2,1.3-3,2,1-.7,2-1.3,3-2Z"/>
  <path class="cls-4" d="M367.8,288.2c-1,.7-2,1.3-3,2,1-.7,2-1.3,3-2Z"/>
  <path class="cls-4" d="M521.8,285.2c-1-.7-2-1.3-3-2,1,.7,2,1.3,3,2Z"/>
  <path class="cls-4" d="M568.8,488.2c.7-.7,1.3-1.4,2-2-.7.7-1.3,1.4-2,2Z"/>
  <path class="cls-4" d="M331.8,318.2c-.7.7-1.3,1.3-2,2,.7-.7,1.3-1.3,2-2Z"/>
  <path class="cls-4" d="M543.8,300.2c-.7-.7-1.3-1.3-2-2,.7.7,1.3,1.3,2,2Z"/>
  <path class="cls-4" d="M530.8,290.2c-.7-.3-1.3-.7-2-1,.7.3,1.3.7,2,1Z"/>
  <path class="cls-4" d="M538.8,296.2c0-.3,0-.7,0-1,.3.7.7,1.3,1,2-.3-.3-.7-.7-1-1Z"/>
  <path class="cls-4" d="M541.8,298.2c-.7-.3-1.3-.7-2-1,.7.3,1.3.7,2,1Z"/>
  <path class="cls-4" d="M355.8,296.2c-.7.3-1.3.7-2,1,.7-.3,1.3-.7,2-1Z"/>
  <path class="cls-4" d="M343.8,526.2c.3.3.7.7,1,1-.3-.3-.7-.7-1-1Z"/>
  <path class="cls-4" d="M554.8,507.2c.3-.3.7-.7,1-1-.3.3-.7.7-1,1Z"/>
  <path class="cls-4" d="M555.8,506.2c.3-.3.7-.7,1-1-.3.3-.7.7-1,1Z"/>
  <path class="cls-4" d="M643.8,349.2c0,.1-.2.3-.2.4,0-.1.2-.3.2-.4,0,0,0,0,0,0Z"/>
  <path class="cls-4" d="M585.8,364.2c0-.1.2-.3.2-.4,0,.1-.2.3-.2.4,0,0,0,0,0,0Z"/>
  <path class="cls-4" d="M585.8,365.2c-.3-.3-.7-.7-1-1,.3,0,.7,0,1,0,0,0,0,0,0,0,0,.3,0,.7,0,1Z"/>
</svg>