<?xml version="1.0" encoding="UTF-8"?>
<svg id="Layer_1" data-name="Layer 1" xmlns="http://www.w3.org/2000/svg" version="1.1" viewBox="0 0 888.6 826.4">
  <defs>
    <style>
      .cls-1 {
        fill: #fcf3f3;
        stroke-width: 0px;
      }
    </style>
  </defs>
  <path class="cls-1" d="M355.6,783.4c-21.3-.3-42.5-.9-63.8-.9s-35.9,1-53.9.8c-17.6-.2-35.2-.7-52.7-2.1-13.6-1.1-27.6-2.3-40.6-6.1-23-6.7-44.8-16.8-62-34.3-14.4-14.7-23.7-32.6-28.6-52.3-5.1-20.3-7.4-41.1-6.4-62.1v-12c-.3-1.3-.6-2.7-1-4v-17c.3-25.5.8-51,.9-76.5,0-10.3-1-20.5-.8-30.8.3-18.6,1.6-37.1,1.7-55.7,0-13.7-1.2-27.3-1.6-41-.3-10-.2-20,0-30,0-5.8.7-11.6.8-17.4.4-39.8.7-79.5,1-119.3,0-7.1-.6-14.2-.9-21.4,0,0,.4-.2.4-.3,0-.3-.2-.5-.3-.7v-27c.3-1.7.6-3.3,1-5,1.7-10.3,3-20.6,5.1-30.8,2.8-13.9,7.1-27.3,13.8-39.8,12.4-23.4,30.5-40.1,56.1-48.6,16.6-5.4,33.6-8.6,50.8-10.7,12.5-1.5,25.2-1.4,37.7-2.2,9.3-.5,18.5-1.7,27.7-1.9,8.6-.2,17.1.8,25.7.8,44.1,0,88.2.3,132.2,0,23.4-.2,46.7-1.3,70.1-1.8,5.4,0,10.9.9,16.4.8,6.8,0,13.6-.6,20.4-1,1-.3,2-.6,3-1h28c.3-.3.7-.6,1-1,3,.3,6,.6,9,1h6c22.9.3,45.9.2,68.8,1.2,19.3.9,38.6,3,57.8,4.8,8.6.8,17.2,1.5,25.6,3.1,24.3,4.8,48,11.5,69.3,24.8,11.1,7,19.4,16.9,26.8,27.6,11.7,17,18.2,36,21.9,56,1.7,9,2,18.3,2.9,27.5v16c-.3,9.3-1,18.6-1,27.9,0,15.6.8,31.2.9,46.9.2,20.4.3,40.8,0,61.2-.3,17.4-1.6,34.8-1.8,52.2-.2,14.8.8,29.6.8,44.4s-.9,27.2-.9,40.8c0,25.9.5,51.9,1,77.8.2,10.8,1.1,21.6.9,32.4-.4,26.1-.3,52.2-2.2,78.2-2,26.9-8.9,52.9-25.1,75-12.7,17.4-28.5,31.5-49.6,38.3-13.7,4.4-27.4,8.7-41.3,12.3-6.8,1.8-14.1,2.3-21.2,2.5-21.6.6-43.2,1-64.9,1s-37.9-.9-56.9-.8c-11.7,0-23.3,1.4-35,1.8-5.9.2-11.9-.7-17.8-1.1-2.9-.2-5.8-.7-8.7-.8-18-.4-35.9-.8-53.9-.9-6.8,0-13.6.6-20.4.9h-72l-.2.3ZM764.6,487.4c-.3-24.7-.7-49.3-1-74,.3-1.3.6-2.7,1-4v-17c-.3-3.3-.6-6.7-1-10v-131c.3-.7.6-1.4.9-2v-18.9l-.9-3c-.7-17.1-.9-34.2-2.2-51.2-.7-9.5-2.1-19.1-5-28.1-7.8-24.1-25.3-39.4-49.2-46-14.3-3.9-29.5-5.8-44.4-6.5-26.7-1.3-53.5-1.1-80.3-1.2-9.6,0-19.2,1-28.9.8-23.4-.4-46.8-1.4-70.2-1.9-12.5-.3-25,0-37.5,0s-12.2-.2-18.2.2c-10.1.7-20.1,1.8-30.1,2.7h-1c-5.7-.3-11.3-.6-17-.9-1.7.3-3.4.6-5,1-6.2,0-12.3.3-18.5,0-18-.9-36.1-2.2-54.1-2.8-9.9-.3-19.9.8-29.9.8s-25.9-.7-38.8-.9c-12.3-.2-24.7-.2-37,0-17.7.2-34.3,3.8-49.8,13.2-21.6,13.1-33.4,31.9-36,56.8-.3,1.3-.6,2.7-1,4v24c.3,3,.6,6,.9,9v5c-.3,6.3-.6,12.6-.9,19,.3,2.7.6,5.4,1,8v4c-.3.7-.6,1.4-.9,2-.3,8.5-.7,16.9-1,25.4-.4,13.6-.9,27.2-1,40.9-.2,24.4-.2,48.8,0,73.2,0,20,.8,39.9.9,59.9,0,14.5-.8,28.9-.8,43.4s.9,20.2.9,30.3c0,20.8-.8,41.7-.9,62.5,0,17,.7,33.9.7,50.9s1.3,31.6,6.7,46.8c6.6,18.5,18.3,32.6,36.4,39.9,10.9,4.4,22.9,6.5,34.6,8.7,9.7,1.8,19.6,2.9,29.5,3,16.1.3,32.2-.6,48.4-.8,17.8-.2,35.7-.2,53.5,0,6.6,0,13.2,1.7,19.8,1.8,10.4,0,20.7-.7,31.1-.8,16.9-.2,33.8,0,50.7,0,13.8,0,27.5-.9,41.3-.9s23.5.8,35.2.9c19.5.2,39,.2,58.5,0,7.6,0,15.2-1.5,22.8-1.7,10.8-.2,21.6.3,32.4.4h17.9c6.8,0,13.6-.5,20.4-.4,8.4,0,16.8,1.2,25.1.5,10.8-.9,21.5-2.9,32.2-4.8,19.6-3.5,34.3-14.7,44.7-31.2,8.7-13.8,10.7-29.9,11.9-45.8,1.4-19,1.6-38.1,2.1-57.2.5-16.9.7-33.8,1-50.7v-45.3Z"/>
  <path class="cls-1" d="M47.6,185.4v7-7Z"/>
  <path class="cls-1" d="M824.7,193.4v-7,7Z"/>
  <path class="cls-1" d="M46.6,593.4v4-4Z"/>
  <path class="cls-1" d="M47.6,620.4v6-6Z"/>
  <path class="cls-1" d="M551.6,32.4h-6,6Z"/>
  <path class="cls-1" d="M48.6,168.4c-.3,1.7-.6,3.3-1,5,.3-1.7.6-3.3,1-5Z"/>
  <path class="cls-1" d="M355.6,783.4h3-3Z"/>
  <path class="cls-1" d="M507.6,32.4c-1,.3-2,.6-3,1,1-.3,2-.6,3-1Z"/>
  <path class="cls-1" d="M47.6,175.4v4-4Z"/>
  <path class="cls-1" d="M46.6,610.4c.3,1.3.6,2.7,1,4-.3-1.3-.6-2.7-1-4Z"/>
  <path class="cls-1" d="M519.6,32.4h-3,3Z"/>
  <path class="cls-1" d="M421.6,783.4h2-2Z"/>
  <path class="cls-1" d="M47.7,200.4c0,.2.3.5.3.7,0,0-.2.2-.4.3v-1h.1Z"/>
  <path class="cls-1" d="M824.6,181.4v-1c0,.2.3.5.3.7,0,0-.2.2-.3.3Z"/>
  <path class="cls-1" d="M824.7,178.4v-1c0,.2.3.5.4.7,0,0-.2.2-.3.3h-.1Z"/>
  <path class="cls-1" d="M536.6,31.4c-.3.3-.7.6-1,1,.3-.3.7-.6,1-1Z"/>
  <path class="cls-1" d="M426.6,783.4h1-1Z"/>
  <path class="cls-1" d="M764.6,392.4c-.3-3.3-.6-6.7-1-10,.3,3.3.6,6.7,1,10Z"/>
  <path class="cls-1" d="M109.6,191.4c.3,3,.6,6,.9,9-.3-3-.6-6-.9-9Z"/>
  <path class="cls-1" d="M109.6,224.4c.3,2.7.6,5.4,1,8-.3-2.7-.6-5.4-1-8Z"/>
  <path class="cls-1" d="M109.6,180.4v7-7Z"/>
  <path class="cls-1" d="M764.6,239.4v-5.1,5.1Z"/>
  <path class="cls-1" d="M379.6,95.4c-1.7.3-3.3.6-5,1,1.7-.3,3.3-.6,5-1Z"/>
  <path class="cls-1" d="M764.6,491.4v-4,4Z"/>
  <path class="cls-1" d="M110.6,163.4c-.3,1.3-.6,2.7-1,4,.3-1.3.6-2.7,1-4Z"/>
  <path class="cls-1" d="M763.6,413.4c.3-1.3.6-2.7,1-4-.3,1.3-.6,2.7-1,4Z"/>
  <path class="cls-1" d="M110.6,202.4v3-3Z"/>
  <path class="cls-1" d="M764.6,230.4c-.3-1-.6-2-.9-3,.3,1,.6,2,.9,3Z"/>
  <path class="cls-1" d="M764.6,524.4v-2,2Z"/>
  <path class="cls-1" d="M763.6,258.4v-2,2Z"/>
  <path class="cls-1" d="M763.6,251.4c.3-.7.6-1.4.9-2-.3.7-.6,1.4-.9,2Z"/>
  <path class="cls-1" d="M110.6,236.4c-.3.7-.6,1.4-.9,2,.3-.7.6-1.4.9-2Z"/>
  <path class="cls-1" d="M764.6,532.4v-2,2Z"/>
  <path class="cls-1" d="M397.6,96.4h-1,1Z"/>
  <path class="cls-1" d="M448.6,622.4c.3,2,.6,4,.9,6-.3,3-.6,6-1,9,0,8-1.4,10-9,12-4.3,1.1-8.8,1.8-13.2,1.9-20.2.2-40.3.4-60.5,0-11.4-.3-16.9-4.9-16.4-16.4.3-5.8,0-11.7,0-17.5-.3-5-.6-10-1-15v-2c.3-2.7.6-5.4,1-8v-3c-.3-28.8-.8-57.5-.9-86.3,0-9.6.8-19.2.9-28.9,0-5-.6-9.9-.9-14.9.3-1.6.9-3.1.9-4.7v-76.8c0-6.6-1.1-13.2-.8-19.7.6-12.1,1.5-24.1,3-36.1.3-2.5,3.7-5.9,6.2-6.5,7.6-1.7,15.5-2.7,23.3-3.1,11.9-.7,24-1.6,35.8-.6,6.9.6,14.5-1.8,21,3.9,3.7,3.2,5.3,6.6,5.5,11,.2,4.3-.1,8.7.1,13,.1,2.2,1,4.3,1.9,7.5,3.6-2.6,6.3-4.3,8.8-6.4,11.7-9.6,25.1-15.7,39.3-20.9,15.3-5.6,31.1-7.5,47.1-8.7,17.2-1.3,34.2.2,50.5,5.4,15.9,5,30.3,13,43.3,23.9,14.3,12,24.7,26.6,30.9,43.9,3.4,9.6,5.6,19.8,7,29.9,1.8,12.6,2.2,25.4,3.2,38.1v25.3c0,2.2.6,4.4.9,6.7v18c0,4.1,0,8.3,0,12.4.2,4.2.6,8.4.9,12.6v12c-.6,19.9-1.4,39.8-1.9,59.7-.4,14.5-.5,29.1-.7,43.6,0,4.8-3.5,7.3-7,8.3-5,1.5-10.4,2-15.7,2.2-16.4.6-32.7.8-49.1,1-3.8,0-7.6-.5-11.3-1.4-9.8-2.4-13.3-6.9-13.3-17v-9.5c.3-.3.6-.7,1-1-.3-7.9-.7-15.8-.9-23.7,0-2.8.6-5.5.9-8.3v-7c-.3-6.6-1-13.3-.9-19.9.3-10.9,1.3-21.8,1.6-32.8.2-6.6-.6-13.2-.7-19.9,0-4.4,0-8.8,0-13.3,0-18.1,1.4-36.3-2.9-54.1-6-24.9-21.2-36.5-45.5-41.6-11.5-2.4-23.7-.7-35.4,3.2-11,3.7-21.4,8.3-29.2,17-10.1,11.1-16.3,24.1-16.8,39.4-.4,12-.7,23.9-1,35.9.3,3,.6,6,.9,9v7c-.3,1.6-.9,3.1-.9,4.7v32.4c.3,1,.7,2,1,3v11c-.3.3-.6.7-.9,1,.3,1.7.6,3.3.9,5v12c-.3,4.3-.6,8.7-.9,13v5.9c.3,2,.6,4,.9,6v3c-.3,3-.6,6-.9,9v.2Z"/>
  <path class="cls-1" d="M186.6,341.4c.3-3.7.7-7.3,1-11,.3-1,.7-2,1-3,1.5-4.4,3.7-7.1,9.2-7.2,14-.2,28-1.5,42.1-1.7,11.8-.2,23.7.4,35.5.9,10.4.4,12.3,5.6,13,15.7.7,10.7-.4,21.5-.7,32.3v14c.3.3.6.7.9,1-.3,3-.6,6-.9,9v75c.3,3.3.6,6.6.9,10-.3,1-.6,2-.9,3v11c.3,19,.7,38,1,57v90.9c-.5,9.5-5.7,14.8-15.3,15-10.2.2-20.5,0-30.7,0-5-.3-10-.6-15-.9h-7c-6.3,0-12.6,0-18.9,0-9.1-.3-12.8-4.5-13.1-13.9v-96c-.3-2-.6-4-.9-6,.3-2.3.6-4.6.9-7-.3-5.7-.6-11.4-.9-17,.3-3,.6-6,.9-9v-4.1c-.3-2.3-.6-4.6-.9-7v-9c.3-.3.6-.7,1-1-.3-2.6-1-5.2-.9-7.9.2-17.1.9-34.2.9-51.3,0-24.6-.6-49.2-1-73.8v-5c-.3-1-.6-2-.9-3h-.3Z"/>
  <path class="cls-1" d="M235.1,157.4c33.9,1.4,57.7,23.6,57.2,60.5-.4,32.1-23.9,57.1-54.9,57-37.7-.1-64.3-19.2-64.6-57.4-.3-33.4,27.9-59.6,62.3-60.2h0Z"/>
  <path class="cls-1" d="M676.6,484.4c-.3-2.2-.9-4.4-.9-6.7,0-8.4,0-16.9,0-25.3.6,4.1,1.8,8.3,1.8,12.4,0,6.5-.6,13.1-.9,19.6h0Z"/>
  <path class="cls-1" d="M448.6,546.4v-25.4c0-1.6.6-3.1.9-4.7v25.3c0,1.6-.6,3.1-.9,4.7h0Z"/>
  <path class="cls-1" d="M349.6,431.4v23.3c0,1.6-.6,3.1-.9,4.7v-23.3c0-1.6.6-3.1.9-4.7Z"/>
  <path class="cls-1" d="M677.6,527.4c-.3-4.2-.8-8.4-.9-12.6-.2-4.1,0-8.3,0-12.4h.9v25Z"/>
  <path class="cls-1" d="M188.6,615.4v23c-.3-2.7-.9-5.4-.9-8-.1-5,0-10,0-15h1-.1Z"/>
  <path class="cls-1" d="M227.6,652.4c5,.3,10,.6,15,.9-5-.3-10-.6-15-.9Z"/>
  <path class="cls-1" d="M187.6,512.4c.3,5.7.6,11.4.9,17-.3-5.7-.6-11.4-.9-17Z"/>
  <path class="cls-1" d="M348.6,602.4c.3,5,.6,10,1,15-.3-5-.6-10-1-15Z"/>
  <path class="cls-1" d="M677.5,502.4h-.9v-9c.3,3,.6,6,.9,9Z"/>
  <path class="cls-1" d="M448.6,598.4c.3-4.3.6-8.7.9-13-.3,4.3-.6,8.7-.9,13Z"/>
  <path class="cls-1" d="M449.6,583.4v-10,10Z"/>
  <path class="cls-1" d="M448.6,622.4c.3-3,.6-6,.9-9-.3,3-.6,6-.9,9Z"/>
  <path class="cls-1" d="M448.6,637.4c.3-3,.6-6,1-9-.3,3-.6,6-1,9Z"/>
  <path class="cls-1" d="M449.6,509.4c-.3-3-.6-6-.9-9,.3,3,.6,6,.9,9Z"/>
  <path class="cls-1" d="M349.6,592.4c-.3,2.7-.6,5.4-1,8,.3-2.7.6-5.4,1-8Z"/>
  <path class="cls-1" d="M287.6,375.4v-8,8Z"/>
  <path class="cls-1" d="M287.6,399.4v-8,8Z"/>
  <path class="cls-1" d="M449.6,610.4c-.3-2-.6-4-.9-6,.3,2,.6,4,.9,6Z"/>
  <path class="cls-1" d="M288.7,560.4v-6,6Z"/>
  <path class="cls-1" d="M188.6,546.4v6-6Z"/>
  <path class="cls-1" d="M187.6,536.4c.3,2,.6,4,.9,6h-1v-6h.1Z"/>
  <path class="cls-1" d="M220.6,652.4h5.1-5.1Z"/>
  <path class="cls-1" d="M677.6,539.4v-5,5Z"/>
  <path class="cls-1" d="M188.6,499.4v4.1-4.1Z"/>
  <path class="cls-1" d="M187.6,488.4v4-4Z"/>
  <path class="cls-1" d="M188.6,615.4h-1c.3-1,.6-2,.9-3v3h.1Z"/>
  <path class="cls-1" d="M287.7,479.4c.3-1,.6-2,.9-3-.3,1-.6,2-.9,3Z"/>
  <path class="cls-1" d="M188.6,606.4v3-3Z"/>
  <path class="cls-1" d="M188.6,601.4v3-3Z"/>
  <path class="cls-1" d="M188.6,327.4c-.3,1-.7,2-1,3,.3-1,.7-2,1-3Z"/>
  <path class="cls-1" d="M449.6,556.4c-.3-1-.7-2-1-3,.3,1,.7,2,1,3Z"/>
  <path class="cls-1" d="M186.6,341.4c.3,1,.6,2,.9,3-.3-1-.6-2-.9-3Z"/>
  <path class="cls-1" d="M188.6,555.4v3-3Z"/>
  <path class="cls-1" d="M449.6,563.4v-2,2Z"/>
  <path class="cls-1" d="M288.7,573.4v-2,2Z"/>
  <path class="cls-1" d="M579.6,591.4v2-2Z"/>
  <path class="cls-1" d="M287.7,466.4v-2,2Z"/>
  <path class="cls-1" d="M287.6,490.4v-2,2Z"/>
  <path class="cls-1" d="M448.6,568.4c.3-.3.6-.7.9-1-.3.3-.6.7-.9,1Z"/>
  <path class="cls-1" d="M188.6,570.4v1c-.1-.2-.3-.5-.4-.7,0,0,.2-.2.3-.3h0Z"/>
  <path class="cls-1" d="M187.6,348.4v1.1c-.1-.3-.3-.5-.3-.8,0,0,.2-.2.4-.3h0Z"/>
  <path class="cls-1" d="M287.6,378.4v-1c.1.2.3.5.4.7l-.3.3h-.1Z"/>
  <path class="cls-1" d="M349.6,589.4v1c-.1-.2-.3-.5-.4-.7,0,0,.2-.2.4-.3Z"/>
  <path class="cls-1" d="M448.6,551.4v-1c.1.2.3.5.4.7,0,0-.2.2-.4.3Z"/>
  <path class="cls-1" d="M288.6,548.4v-1c.1.2.3.5.4.7,0,0-.2.2-.4.3Z"/>
  <path class="cls-1" d="M288.6,382.4c-.3-.3-.6-.7-.9-1,.3.3.6.7.9,1Z"/>
  <path class="cls-1" d="M187.6,542.4h1v1c-.3-.3-.6-.7-1-1Z"/>
  <path class="cls-1" d="M287.6,449.4v-1c.1.2.3.5.4.7,0,0-.2.2-.4.3Z"/>
  <path class="cls-1" d="M579.6,625.4c-.3.3-.6.7-1,1,.3-.3.6-.7,1-1Z"/>
  <path class="cls-1" d="M188.6,482.4c-.3.3-.6.7-1,1,.3-.3.6-.7,1-1Z"/>
  <path class="cls-1" d="M579.6,586.4v1c0-.2-.3-.5-.3-.7,0,0,.2-.2.4-.3h-.1Z"/>
</svg>