<?xml version="1.0" encoding="UTF-8"?>
<svg id="Layer_1" data-name="Layer 1" xmlns="http://www.w3.org/2000/svg" xmlns:xlink="http://www.w3.org/1999/xlink" version="1.1" viewBox="0 0 1584.1 650.9">
  <defs>
    <style>
      .cls-1 {
        clip-path: url(#clippath);
      }

      .cls-2 {
        fill: none;
      }

      .cls-2, .cls-3 {
        stroke-width: 0px;
      }

      .cls-3 {
        fill: #e96430;
      }
    </style>
    <clipPath id="clippath">
      <rect class="cls-2" x="54.4" y="51.5" width="1432.7" height="506.4"/>
    </clipPath>
  </defs>
  <g class="cls-1">
    <g id="Group_6" data-name="Group 6">
      <path id="Path_4" data-name="Path 4" class="cls-3" d="M469.1,56.8c-52.3,0-104.9,0-156.2,3.1-56,3.5-111.5,10.7-168.1,8.2-10-.4-21.2-1.1-29.4.7-6.7,1.5-9.2,4.2-10.8,6.7-6.3,9.5-7.8,19.2-9.3,28.9-21.2,141.4-34.9,283.9-40.8,426.8-.2,5.9.7,12.6,15.1,16.4,11.2,2.9,27.1,3.2,41.8,3.2l931.7,5,379.3,2c7.6,0,15.9,0,21.5-1.6,5.2-1.5,6.3-3.8,7.2-6,20-49.5,40-99.3,35.4-149.2-3.7-39.1-22.5-78-26.5-117.1-5.3-51.9,15.4-103.9,0-155.6-7.6-25.7-24.1-51.4-13.5-77"/>
    </g>
  </g>
</svg>