<?xml version="1.0" encoding="UTF-8"?>
<svg id="Layer_1" data-name="Layer 1" xmlns="http://www.w3.org/2000/svg" xmlns:xlink="http://www.w3.org/1999/xlink" version="1.1" viewBox="0 0 2424.69 893.35">
  <defs>
    <style>
      .cls-1 {
        clip-path: url(#clippath);
      }

      .cls-2 {
        fill: none;
      }

      .cls-2, .cls-3 {
        stroke-width: 0px;
      }

      .cls-3 {
        fill: #e96430;
      }
    </style>
    <clipPath id="clippath">
      <rect class="cls-2" x="29.17" y="130.95" width="2376.68" height="570.02"/>
    </clipPath>
  </defs>
  <g class="cls-1">
    <g id="Group_3" data-name="Group 3">
      <path id="Path_3" data-name="Path 3" class="cls-3" d="M83.91,163.13c-44.52,119.66-61.95,240.78-52.04,361.58,3.06,37.25,8.92,74.94,38.32,110.48,13.88,16.77,34.4,33.65,71.29,44.17,30.08,8.58,67.93,12.04,104.96,14.39,91.19,5.78,184.08,6.02,276.51,6.19,216.97.4,433.95.61,650.92.62,274.01.13,548.03.27,822.04.41,74.73.04,154.76-.53,216.03-16.87,45.5-12.14,74.16-31.43,96.25-50.88,53.26-46.89,76.77-97.95,88.54-148.87,24.68-106.78-.89-215.23-75.11-318.61-3.02-4.21-6.36-8.58-14.04-11.81-13.39-5.65-35.65-6.26-55.58-6.48l-1262.47-14.18c-166.91-1.87-334.02-3.75-500.81-.72-127.61,2.32-255.29,7.51-382.85,4.74-16.77-.37-35.03-.72-48.76,2.97-13.73,3.69-16.83,13.19-1.58,15.88,7.29,1.28,16.23.62,23.36,2.03s7.05,6.9-.87,6.4"/>
    </g>
    <rect class="cls-3" x="-82.58" y="138.52" width="515.93" height="558.74"/>
    <rect class="cls-3" x="1908.76" y="146.47" width="515.93" height="565.66"/>
  </g>
</svg>