<?xml version="1.0" encoding="UTF-8"?>
<svg id="Layer_1" data-name="Layer 1" xmlns="http://www.w3.org/2000/svg" xmlns:xlink="http://www.w3.org/1999/xlink" version="1.1" viewBox="0 0 2424.69 1897.83">
  <defs>
    <style>
      .cls-1 {
        clip-path: url(#clippath);
      }

      .cls-2 {
        fill: none;
      }

      .cls-2, .cls-3 {
        stroke-width: 0px;
      }

      .cls-3 {
        fill: #e96430;
      }
    </style>
    <clipPath id="clippath">
      <rect class="cls-2" x="29.17" y="130.95" width="2376.68" height="1675.64"/>
    </clipPath>
  </defs>
  <g class="cls-1">
    <g id="Group_3" data-name="Group 3">
      <path id="Path_3" data-name="Path 3" class="cls-3" d="M83.91,225.54C39.39,577.29,21.96,933.36,31.86,1288.46c3.06,109.5,8.92,220.29,38.32,324.76,13.88,49.3,34.4,98.91,71.29,129.84,30.08,25.22,67.93,35.4,104.96,42.3,91.19,16.99,184.08,17.68,276.51,18.18,216.97,1.18,433.95,1.78,650.92,1.82,274.01.39,548.03.8,822.04,1.21,74.73.11,154.76-1.55,216.03-49.59,45.5-35.68,74.16-92.4,96.25-149.57,53.26-137.82,76.77-287.95,88.54-437.61,24.68-313.9-.89-632.69-75.11-936.59-3.02-12.38-6.36-25.22-14.04-34.73-13.39-16.59-35.65-18.39-55.58-19.05l-1262.47-41.68c-166.91-5.51-334.02-11.01-500.81-2.1-127.61,6.83-255.29,22.09-382.85,13.93-16.77-1.08-35.03-2.11-48.76,8.74-13.73,10.85-16.83,38.79-1.58,46.69,7.29,3.77,16.23,1.81,23.36,5.96s7.05,20.28-.87,18.81"/>
    </g>
    <rect class="cls-3" x="-82.58" y="153.21" width="515.93" height="1642.48"/>
    <rect class="cls-3" x="1908.76" y="176.59" width="515.93" height="1662.83"/>
  </g>
</svg>